{"glyphs":{"0":{"ha":1015,"x_min":42,"x_max":972,"o":"m 512 1000 q 762 940 659 1000 q 918 765 865 881 q 972 484 972 650 q 914 213 972 328 q 751 35 856 98 q 503 -28 646 -28 q 253 32 356 -28 q 96 207 150 92 q 42 488 42 322 q 100 759 42 644 q 264 937 158 874 q 512 1000 369 1000 m 644 451 q 629 724 644 622 q 582 872 613 826 q 501 917 550 917 q 428 877 457 917 q 384 751 399 838 q 370 521 370 664 q 386 248 370 350 q 433 101 401 146 q 513 56 465 56 q 587 95 558 56 q 630 221 616 134 q 644 451 644 308 z "},"1":{"ha":711,"x_min":51,"x_max":670,"o":"m 120 810 l 163 810 q 198 797 187 810 q 208 750 208 785 l 208 174 q 198 132 208 147 q 167 113 187 118 l 97 98 q 51 48 51 87 q 66 13 51 26 q 112 0 81 0 l 617 0 q 657 13 644 0 q 670 48 670 26 q 631 97 670 88 l 569 113 q 541 132 551 118 q 531 174 531 147 l 531 938 q 474 993 531 993 q 441 989 457 993 q 407 976 426 985 q 302 933 349 948 q 187 919 255 919 l 124 919 q 77 903 94 919 q 60 864 60 888 q 74 825 60 840 q 120 810 89 810 z "},"2":{"ha":926,"x_min":42,"x_max":904,"o":"m 182 235 l 135 271 l 263 336 q 391 426 338 375 q 471 544 444 476 q 499 703 499 613 q 489 836 499 786 q 462 908 480 885 q 419 930 444 930 q 370 898 385 930 q 356 810 356 866 l 356 713 q 317 611 356 649 q 208 573 278 573 q 102 614 142 573 q 63 729 63 655 q 105 862 63 800 q 232 962 146 924 q 452 1000 318 1000 q 669 963 585 1000 q 795 861 754 926 q 835 713 835 797 q 794 577 835 640 q 664 457 752 515 q 439 342 576 400 l 182 235 m 42 125 q 106 256 42 207 q 291 305 169 305 q 394 298 346 305 q 490 283 443 292 q 585 268 536 275 q 688 262 633 262 q 763 280 734 262 q 815 335 792 297 q 839 360 826 353 q 867 366 852 367 q 895 349 885 365 q 901 299 904 333 q 860 109 892 181 q 773 5 827 38 q 647 -28 719 -28 q 545 -11 588 -28 q 470 42 501 5 q 417 144 440 80 q 397 188 406 178 q 372 199 388 199 q 344 183 356 199 q 330 132 333 167 q 305 38 325 73 q 251 -12 285 3 q 171 -28 217 -28 q 78 14 115 -28 q 42 125 42 55 z "},"3":{"ha":859,"x_min":53,"x_max":831,"o":"m 409 504 l 385 527 q 415 534 399 531 q 449 539 431 537 q 488 540 467 540 q 662 510 587 540 q 779 423 737 479 q 821 288 821 366 q 772 121 821 192 q 632 11 723 50 q 416 -28 542 -28 q 214 1 294 -28 q 93 82 133 31 q 53 199 53 133 q 97 309 53 266 q 206 351 141 351 q 311 315 276 351 q 346 218 346 278 l 346 144 q 364 75 346 103 q 414 47 381 47 q 469 66 447 47 q 505 130 492 86 q 517 244 517 173 q 484 394 517 349 q 394 440 451 440 l 344 440 q 301 452 315 440 q 288 489 288 465 q 295 521 288 507 q 324 553 303 535 l 633 822 l 642 735 l 274 735 q 228 725 244 735 q 207 692 213 715 l 193 638 q 175 605 188 617 q 135 593 161 593 q 94 607 110 593 q 81 648 78 620 l 106 908 q 131 955 109 938 q 188 972 152 972 l 753 972 q 813 962 795 972 q 831 928 831 951 q 820 894 831 913 q 772 840 808 874 l 409 504 z "},"4":{"ha":970,"x_min":21,"x_max":910,"o":"m 455 421 q 461 455 455 440 q 481 480 468 469 l 672 651 q 703 674 691 669 q 727 678 715 678 q 752 669 743 678 q 762 639 762 660 l 763 162 q 772 130 763 140 q 797 113 781 119 l 844 97 q 878 77 867 89 q 890 48 890 66 q 875 13 890 26 q 831 0 861 0 l 376 0 q 317 47 317 0 q 361 97 317 84 l 422 113 q 447 128 439 118 q 455 160 455 139 l 455 421 m 278 561 q 333 623 315 594 q 351 679 351 651 q 343 725 351 703 q 323 767 335 746 q 303 814 312 789 q 295 872 295 840 q 317 950 295 916 q 383 1004 339 985 q 494 1024 427 1024 q 620 986 572 1024 q 668 878 668 948 q 658 819 668 850 q 618 748 649 788 q 525 652 588 708 l 124 292 l 106 335 l 853 335 q 895 325 879 335 q 910 292 910 315 q 852 244 910 244 l 81 244 q 37 259 53 244 q 21 299 21 274 q 30 328 21 313 q 63 365 40 344 l 278 561 z "},"5":{"ha":880,"x_min":55,"x_max":831,"o":"m 55 195 q 99 307 55 263 q 209 351 144 351 q 313 314 278 351 q 347 217 347 276 l 347 121 q 366 65 347 89 q 419 41 384 41 q 490 92 463 41 q 518 253 518 142 q 476 433 518 378 q 364 488 434 488 q 323 482 343 488 q 283 465 303 476 q 240 435 263 453 q 203 411 218 418 q 169 405 188 405 q 134 416 149 405 q 118 453 118 428 l 118 915 q 138 968 118 949 q 199 988 157 988 q 234 984 215 988 q 282 973 253 981 q 362 956 318 963 q 453 944 406 948 q 547 940 501 940 q 672 951 628 940 q 742 981 717 963 q 783 1002 767 999 q 808 1001 798 1005 q 824 986 818 997 q 827 950 831 974 q 774 792 815 851 q 661 707 733 733 q 484 681 589 681 q 365 688 426 681 q 249 708 303 695 q 154 739 194 722 l 224 824 l 224 476 l 183 490 q 263 548 223 526 q 350 579 303 569 q 459 589 397 589 q 650 553 568 589 q 777 450 731 517 q 822 294 822 384 q 770 118 822 190 q 625 9 719 47 q 406 -28 531 -28 q 211 1 289 -28 q 94 81 133 31 q 55 195 55 131 z "},"6":{"ha":936,"x_min":42,"x_max":894,"o":"m 533 1000 q 716 970 641 1000 q 829 891 790 940 q 867 785 867 842 q 825 677 867 715 q 713 638 783 638 q 602 674 641 638 q 563 776 563 710 l 563 844 q 547 899 563 881 q 498 917 531 917 q 443 892 468 917 q 399 811 417 867 q 370 663 381 756 q 360 435 360 570 q 376 201 360 284 q 419 86 392 118 q 476 53 445 53 q 558 106 528 53 q 588 271 588 158 q 552 426 588 374 q 458 478 515 478 q 401 465 428 478 q 354 428 374 452 q 327 371 335 403 l 277 396 q 323 492 282 447 q 431 565 364 537 q 581 593 498 593 q 748 560 677 593 q 856 464 818 527 q 894 307 894 400 q 844 132 894 208 q 701 15 794 57 q 481 -28 608 -28 q 242 32 340 -28 q 93 200 144 92 q 42 454 42 309 q 100 747 42 624 q 269 934 159 869 q 533 1000 380 1000 z "},"7":{"ha":795,"x_min":48,"x_max":817,"o":"m 575 730 l 628 706 l 242 706 q 200 696 213 706 q 181 662 187 686 l 163 590 q 143 557 158 569 q 104 544 128 544 q 62 559 76 544 q 49 600 48 573 l 69 908 q 89 955 70 937 q 139 972 107 972 l 734 972 q 796 954 775 972 q 817 908 817 936 q 806 870 817 890 q 764 815 794 850 l 629 659 q 541 554 574 595 q 493 486 509 513 q 473 441 478 460 q 469 405 469 423 q 485 339 469 367 q 524 286 502 312 q 563 227 546 260 q 579 144 579 194 q 530 24 579 76 q 381 -28 480 -28 q 228 24 286 -28 q 170 169 170 75 q 189 268 170 219 q 257 381 208 317 q 393 538 305 445 l 575 730 z "},"8":{"ha":962,"x_min":62,"x_max":910,"o":"m 447 -27 q 225 5 310 -27 q 101 92 140 37 q 62 217 62 148 q 97 317 62 273 q 209 390 133 362 q 408 424 285 417 l 407 408 q 380 334 387 382 q 374 240 374 285 q 400 94 374 147 q 485 40 427 40 q 560 77 536 40 q 583 175 583 113 q 565 263 583 223 q 502 335 547 303 q 376 387 457 366 q 139 506 212 430 q 67 675 67 582 q 114 833 67 758 q 262 953 162 907 q 518 1000 362 1000 q 724 965 638 1000 q 858 869 810 931 q 905 729 905 808 q 869 618 905 670 q 755 531 834 565 q 544 492 676 497 l 523 510 q 563 567 545 534 q 591 642 581 601 q 601 729 601 683 q 587 839 601 794 q 546 906 574 883 q 476 928 519 928 q 419 911 442 928 q 385 863 396 893 q 374 792 374 832 q 396 680 374 728 q 470 597 418 632 q 612 535 522 562 q 836 422 763 491 q 910 263 910 353 q 856 114 910 180 q 700 11 803 49 q 447 -27 597 -27 z "},"9":{"ha":936,"x_min":42,"x_max":894,"o":"m 403 -28 q 220 2 295 -28 q 107 82 146 33 q 69 188 69 131 q 111 296 69 258 q 224 334 153 334 q 334 298 295 334 q 374 196 374 262 l 374 128 q 390 73 374 92 q 438 55 406 55 q 509 100 478 55 q 558 251 540 146 q 576 537 576 357 q 560 772 576 689 q 517 886 544 854 q 460 919 491 919 q 378 868 408 919 q 348 706 348 817 q 384 556 348 607 q 478 505 421 505 q 536 517 508 505 q 583 550 563 528 q 609 601 603 572 l 659 588 q 613 492 654 537 q 505 418 572 447 q 356 390 438 390 q 189 422 259 390 q 80 517 118 454 q 42 669 42 579 q 92 842 42 767 q 235 958 142 916 q 455 1000 328 1000 q 694 940 597 1000 q 843 772 792 881 q 894 518 894 664 q 836 226 894 349 q 667 38 777 103 q 403 -28 557 -28 z "}," ":{"ha":285,"x_min":0,"x_max":0,"o":""}," ":{"ha":285,"x_min":0,"x_max":0,"o":""},"A":{"ha":1094,"x_min":19,"x_max":1060,"o":"m 248 414 l 653 414 l 654 310 l 247 310 l 248 414 m 360 47 q 345 13 360 26 q 301 0 331 0 l 78 0 q 34 13 49 0 q 19 47 19 26 q 27 73 19 63 q 51 94 34 84 l 65 103 q 101 138 88 117 q 129 209 114 158 l 307 783 q 316 843 319 824 q 288 873 313 861 q 260 895 268 883 q 252 925 252 908 q 267 960 252 947 q 312 972 281 972 l 758 972 q 803 960 789 972 q 818 925 818 947 q 809 894 818 906 q 785 874 801 882 q 764 852 767 866 q 771 807 761 838 l 962 202 q 988 134 976 156 q 1019 102 1000 112 q 1052 78 1044 90 q 1060 47 1060 66 q 1046 13 1060 26 q 1001 0 1031 0 l 634 0 q 589 13 603 0 q 574 47 574 26 q 583 75 574 65 q 610 94 592 86 l 633 105 q 648 127 651 113 q 635 174 645 142 l 431 851 l 460 871 l 261 227 q 250 170 250 192 q 263 133 249 148 q 305 103 276 118 l 324 93 q 350 75 340 85 q 360 47 360 65 z "},"B":{"ha":1075,"x_min":62,"x_max":1051,"o":"m 1051 233 q 961 64 1051 128 q 683 0 871 0 l 122 0 q 76 13 91 0 q 62 47 62 26 q 98 99 62 85 l 124 108 q 151 126 142 115 q 160 154 160 137 l 160 818 q 151 846 160 835 q 124 864 142 857 l 98 874 q 62 925 62 888 q 76 960 62 947 q 122 972 91 972 l 561 972 q 794 936 697 972 q 943 835 891 900 q 995 684 995 771 q 953 560 995 614 q 831 476 911 506 q 638 445 751 445 l 669 474 q 868 443 783 474 q 1002 359 954 413 q 1051 233 1051 304 m 573 406 l 394 406 l 394 483 l 539 483 q 625 502 590 483 q 676 562 659 522 q 693 665 693 603 q 670 781 693 733 q 605 856 647 829 q 502 882 562 882 l 482 882 l 482 173 q 506 110 482 131 q 573 90 529 90 l 608 90 q 675 108 647 90 q 719 160 703 126 q 734 243 734 194 q 691 363 734 319 q 573 406 649 406 z "},"C":{"ha":1003,"x_min":42,"x_max":963,"o":"m 963 278 q 934 169 963 224 q 851 70 905 115 q 720 -1 797 26 q 548 -28 644 -28 q 279 37 392 -28 q 103 217 165 102 q 42 481 42 332 q 78 688 42 593 q 182 852 115 782 q 336 961 248 922 q 528 1000 425 1000 q 632 989 592 1000 q 697 966 672 978 q 738 955 721 955 q 771 966 758 955 q 798 987 784 976 q 832 997 811 997 q 861 986 849 997 q 880 949 872 975 l 951 703 q 946 664 958 681 q 913 642 935 647 q 870 645 890 636 q 840 678 851 653 q 763 807 805 761 q 674 872 720 853 q 580 890 628 890 q 489 866 529 890 q 422 796 449 842 q 379 685 394 750 q 365 539 365 620 q 400 318 365 406 q 498 185 435 229 q 644 141 561 141 q 776 178 716 141 q 876 288 837 215 q 902 317 888 310 q 933 320 916 324 q 956 307 949 317 q 963 278 963 296 z "},"D":{"ha":1162,"x_min":62,"x_max":1122,"o":"m 62 47 q 98 99 62 85 l 124 108 q 151 126 142 115 q 160 154 160 137 l 160 818 q 151 846 160 835 q 124 864 142 857 l 98 874 q 62 925 62 888 q 76 960 62 947 q 122 972 91 972 l 553 972 q 785 934 681 972 q 965 826 890 896 q 1081 661 1040 756 q 1122 450 1122 565 q 1060 218 1122 320 q 885 58 998 117 q 620 0 773 0 l 122 0 q 76 13 91 0 q 62 47 62 26 m 579 99 q 686 135 638 99 q 762 250 734 172 q 790 453 790 328 q 772 631 790 553 q 718 763 753 708 q 631 845 682 817 q 516 873 581 873 l 482 873 l 482 176 q 502 118 482 136 q 561 99 523 99 l 579 99 z "},"E":{"ha":961,"x_min":62,"x_max":956,"o":"m 360 542 l 542 542 q 604 559 585 542 q 637 625 622 576 q 657 659 644 649 q 688 669 670 669 q 734 628 724 669 l 788 410 q 788 369 794 384 q 761 347 781 354 q 725 345 742 340 q 696 367 708 350 q 655 416 674 399 q 614 439 637 433 q 556 445 592 445 l 360 445 l 360 542 m 62 925 q 76 960 62 947 q 122 972 91 972 l 645 972 q 698 978 677 972 q 737 991 719 985 q 780 997 756 997 q 827 980 811 997 q 855 922 843 962 l 914 727 q 914 685 922 702 q 885 661 906 669 q 840 661 860 652 q 808 694 820 670 q 751 784 778 749 q 698 838 725 819 q 642 865 672 858 q 576 873 613 873 l 482 873 l 482 184 q 503 120 482 142 q 564 99 524 99 l 597 99 q 689 116 649 99 q 765 177 728 132 q 841 306 801 222 q 869 336 851 328 q 909 340 887 344 q 944 318 933 335 q 948 274 956 300 l 883 50 q 856 -7 872 12 q 806 -25 840 -25 q 766 -19 784 -25 q 727 -6 749 -12 q 674 0 706 0 l 122 0 q 76 13 91 0 q 62 47 62 26 q 98 99 62 85 l 124 108 q 151 126 142 115 q 160 154 160 137 l 160 818 q 151 846 160 835 q 124 864 142 857 l 98 874 q 62 925 62 888 z "},"F":{"ha":906,"x_min":62,"x_max":901,"o":"m 624 972 q 678 978 656 972 q 719 989 701 983 q 756 994 738 994 q 806 977 789 994 q 833 922 822 961 l 894 711 q 888 675 901 690 q 852 656 875 660 q 816 660 834 653 q 786 690 798 667 q 713 805 749 765 q 640 858 678 844 q 557 873 603 873 l 482 873 l 482 154 q 490 125 482 137 q 517 108 498 113 l 559 99 q 591 82 581 94 q 601 47 601 70 q 586 13 601 26 q 541 0 572 0 l 122 0 q 76 13 91 0 q 62 47 62 26 q 98 99 62 85 l 124 108 q 151 126 142 115 q 160 154 160 137 l 160 818 q 151 846 160 835 q 124 864 142 857 l 98 874 q 62 925 62 888 q 76 960 62 947 q 122 972 91 972 l 624 972 m 366 513 l 553 513 q 616 531 597 513 q 652 600 635 548 q 672 629 659 621 q 701 638 684 638 q 750 599 741 638 l 804 378 q 803 340 810 353 q 777 319 795 326 q 741 318 758 312 q 708 344 724 324 q 670 388 688 372 q 630 410 653 403 q 570 416 607 416 l 366 416 l 366 513 z "},"G":{"ha":1090,"x_min":42,"x_max":1058,"o":"m 975 27 q 961 -14 975 -1 q 920 -28 948 -28 q 878 -16 897 -28 q 842 13 859 -3 q 809 41 824 28 q 778 53 793 53 q 741 41 761 53 q 693 13 721 28 q 624 -15 665 -3 q 526 -27 584 -27 q 322 9 412 -27 q 169 113 232 45 q 74 274 107 180 q 42 486 42 369 q 80 690 42 597 q 188 853 119 784 q 349 961 257 923 q 549 1000 442 1000 q 663 989 619 1000 q 733 966 706 978 q 778 955 760 955 q 811 966 799 955 q 838 987 824 976 q 872 997 851 997 q 901 986 890 997 q 920 949 913 975 l 992 703 q 986 664 998 681 q 953 642 975 647 q 910 645 930 636 q 881 678 891 653 q 800 808 845 762 q 703 872 754 854 q 601 890 653 890 q 474 848 527 890 q 393 726 421 805 q 365 539 365 647 q 398 306 365 399 q 490 166 431 213 q 624 119 549 119 q 654 125 642 119 q 675 139 667 130 q 686 161 683 148 q 690 189 690 174 l 690 344 q 683 366 690 358 q 655 380 676 374 l 624 389 q 591 407 603 395 q 578 437 578 419 q 593 470 578 458 q 638 482 608 482 l 997 482 q 1043 470 1028 482 q 1058 438 1058 458 q 1049 409 1058 420 q 1022 391 1040 399 l 1006 385 q 983 370 992 379 q 975 344 975 361 l 975 27 z "},"H":{"ha":1253,"x_min":62,"x_max":1192,"o":"m 294 512 l 883 512 l 883 408 l 294 408 l 294 512 m 482 154 q 491 126 482 137 q 517 108 500 115 l 544 99 q 580 47 580 85 q 565 13 580 26 q 520 0 551 0 l 122 0 q 76 13 91 0 q 62 47 62 26 q 98 99 62 85 l 124 108 q 151 126 142 115 q 160 154 160 137 l 160 818 q 151 846 160 835 q 124 864 142 857 l 98 874 q 62 925 62 888 q 76 960 62 947 q 122 972 91 972 l 520 972 q 565 960 551 972 q 580 925 580 947 q 544 874 580 888 l 517 864 q 491 846 500 857 q 482 818 482 835 l 482 154 m 1094 154 q 1103 126 1094 137 q 1129 108 1112 115 l 1156 99 q 1192 47 1192 85 q 1177 13 1192 26 q 1132 0 1163 0 l 733 0 q 688 13 703 0 q 674 47 674 26 q 710 99 674 85 l 736 108 q 763 126 754 115 q 772 154 772 137 l 772 818 q 763 846 772 835 q 736 864 754 857 l 710 874 q 674 925 674 888 q 688 960 674 947 q 733 972 703 972 l 1132 972 q 1177 960 1163 972 q 1192 925 1192 947 q 1156 874 1192 888 l 1129 864 q 1103 846 1112 857 q 1094 818 1094 835 l 1094 154 z "},"I":{"ha":642,"x_min":62,"x_max":580,"o":"m 482 154 q 491 126 482 137 q 517 108 500 115 l 544 99 q 580 47 580 85 q 565 13 580 26 q 520 0 551 0 l 122 0 q 76 13 91 0 q 62 47 62 26 q 98 99 62 85 l 124 108 q 151 126 142 115 q 160 154 160 137 l 160 818 q 151 846 160 835 q 124 864 142 857 l 98 874 q 62 925 62 888 q 76 960 62 947 q 122 972 91 972 l 520 972 q 565 960 551 972 q 580 925 580 947 q 544 874 580 888 l 517 864 q 491 846 500 857 q 482 818 482 835 l 482 154 z "},"J":{"ha":836,"x_min":35,"x_max":774,"o":"m 735 196 q 640 36 735 97 q 378 -25 545 -25 q 126 34 217 -25 q 35 195 35 92 q 75 310 35 266 q 181 353 115 353 q 278 313 240 353 q 316 198 316 272 l 316 135 q 334 80 316 99 q 388 60 351 60 q 443 79 423 60 q 463 134 463 99 q 447 200 463 169 q 409 269 431 232 q 370 355 387 306 q 354 472 354 403 l 354 818 q 346 848 354 836 q 319 864 338 860 l 277 873 q 245 890 256 878 q 235 925 235 902 q 250 960 235 947 q 295 972 265 972 l 715 972 q 760 960 745 972 q 774 925 774 947 q 738 874 774 888 l 712 864 q 685 846 694 857 q 676 818 676 835 l 676 493 q 685 399 676 438 q 706 329 694 360 q 726 267 717 298 q 735 196 735 235 z "},"K":{"ha":1202,"x_min":62,"x_max":1184,"o":"m 390 399 l 740 728 q 790 790 778 763 q 795 836 803 817 q 762 866 787 855 l 742 875 q 715 895 724 883 q 706 925 706 907 q 721 960 706 947 q 766 972 735 972 l 1072 972 q 1117 960 1103 972 q 1132 925 1132 947 q 1121 896 1132 906 q 1080 872 1110 885 q 1059 861 1070 868 q 1030 840 1049 855 q 978 796 1011 825 q 892 719 946 767 l 433 306 l 390 399 m 526 485 l 774 690 l 1094 157 q 1123 118 1110 129 q 1149 103 1136 108 q 1176 79 1168 93 q 1184 47 1184 65 q 1169 13 1184 26 q 1124 0 1155 0 l 732 0 q 687 13 701 0 q 672 48 672 26 q 681 78 672 66 q 702 96 689 91 l 720 103 q 732 121 733 108 q 715 163 732 134 l 526 485 m 482 154 q 489 126 482 137 q 510 108 495 116 l 530 99 q 559 77 551 88 q 566 47 566 65 q 551 13 566 26 q 506 0 537 0 l 122 0 q 76 13 91 0 q 62 47 62 26 q 98 99 62 85 l 124 108 q 151 126 142 115 q 160 154 160 137 l 160 818 q 151 846 160 835 q 124 864 142 857 l 98 874 q 62 925 62 888 q 76 960 62 947 q 122 972 91 972 l 520 972 q 565 960 551 972 q 580 925 580 947 q 544 874 580 888 l 517 864 q 491 846 500 857 q 482 818 482 835 l 482 154 z "},"L":{"ha":926,"x_min":62,"x_max":915,"o":"m 544 874 l 517 864 q 491 846 500 857 q 482 818 482 835 l 482 151 q 496 111 482 122 q 535 99 510 99 l 589 99 q 653 110 626 99 q 705 148 681 120 q 755 231 729 176 l 801 328 q 831 360 813 352 q 872 361 849 368 q 906 338 896 354 q 908 295 915 322 l 838 50 q 810 -7 827 12 q 760 -25 794 -25 q 724 -19 742 -25 q 684 -6 706 -12 q 629 0 661 0 l 122 0 q 76 13 91 0 q 62 47 62 26 q 98 99 62 85 l 124 108 q 151 126 142 115 q 160 154 160 137 l 160 818 q 151 846 160 835 q 124 864 142 857 l 98 874 q 62 925 62 888 q 76 960 62 947 q 122 972 91 972 l 520 972 q 565 960 551 972 q 580 925 580 947 q 544 874 580 888 z "},"M":{"ha":1370,"x_min":24,"x_max":1336,"o":"m 742 332 l 641 317 l 849 878 q 895 952 869 932 q 967 972 921 972 l 1237 972 q 1282 960 1267 972 q 1297 925 1297 947 q 1287 893 1297 906 q 1261 874 1278 880 l 1235 864 q 1206 844 1213 856 q 1200 808 1199 833 l 1244 161 q 1252 125 1245 135 q 1277 108 1260 115 l 1303 99 q 1328 81 1319 93 q 1336 50 1336 68 q 1322 14 1336 28 q 1276 0 1307 0 l 889 0 q 843 13 858 0 q 828 47 828 26 q 836 78 828 65 q 865 99 844 92 l 892 108 q 920 127 913 116 q 926 162 927 139 l 874 849 l 965 856 l 686 102 q 646 35 667 49 q 597 20 626 20 q 559 25 576 20 q 527 48 542 30 q 497 107 513 67 l 211 829 l 299 844 l 246 186 q 260 135 243 153 q 303 103 277 118 l 322 92 q 341 76 334 86 q 347 49 347 65 q 333 14 347 27 q 288 0 319 0 l 83 0 q 39 13 53 0 q 24 47 24 26 q 35 80 24 69 q 65 101 47 92 l 79 108 q 116 136 101 118 q 135 187 132 154 l 182 777 q 178 837 185 818 q 148 864 170 856 l 122 874 q 94 893 103 881 q 85 925 85 906 q 145 972 85 972 l 412 972 q 481 954 455 972 q 528 881 507 936 l 742 332 z "},"N":{"ha":1073,"x_min":47,"x_max":1050,"o":"m 382 47 q 368 13 382 26 q 323 0 353 1 l 107 0 q 62 13 76 1 q 47 47 47 26 q 88 101 47 83 l 103 108 q 147 141 134 122 q 160 200 160 160 l 160 718 q 155 759 160 744 q 132 797 150 773 l 78 868 q 57 902 63 890 q 51 927 51 914 q 66 960 51 949 q 104 972 81 972 l 338 972 q 384 963 366 972 q 419 928 401 953 l 869 297 l 827 174 l 827 772 q 816 830 827 811 q 770 865 805 849 l 756 872 q 715 925 715 891 q 730 960 715 947 q 774 972 744 972 l 990 972 q 1035 960 1021 972 q 1050 925 1050 947 q 1010 872 1050 890 l 994 865 q 950 832 963 851 q 938 772 938 813 l 938 256 q 942 206 938 228 q 959 167 947 185 l 1002 108 q 1024 73 1020 85 q 1027 47 1027 60 q 1013 13 1027 26 q 974 0 998 0 l 703 0 q 657 37 657 0 q 652 61 657 49 q 623 106 647 74 l 172 739 l 270 801 l 270 199 q 282 143 270 162 q 327 108 293 124 l 342 101 q 382 47 382 83 z "},"O":{"ha":1117,"x_min":42,"x_max":1075,"o":"m 555 1000 q 773 963 676 1000 q 936 857 869 926 q 1039 693 1003 788 q 1075 480 1075 597 q 1040 281 1075 374 q 938 119 1004 189 q 776 11 871 50 q 563 -28 681 -28 q 345 9 442 -28 q 182 115 249 47 q 78 280 114 184 q 42 492 42 375 q 78 691 42 599 q 180 853 113 783 q 341 961 247 922 q 555 1000 436 1000 m 744 290 q 729 472 744 383 q 688 639 714 561 q 630 776 663 717 q 561 868 597 835 q 490 902 526 902 q 427 877 453 902 q 389 803 402 852 q 376 683 376 755 q 391 500 376 590 q 432 333 406 411 q 490 197 458 256 q 559 104 523 138 q 630 70 594 70 q 693 95 668 70 q 731 169 718 120 q 744 290 744 217 z "},"P":{"ha":1065,"x_min":62,"x_max":1028,"o":"m 1028 608 q 979 449 1028 516 q 839 345 931 382 q 621 308 748 308 q 474 326 538 308 q 358 376 410 344 l 369 463 q 419 432 395 444 q 470 415 444 420 q 530 409 497 409 q 624 432 581 409 q 691 500 666 454 q 717 616 717 547 q 688 753 717 696 q 611 842 660 811 q 499 874 562 874 l 482 874 l 482 154 q 490 125 482 137 q 517 108 498 113 l 559 99 q 591 82 581 94 q 601 47 601 70 q 586 13 601 26 q 541 0 572 0 l 122 0 q 76 13 91 0 q 62 47 62 26 q 98 99 62 85 l 124 108 q 151 126 142 115 q 160 154 160 137 l 160 818 q 151 846 160 835 q 124 864 142 857 l 98 874 q 62 925 62 888 q 76 960 62 947 q 122 972 91 972 l 508 972 q 791 925 675 972 q 967 796 907 878 q 1028 608 1028 714 z "},"Q":{"ha":1117,"x_min":41,"x_max":1104,"o":"m 553 1000 q 770 963 674 1000 q 934 857 867 926 q 1038 693 1002 788 q 1074 480 1074 597 q 1038 281 1074 374 q 936 119 1003 189 q 775 11 869 50 q 561 -28 680 -28 q 344 9 440 -28 q 180 115 248 47 q 77 280 113 184 q 41 492 41 375 q 76 691 41 599 q 178 853 112 783 q 340 961 245 922 q 553 1000 435 1000 m 744 290 q 729 472 744 383 q 688 639 714 561 q 630 776 663 717 q 561 868 597 835 q 490 902 526 902 q 427 877 453 902 q 389 803 402 852 q 376 683 376 755 q 391 501 376 590 q 432 334 406 412 q 490 197 458 256 q 559 104 523 138 q 630 70 594 70 q 693 95 668 70 q 731 169 718 120 q 744 290 744 218 m 567 234 q 565 281 560 260 q 594 308 570 301 q 636 302 621 316 q 660 263 652 288 q 716 126 686 180 q 781 41 746 72 q 859 -3 816 10 q 953 -16 901 -16 q 1013 -7 993 -16 q 1046 10 1033 1 q 1077 19 1059 19 q 1098 11 1091 19 q 1104 -11 1104 3 q 1101 -34 1104 -22 q 1090 -62 1097 -46 l 1056 -145 q 1021 -185 1045 -172 q 950 -197 997 -197 q 834 -173 889 -197 q 730 -98 778 -149 q 640 36 681 -46 q 567 234 599 118 z "},"R":{"ha":1155,"x_min":62,"x_max":1123,"o":"m 1053 631 q 1023 515 1053 568 q 938 425 993 462 q 805 375 883 389 q 737 360 767 368 q 676 345 707 351 q 606 339 646 339 q 528 345 564 339 q 463 362 492 351 q 410 387 434 373 l 410 475 q 449 453 429 462 q 494 440 469 444 q 549 436 518 436 q 678 482 632 436 q 724 624 724 527 q 696 757 724 699 q 619 849 668 815 q 509 882 571 882 l 482 882 l 482 154 q 489 126 482 137 q 510 108 495 116 l 530 99 q 559 77 551 88 q 566 47 566 65 q 506 0 566 0 l 122 0 q 76 13 91 0 q 62 47 62 26 q 98 99 62 85 l 124 108 q 151 126 142 115 q 160 154 160 137 l 160 818 q 151 846 160 835 q 124 864 142 857 l 98 874 q 62 925 62 888 q 76 960 62 947 q 122 972 91 972 l 522 972 q 812 929 694 972 q 992 809 931 886 q 1053 631 1053 733 m 575 377 l 887 412 l 1041 148 q 1064 116 1053 126 q 1090 97 1074 105 q 1115 77 1107 89 q 1123 47 1123 65 q 1108 13 1123 26 q 1063 0 1094 0 l 719 0 q 662 47 662 0 q 666 67 662 58 q 682 83 671 76 l 690 90 q 705 108 703 99 q 697 135 706 117 l 575 377 z "},"S":{"ha":901,"x_min":51,"x_max":857,"o":"m 476 -21 q 393 -11 428 -21 q 335 8 358 -1 q 295 18 311 18 q 265 11 278 18 q 239 -3 251 5 q 213 -18 226 -12 q 184 -25 199 -25 q 149 -12 163 -25 q 130 29 135 0 l 90 266 q 97 301 88 286 q 128 323 106 315 q 169 323 151 331 q 200 288 187 314 q 285 161 244 206 q 367 98 326 116 q 452 81 408 81 q 544 107 510 81 q 579 183 579 134 q 563 242 579 217 q 497 290 546 267 q 349 342 447 314 q 175 419 240 374 q 81 528 110 463 q 51 682 51 592 q 95 841 51 772 q 220 951 139 911 q 410 990 301 990 q 507 981 467 990 q 576 961 547 971 q 625 951 604 951 q 656 961 642 951 q 685 983 669 972 q 724 994 701 994 q 762 980 747 994 q 788 926 777 966 l 850 699 q 848 653 857 673 q 816 626 839 633 q 775 627 792 618 q 745 658 757 636 q 650 796 701 746 q 549 868 600 847 q 450 889 498 889 q 365 859 395 889 q 335 781 335 828 q 350 725 335 750 q 414 673 365 699 q 559 613 462 647 q 729 531 665 576 q 822 427 793 486 q 851 287 851 367 q 806 132 851 201 q 677 20 760 62 q 476 -21 593 -21 z "},"T":{"ha":1036,"x_min":27,"x_max":1010,"o":"m 285 972 l 751 972 q 805 978 783 972 q 846 989 828 983 q 882 994 864 994 q 933 977 916 994 q 960 922 949 961 l 1004 691 q 1000 646 1010 663 q 965 624 990 628 q 926 627 943 619 q 897 658 909 635 q 827 785 856 740 q 772 849 798 831 q 715 867 747 867 l 679 867 l 679 154 q 688 126 679 137 q 715 108 697 115 l 741 99 q 777 47 777 85 q 717 0 777 0 l 319 0 q 274 13 288 0 q 259 47 259 26 q 295 99 259 85 l 322 108 q 348 126 340 115 q 357 154 357 137 l 357 867 l 322 867 q 264 849 290 867 q 209 785 238 831 q 139 658 180 740 q 110 627 127 635 q 71 624 93 619 q 37 646 47 628 q 32 691 27 663 l 76 922 q 103 977 87 961 q 154 994 120 994 q 190 989 172 994 q 231 978 208 983 q 285 972 253 972 z "},"U":{"ha":1067,"x_min":44,"x_max":1051,"o":"m 835 431 l 810 776 q 793 836 807 815 q 751 865 780 857 l 731 870 q 693 890 704 878 q 681 924 681 903 q 696 959 681 946 q 737 972 710 972 l 994 972 q 1036 959 1022 972 q 1051 924 1051 946 q 1038 891 1051 903 q 1000 871 1026 879 l 981 865 q 929 829 941 852 q 919 768 917 806 l 947 434 q 952 362 951 397 q 954 288 954 326 q 911 127 954 199 q 778 14 867 56 q 548 -28 688 -28 q 315 11 408 -28 q 175 120 222 49 q 128 288 128 191 q 129 317 128 299 q 132 366 130 335 q 137 448 133 397 l 161 817 q 155 848 163 838 q 122 864 147 858 l 94 870 q 44 924 44 882 q 58 959 44 946 q 100 972 73 972 l 542 972 q 583 959 569 972 q 598 924 598 946 q 586 890 598 903 q 547 871 574 877 l 519 864 q 493 849 501 860 q 484 818 485 838 l 460 444 q 457 366 458 401 q 456 306 456 330 q 502 137 456 188 q 630 85 549 85 q 742 110 695 85 q 815 182 790 135 q 841 292 841 228 q 839 372 841 341 q 835 431 838 403 z "},"V":{"ha":1054,"x_min":23,"x_max":1044,"o":"m 706 925 q 720 960 706 947 q 765 972 735 972 l 985 972 q 1030 960 1015 972 q 1044 925 1044 947 q 1036 899 1044 909 q 1009 879 1027 888 l 989 869 q 946 834 963 857 q 913 760 929 810 l 724 176 q 709 122 713 141 q 704 82 704 102 l 704 44 q 691 11 704 23 q 657 0 677 0 l 403 0 q 370 11 383 0 q 358 46 358 23 l 358 83 q 353 112 358 95 q 342 148 349 128 l 119 807 q 101 845 110 833 q 73 867 91 858 l 53 876 q 23 925 23 892 q 38 960 23 947 q 83 972 52 972 l 482 972 q 527 960 513 972 q 542 925 542 947 q 533 897 542 908 q 506 878 524 887 l 483 868 q 460 842 465 860 q 466 792 455 825 l 667 180 l 579 99 l 800 771 q 804 829 812 806 q 761 869 796 852 l 742 879 q 715 897 724 888 q 706 925 706 907 z "},"W":{"ha":1557,"x_min":7,"x_max":1554,"o":"m 738 756 l 847 741 l 665 155 q 654 117 658 135 q 651 73 651 99 l 651 45 q 638 11 651 23 q 606 0 625 0 l 365 0 q 333 11 346 0 q 320 45 320 23 l 320 73 q 318 98 320 87 q 309 132 316 108 l 106 813 q 89 849 99 838 q 60 868 78 860 l 35 878 q 14 898 20 885 q 7 926 7 910 q 21 960 7 947 q 65 972 35 972 l 453 972 q 498 960 483 972 q 512 926 512 947 q 481 882 512 893 l 458 874 q 437 850 441 869 q 442 800 433 831 l 630 157 l 526 85 l 738 756 m 1231 925 q 1246 960 1231 947 q 1290 972 1260 972 l 1495 972 q 1540 960 1526 972 q 1554 925 1554 947 q 1547 899 1554 909 q 1519 879 1539 889 l 1499 869 q 1456 833 1473 856 q 1426 764 1438 810 l 1262 155 q 1251 109 1253 124 q 1248 73 1248 93 l 1248 45 q 1235 11 1248 23 q 1203 0 1222 0 l 956 0 q 925 11 938 0 q 912 45 912 23 l 912 73 q 910 96 912 85 q 900 132 908 107 l 706 813 q 690 857 697 847 q 672 872 683 867 l 647 883 q 624 900 631 890 q 617 925 617 910 q 632 960 617 947 q 676 972 647 972 l 1050 972 q 1095 960 1081 972 q 1109 925 1109 947 q 1101 897 1109 908 q 1074 879 1092 886 l 1055 872 q 1034 851 1038 867 q 1040 799 1030 836 l 1219 155 l 1124 85 l 1315 778 q 1317 836 1324 813 q 1276 874 1309 860 l 1260 882 q 1238 899 1245 889 q 1231 925 1231 910 z "},"X":{"ha":1047,"x_min":19,"x_max":1038,"o":"m 923 164 q 948 131 938 142 q 970 112 958 119 q 999 99 982 106 q 1028 78 1017 90 q 1038 47 1038 65 q 1024 13 1038 26 q 978 0 1009 0 l 544 0 q 499 13 514 0 q 485 47 485 26 q 494 80 485 67 q 525 101 504 92 q 545 119 540 107 q 548 148 551 131 q 530 186 544 165 l 117 819 q 100 844 108 834 q 82 860 92 853 q 58 874 72 867 q 29 895 37 884 q 21 925 21 907 q 35 960 21 947 q 81 972 50 972 l 493 972 q 537 959 524 972 q 550 925 550 947 q 544 894 550 906 q 522 877 538 883 l 503 871 q 486 853 487 865 q 501 814 485 840 l 923 164 m 622 474 l 508 504 l 721 786 q 742 837 744 817 q 717 868 740 858 l 703 875 q 680 894 689 882 q 671 925 671 907 q 684 960 671 947 q 727 972 698 972 l 935 972 q 995 926 995 972 q 982 895 995 908 q 944 869 969 882 q 898 830 919 856 q 837 753 877 805 l 622 474 m 418 510 l 532 472 l 301 180 q 279 127 276 147 q 302 98 283 108 l 312 93 q 335 75 328 85 q 343 47 343 65 q 329 13 343 26 q 287 0 315 0 l 78 0 q 33 13 48 0 q 19 47 19 26 q 28 75 19 63 q 60 99 37 86 q 111 133 90 115 q 152 173 133 151 q 192 222 171 195 l 418 510 z "},"Y":{"ha":988,"x_min":13,"x_max":980,"o":"m 643 299 l 385 264 l 111 812 q 88 851 97 840 q 62 869 78 862 l 43 877 q 20 897 28 884 q 13 925 13 910 q 27 960 13 947 q 72 972 42 972 l 466 972 q 511 960 497 972 q 526 925 526 947 q 490 874 526 886 l 472 868 q 447 847 450 860 q 456 802 443 833 l 639 379 l 533 329 l 740 772 q 747 830 754 804 q 707 869 740 856 l 691 877 q 670 895 678 883 q 662 925 662 907 q 676 960 662 947 q 722 972 691 972 l 921 972 q 966 960 951 972 q 980 925 980 947 q 973 898 980 908 q 951 878 966 887 l 940 872 q 915 854 927 865 q 890 821 903 842 q 858 760 876 799 l 643 299 m 347 360 l 669 360 l 669 154 q 678 126 669 137 q 704 108 687 115 l 731 99 q 767 47 767 85 q 752 13 767 26 q 707 0 738 0 l 308 0 q 263 13 278 0 q 249 47 249 26 q 285 99 249 85 l 311 108 q 338 126 329 115 q 347 154 347 137 l 347 360 z "},"Z":{"ha":919,"x_min":10,"x_max":890,"o":"m 852 862 l 348 35 l 184 99 l 554 99 q 614 106 586 99 q 668 131 642 113 q 715 181 693 149 q 758 263 738 213 l 778 313 q 807 344 788 337 q 847 347 825 352 q 881 325 872 342 q 885 282 890 308 l 833 50 q 807 -4 825 13 q 756 -22 790 -22 q 719 -16 738 -22 q 679 -6 701 -11 q 624 0 656 0 l 62 0 q 23 13 36 0 q 10 47 10 25 q 16 75 10 59 q 35 111 22 91 l 542 944 l 575 873 l 352 873 q 279 861 310 873 q 224 820 249 849 q 176 738 200 791 l 158 701 q 127 671 145 678 q 90 667 109 665 q 55 686 67 671 q 49 730 44 702 l 82 922 q 108 977 90 960 q 160 994 126 994 q 196 989 178 994 q 237 978 214 983 q 291 972 260 972 l 825 972 q 864 961 851 972 q 878 927 878 949 q 871 899 878 915 q 852 862 865 883 z "},"a":{"ha":835,"x_min":38,"x_max":835,"o":"m 463 95 l 463 111 l 440 112 l 440 560 q 426 603 440 587 q 388 619 412 619 q 356 610 369 619 q 342 587 342 601 l 342 511 q 302 421 342 453 q 188 389 263 389 q 94 416 125 389 q 63 490 63 442 q 105 582 63 536 q 230 658 147 628 q 441 689 314 689 q 660 635 588 689 q 731 488 731 581 l 731 156 q 738 134 731 143 q 758 126 744 126 q 777 132 770 126 q 791 144 785 138 q 801 153 796 149 q 813 156 806 156 q 830 148 825 156 q 835 126 835 139 q 813 61 835 95 q 747 4 791 28 q 638 -19 703 -19 q 511 13 560 -19 q 463 95 463 46 m 38 148 q 124 298 38 243 q 366 353 210 353 q 438 348 407 353 q 488 332 468 342 l 464 272 q 436 283 449 280 q 408 287 424 287 q 355 264 374 287 q 335 199 335 242 q 354 132 335 155 q 406 108 374 108 q 443 118 426 108 q 470 140 461 127 l 487 84 q 390 8 453 35 q 254 -19 326 -19 q 98 28 157 -19 q 38 148 38 76 z "},"b":{"ha":903,"x_min":17,"x_max":869,"o":"m 378 986 l 378 51 l 263 13 q 180 -12 203 -7 q 136 -18 156 -18 q 98 -5 113 -18 q 83 33 83 8 l 83 831 q 77 862 83 853 q 60 875 72 872 l 44 880 q 23 894 30 885 q 17 917 17 903 q 26 943 17 933 q 60 963 35 953 l 214 1022 q 273 1043 251 1037 q 311 1049 294 1049 q 361 1031 344 1049 q 378 986 378 1013 m 326 435 l 276 482 q 410 635 336 579 q 581 690 485 690 q 728 648 663 690 q 832 531 794 606 q 869 358 869 456 q 823 160 869 245 q 696 28 776 75 q 514 -19 615 -19 q 367 16 430 -19 q 258 125 304 52 l 334 176 q 394 111 366 131 q 456 92 423 92 q 514 116 489 92 q 552 192 538 140 q 565 328 565 244 q 551 454 565 406 q 513 523 537 501 q 456 545 488 545 q 386 519 418 545 q 326 435 354 493 z "},"c":{"ha":774,"x_min":35,"x_max":735,"o":"m 731 476 q 691 386 731 423 q 585 349 651 349 q 488 384 520 349 q 456 472 456 418 l 456 494 q 437 565 456 539 q 388 591 418 591 q 342 573 363 591 q 308 518 321 555 q 294 424 294 481 q 322 289 294 343 q 397 207 349 235 q 506 180 445 180 q 586 191 551 180 q 658 233 622 201 q 688 257 678 251 q 708 263 699 263 q 729 249 722 263 q 735 215 735 235 q 694 100 735 153 q 579 13 653 46 q 408 -19 506 -19 q 218 23 302 -19 q 84 140 133 65 q 35 316 35 215 q 82 508 35 424 q 217 642 130 593 q 423 690 304 690 q 587 661 518 690 q 694 584 656 633 q 731 476 731 535 z "},"d":{"ha":917,"x_min":34,"x_max":884,"o":"m 536 123 l 526 124 l 526 831 q 520 862 526 853 q 502 875 514 872 l 487 880 q 466 894 472 885 q 459 917 459 903 q 468 943 459 933 q 502 963 477 953 l 656 1022 q 714 1042 692 1036 q 756 1049 735 1049 q 804 1031 788 1049 q 820 986 820 1013 l 820 146 q 824 107 820 118 q 839 90 828 95 l 854 83 q 877 66 870 76 q 884 42 884 56 q 872 11 884 22 q 831 0 859 0 l 654 0 q 572 34 608 0 q 536 115 536 68 l 536 123 m 34 313 q 81 511 34 426 q 208 643 127 596 q 390 690 288 690 q 537 655 474 690 q 645 546 599 619 l 569 494 q 509 559 538 540 q 447 578 481 578 q 390 555 415 578 q 352 480 365 531 q 338 342 338 428 q 352 217 338 265 q 391 148 367 169 q 447 126 416 126 q 518 152 486 126 q 578 236 549 178 l 627 189 q 493 36 568 92 q 323 -19 419 -19 q 175 23 240 -19 q 72 140 110 65 q 34 313 34 215 z "},"e":{"ha":778,"x_min":34,"x_max":744,"o":"m 744 422 q 717 347 744 374 q 642 320 691 320 l 230 320 l 230 392 l 415 392 q 453 428 453 392 q 433 553 453 516 q 380 591 413 591 q 336 573 356 591 q 305 518 317 555 q 294 424 294 481 q 351 239 294 297 q 506 180 408 180 q 590 190 552 180 q 663 233 627 201 q 694 257 683 251 q 714 263 704 263 q 734 249 728 263 q 741 215 741 235 q 699 100 741 153 q 582 13 657 46 q 408 -19 508 -19 q 217 23 302 -19 q 83 140 133 65 q 34 316 34 215 q 79 513 34 429 q 211 644 124 597 q 419 690 297 690 q 599 656 527 690 q 708 560 672 621 q 744 422 744 500 z "},"f":{"ha":635,"x_min":40,"x_max":624,"o":"m 440 147 q 448 108 440 122 q 474 93 455 95 l 545 84 q 575 70 566 82 q 583 42 583 58 q 533 0 583 0 l 101 0 q 64 11 78 0 q 51 40 51 22 q 60 68 51 58 q 89 85 69 79 l 107 91 q 138 110 129 98 q 146 145 146 123 l 146 492 q 139 515 146 506 q 112 534 132 525 l 86 546 q 50 570 60 558 q 40 596 40 581 q 52 623 40 613 q 90 634 64 634 l 207 634 l 147 612 l 147 633 q 135 661 147 647 q 106 694 122 676 q 76 740 89 713 q 64 805 64 767 q 140 957 64 899 q 353 1015 215 1015 q 502 989 442 1015 q 593 918 563 962 q 624 822 624 874 q 592 735 624 765 q 508 706 559 706 q 415 739 449 706 q 380 830 380 773 l 380 887 q 363 929 380 915 q 320 942 346 942 q 275 925 290 942 q 260 874 260 907 q 276 812 260 840 q 315 761 292 784 q 361 717 338 738 q 400 676 385 697 q 416 631 416 655 l 416 593 l 385 634 l 549 634 q 583 625 570 634 q 596 598 596 615 q 570 553 596 572 q 485 535 544 535 l 440 535 l 440 147 z "},"g":{"ha":858,"x_min":30,"x_max":901,"o":"m 541 103 q 404 120 446 113 q 352 133 363 127 q 342 146 342 140 q 348 157 342 152 q 365 167 353 163 l 358 181 q 209 158 263 178 q 133 105 156 138 q 110 34 110 73 q 132 -32 110 -5 q 210 -76 153 -58 q 374 -107 267 -94 q 510 -127 460 -117 q 580 -149 559 -136 q 600 -183 600 -162 q 586 -219 600 -204 q 539 -241 573 -233 q 442 -248 505 -248 q 291 -216 333 -248 q 249 -130 249 -185 q 253 -103 249 -116 q 263 -84 257 -90 l 258 -62 q 78 -113 126 -77 q 30 -197 30 -149 q 61 -273 30 -240 q 171 -323 92 -305 q 390 -340 249 -340 q 738 -272 619 -340 q 858 -96 858 -203 q 826 5 858 -35 q 725 68 794 45 q 541 103 656 92 m 525 617 l 588 613 q 626 689 610 669 q 669 709 642 709 q 708 697 694 709 q 733 669 722 685 q 759 642 744 653 q 805 630 775 630 q 874 662 848 630 q 901 747 901 694 q 867 835 901 805 q 779 866 833 866 q 650 820 710 866 q 550 678 589 774 l 525 617 m 797 438 q 756 565 797 508 q 635 653 715 621 q 439 686 555 686 q 230 651 317 686 q 96 554 142 617 q 49 409 49 492 q 91 282 49 339 q 212 193 132 226 q 408 160 292 160 q 617 195 530 160 q 751 292 704 230 q 797 438 797 355 m 388 605 q 446 572 422 612 q 488 439 470 531 q 499 300 506 347 q 458 247 492 253 q 418 258 436 242 q 385 313 399 274 q 358 413 370 351 q 345 515 346 474 q 355 578 344 556 q 388 605 365 601 z "},"h":{"ha":954,"x_min":38,"x_max":945,"o":"m 399 986 l 399 146 q 403 107 399 118 q 417 90 407 96 l 431 83 q 454 44 454 69 q 401 0 454 0 l 93 0 q 53 11 65 0 q 40 42 40 22 q 47 66 40 56 q 70 83 54 76 l 85 90 q 100 107 96 95 q 104 146 104 118 l 104 831 q 98 862 104 853 q 81 875 92 872 l 65 880 q 44 894 51 885 q 38 917 38 903 q 47 943 38 933 q 81 963 56 953 l 235 1022 q 292 1042 270 1036 q 335 1049 314 1049 q 382 1031 366 1049 q 399 986 399 1013 m 374 458 l 332 503 l 353 522 q 520 652 451 613 q 649 690 590 690 q 790 628 739 690 q 850 468 841 567 l 881 146 q 887 107 884 118 q 900 90 890 95 l 915 83 q 938 66 931 76 q 945 42 945 56 q 933 11 945 22 q 892 0 920 0 l 581 0 q 528 44 528 0 q 551 83 528 69 l 565 90 q 581 107 575 96 q 583 146 586 118 l 557 426 q 536 493 553 471 q 483 515 519 515 q 439 506 462 515 q 398 480 417 497 l 374 458 z "},"i":{"ha":489,"x_min":38,"x_max":463,"o":"m 399 628 l 399 146 q 403 107 399 118 q 417 90 407 95 l 433 83 q 456 66 449 76 q 463 42 463 56 q 450 11 463 22 q 410 0 438 0 l 93 0 q 53 11 65 0 q 40 42 40 22 q 47 66 40 56 q 70 83 54 76 l 85 90 q 100 107 96 95 q 104 146 104 118 l 104 472 q 98 504 104 494 q 81 517 92 513 l 65 522 q 44 535 51 526 q 38 558 38 544 q 47 585 38 575 q 81 604 56 594 l 235 664 q 294 684 272 678 q 332 690 315 690 q 382 673 365 690 q 399 628 399 655 m 236 751 q 113 788 158 751 q 68 886 68 824 q 113 983 68 948 q 236 1019 158 1019 q 359 983 314 1019 q 404 886 404 948 q 359 788 404 824 q 236 751 314 751 z "},"j":{"ha":489,"x_min":-67,"x_max":483,"o":"m 399 190 q 411 113 399 150 q 441 40 424 76 q 470 -33 457 3 q 483 -108 483 -69 q 409 -265 483 -207 q 208 -324 335 -324 q 55 -298 116 -324 q -37 -231 -6 -273 q -67 -141 -67 -190 q -32 -45 -67 -77 q 62 -14 3 -14 q 152 -51 119 -14 q 186 -147 186 -87 l 186 -199 q 200 -238 186 -226 q 239 -251 215 -251 q 281 -235 266 -251 q 295 -189 295 -220 q 276 -123 295 -155 q 228 -59 256 -91 q 171 5 199 -27 q 124 69 143 36 q 104 137 104 102 l 104 472 q 98 504 104 494 q 81 517 92 513 l 65 522 q 44 535 51 526 q 38 558 38 544 q 47 585 38 575 q 81 604 56 594 l 235 664 q 294 684 273 678 q 333 690 316 690 q 382 673 366 690 q 399 628 399 655 l 399 190 m 236 751 q 113 788 158 751 q 68 886 68 824 q 113 983 68 948 q 236 1019 158 1019 q 359 983 314 1019 q 404 886 404 948 q 359 788 404 824 q 236 751 314 751 z "},"k":{"ha":919,"x_min":38,"x_max":931,"o":"m 93 0 q 53 11 65 0 q 40 42 40 22 q 47 66 40 56 q 70 83 54 76 l 85 90 q 100 107 96 95 q 104 146 104 118 l 104 831 q 98 862 104 853 q 81 875 92 872 l 65 880 q 44 894 51 885 q 38 917 38 903 q 47 943 38 933 q 81 963 56 953 l 235 1022 q 292 1042 270 1036 q 335 1049 314 1049 q 382 1031 366 1049 q 399 986 399 1013 l 399 146 q 403 107 399 118 q 417 90 407 96 l 431 83 q 454 44 454 69 q 401 0 454 0 l 93 0 m 313 303 l 574 513 q 596 551 598 531 q 568 583 594 572 l 551 590 q 532 605 537 597 q 526 628 526 614 q 540 658 526 647 q 576 669 553 669 l 847 669 q 884 659 871 669 q 898 630 898 648 q 887 600 898 612 q 840 578 876 588 q 771 549 803 567 q 692 494 738 531 l 349 228 l 313 303 m 603 506 l 854 131 q 875 106 865 115 q 897 88 884 97 q 922 64 913 76 q 931 38 931 52 q 918 10 931 21 q 881 0 904 0 l 555 0 q 523 11 535 0 q 510 41 510 22 q 515 61 510 53 q 531 76 520 69 l 544 83 q 557 101 556 90 q 542 136 558 113 l 413 333 l 603 506 z "},"l":{"ha":489,"x_min":38,"x_max":463,"o":"m 399 986 l 399 146 q 403 107 399 118 q 417 90 407 95 l 433 83 q 456 66 449 76 q 463 42 463 56 q 450 11 463 22 q 410 0 438 0 l 93 0 q 53 11 65 0 q 40 42 40 22 q 47 66 40 56 q 70 83 54 76 l 85 90 q 100 107 96 95 q 104 146 104 118 l 104 831 q 98 862 104 853 q 81 875 92 872 l 65 880 q 44 894 51 885 q 38 917 38 903 q 47 943 38 933 q 81 963 56 953 l 235 1022 q 294 1043 272 1037 q 332 1049 315 1049 q 382 1031 365 1049 q 399 986 399 1013 z "},"m":{"ha":1403,"x_min":38,"x_max":1395,"o":"m 399 628 l 399 146 q 403 107 399 118 q 417 90 407 96 l 431 83 q 454 44 454 69 q 401 0 454 0 l 93 0 q 53 11 65 0 q 40 42 40 22 q 47 66 40 56 q 70 83 54 76 l 85 90 q 100 107 96 95 q 104 146 104 118 l 104 472 q 98 504 104 494 q 81 517 92 513 l 65 522 q 44 535 51 526 q 38 558 38 544 q 47 585 38 575 q 81 604 56 594 l 235 664 q 292 684 270 678 q 335 690 314 690 q 382 673 366 690 q 399 628 399 655 m 374 458 l 332 503 l 353 522 q 521 653 451 616 q 652 690 592 690 q 800 629 745 690 q 856 468 856 567 l 856 146 q 860 107 856 118 q 874 90 864 96 l 888 83 q 911 44 911 69 q 858 0 911 0 l 559 0 q 506 44 506 0 q 528 83 506 69 l 542 90 q 557 107 553 96 q 561 146 561 118 l 561 426 q 542 493 561 471 q 487 515 524 515 q 441 506 464 515 q 398 480 417 497 l 374 458 m 831 458 l 789 503 l 810 522 q 974 651 906 613 q 1099 690 1042 690 q 1240 628 1189 690 q 1300 468 1291 567 l 1331 146 q 1337 107 1334 118 q 1350 90 1340 95 l 1365 83 q 1388 66 1381 76 q 1395 42 1395 56 q 1383 11 1395 22 q 1342 0 1370 0 l 1031 0 q 978 44 978 0 q 1001 83 978 69 l 1015 90 q 1031 107 1025 96 q 1033 146 1036 118 l 1007 426 q 986 493 1003 471 q 933 515 969 515 q 893 506 914 515 q 855 480 873 496 l 831 458 z "},"n":{"ha":953,"x_min":38,"x_max":945,"o":"m 399 628 l 399 146 q 403 107 399 118 q 417 90 407 96 l 431 83 q 454 44 454 69 q 401 0 454 0 l 93 0 q 53 11 65 0 q 40 42 40 22 q 47 66 40 56 q 70 83 54 76 l 85 90 q 100 107 96 95 q 104 146 104 118 l 104 472 q 98 504 104 494 q 81 517 92 513 l 65 522 q 44 535 51 526 q 38 558 38 544 q 47 585 38 575 q 81 604 56 594 l 235 664 q 292 684 270 678 q 335 690 314 690 q 382 673 366 690 q 399 628 399 655 m 374 458 l 332 503 l 353 522 q 520 652 451 613 q 649 690 590 690 q 790 628 739 690 q 850 468 841 567 l 881 146 q 887 107 884 118 q 900 90 890 95 l 915 83 q 938 66 931 76 q 945 42 945 56 q 933 11 945 22 q 892 0 920 0 l 581 0 q 528 44 528 0 q 551 83 528 69 l 565 90 q 581 107 575 96 q 583 146 586 118 l 557 426 q 536 493 553 471 q 483 515 519 515 q 439 506 462 515 q 398 480 417 497 l 374 458 z "},"o":{"ha":866,"x_min":35,"x_max":831,"o":"m 438 690 q 644 645 556 690 q 782 520 733 601 q 831 333 831 440 q 779 154 831 234 q 637 27 728 74 q 427 -19 547 -19 q 221 26 309 -19 q 84 152 133 72 q 35 338 35 233 q 86 518 35 439 q 228 644 138 598 q 438 690 319 690 m 489 81 q 529 118 515 88 q 542 207 543 149 q 521 355 540 265 q 480 495 503 441 q 431 573 458 549 q 376 590 405 597 q 336 553 350 583 q 324 464 322 522 q 344 316 326 406 q 385 176 363 231 q 434 98 408 122 q 489 81 460 75 z "},"p":{"ha":924,"x_min":38,"x_max":890,"o":"m 385 628 l 385 565 l 399 539 l 399 -178 q 403 -217 399 -206 q 417 -233 407 -228 l 433 -240 q 456 -258 449 -247 q 463 -282 463 -268 q 450 -312 463 -301 q 410 -324 438 -324 l 93 -324 q 53 -312 65 -324 q 40 -282 40 -301 q 47 -258 40 -268 q 70 -240 54 -247 l 85 -233 q 100 -217 96 -228 q 104 -178 104 -206 l 104 472 q 98 504 104 494 q 81 517 92 513 l 65 522 q 44 535 51 526 q 38 558 38 544 q 47 584 38 575 q 81 603 56 592 l 221 664 q 277 684 255 678 q 317 690 299 690 q 368 673 351 690 q 385 628 385 655 m 347 435 l 297 482 q 431 635 357 579 q 601 690 506 690 q 749 648 684 690 q 852 531 815 606 q 890 358 890 456 q 844 160 890 245 q 717 28 797 75 q 535 -19 636 -19 q 388 16 451 -19 q 279 125 325 52 l 355 176 q 415 111 387 131 q 477 92 444 92 q 534 116 510 92 q 573 192 559 140 q 586 328 586 244 q 572 454 586 406 q 533 523 558 501 q 477 545 509 545 q 407 519 439 545 q 347 435 375 493 z "},"q":{"ha":904,"x_min":35,"x_max":885,"o":"m 515 -324 q 475 -312 488 -324 q 463 -282 463 -301 q 469 -258 463 -268 q 492 -240 476 -247 l 508 -233 q 522 -217 518 -228 q 526 -178 526 -206 l 526 619 l 642 658 q 721 683 695 676 q 764 689 747 689 q 806 676 791 689 q 821 638 821 663 l 821 -178 q 825 -217 821 -206 q 840 -233 829 -228 l 855 -240 q 878 -258 871 -247 q 885 -282 885 -268 q 872 -312 885 -301 q 832 -324 860 -324 l 515 -324 m 628 189 q 494 36 569 92 q 324 -19 419 -19 q 176 23 241 -19 q 73 140 110 65 q 35 313 35 215 q 81 511 35 426 q 208 643 128 596 q 390 690 289 690 q 538 655 475 690 q 646 546 600 619 l 570 494 q 510 559 538 540 q 448 578 481 578 q 391 555 415 578 q 352 480 366 531 q 339 342 339 428 q 353 217 339 265 q 392 148 367 169 q 448 126 417 126 q 518 152 487 126 q 578 236 550 178 l 628 189 z "},"r":{"ha":743,"x_min":38,"x_max":726,"o":"m 372 379 q 399 555 372 485 q 473 657 427 624 q 574 690 519 690 q 687 646 648 690 q 726 513 726 602 q 690 379 726 422 q 595 336 653 336 q 507 366 536 336 q 477 450 477 397 l 477 479 q 469 507 476 497 q 447 516 462 516 q 422 504 433 516 q 405 464 411 492 q 399 390 399 437 l 372 379 m 379 628 l 399 483 l 399 146 q 406 111 399 122 q 438 97 413 101 l 490 86 q 521 72 511 82 q 531 42 531 61 q 517 11 531 22 q 477 0 503 0 l 93 0 q 53 11 65 0 q 40 42 40 22 q 47 66 40 56 q 70 83 54 76 l 85 90 q 100 107 96 95 q 104 146 104 118 l 104 469 q 98 501 104 492 q 81 514 92 510 l 65 519 q 44 533 51 524 q 38 556 38 542 q 47 582 38 572 q 81 601 56 592 l 230 660 q 301 685 279 679 q 334 690 322 690 q 364 676 353 690 q 379 628 374 662 z "},"s":{"ha":743,"x_min":42,"x_max":691,"o":"m 372 69 q 431 86 412 69 q 450 128 450 103 q 444 155 450 142 q 419 179 439 168 q 355 197 399 190 q 158 254 226 218 q 66 339 90 290 q 42 449 42 388 q 120 626 42 562 q 353 690 199 690 q 438 682 406 690 q 489 665 469 674 q 523 657 508 657 q 550 665 540 657 q 569 682 559 674 q 598 690 579 690 q 624 681 613 690 q 644 644 636 671 l 680 522 q 686 464 691 485 q 660 434 682 442 q 621 433 638 426 q 589 464 605 441 q 523 541 558 510 q 451 587 488 572 q 372 602 413 602 q 302 585 326 602 q 279 538 279 567 q 289 507 279 520 q 327 483 298 494 q 414 462 356 472 q 574 410 515 444 q 659 327 633 376 q 685 211 685 278 q 647 90 685 142 q 545 9 610 38 q 397 -19 480 -19 q 316 -11 345 -19 q 267 7 286 -2 q 231 15 249 15 q 199 7 213 15 q 174 -11 186 -2 q 144 -19 161 -19 q 119 -8 129 -19 q 103 30 108 3 l 82 149 q 81 202 76 184 q 106 228 87 219 q 144 227 128 237 q 178 194 161 218 q 276 97 226 125 q 372 69 325 69 z "},"t":{"ha":614,"x_min":14,"x_max":598,"o":"m 67 579 l 44 588 q 22 604 29 594 q 14 628 14 614 q 27 659 14 648 q 63 669 41 669 l 101 669 q 125 676 114 669 q 155 701 137 683 l 268 816 q 311 850 291 839 q 349 861 331 861 q 380 848 369 861 q 392 810 392 835 l 392 253 q 409 176 392 202 q 459 149 426 149 q 500 163 485 149 q 523 193 514 176 q 541 223 531 210 q 567 236 551 236 q 590 226 581 236 q 598 193 598 217 q 564 86 598 134 q 470 9 530 38 q 334 -19 410 -19 q 159 35 221 -19 q 97 200 97 90 l 97 534 q 90 563 97 554 q 67 579 83 572 m 290 571 l 290 669 l 544 669 q 578 660 565 669 q 591 633 591 651 q 565 589 591 607 q 481 571 540 571 l 290 571 z "},"u":{"ha":938,"x_min":24,"x_max":897,"o":"m 549 142 l 549 151 l 539 151 l 539 472 q 533 504 539 494 q 515 517 527 513 l 500 522 q 479 535 485 526 q 472 558 472 544 q 481 585 472 575 q 515 604 490 594 l 669 664 q 727 684 705 678 q 769 690 749 690 q 817 673 801 690 q 833 628 833 655 l 833 146 q 838 107 833 118 q 852 90 842 95 l 867 83 q 890 66 883 76 q 897 42 897 56 q 885 11 897 22 q 844 0 872 0 l 674 0 q 587 42 625 0 q 549 142 549 85 m 90 203 l 90 472 q 84 504 90 494 q 67 517 78 513 l 51 522 q 30 535 37 526 q 24 558 24 544 q 33 585 24 575 q 67 604 42 594 l 221 664 q 280 684 258 678 q 318 690 301 690 q 368 673 351 690 q 385 628 385 655 l 385 244 q 405 178 385 200 q 463 156 426 156 q 510 165 485 156 q 555 191 535 174 l 579 213 l 621 168 l 600 149 q 430 18 502 55 q 297 -19 358 -19 q 148 42 205 -19 q 90 203 90 104 z "},"v":{"ha":811,"x_min":-1,"x_max":815,"o":"m 463 0 l 350 0 q 299 15 321 0 q 265 62 278 30 l 71 534 q 54 568 60 559 q 40 580 48 576 l 26 587 q 6 603 12 594 q -1 628 -1 613 q 13 658 -1 647 q 50 669 26 669 l 424 669 q 474 628 474 669 q 466 603 474 613 q 440 588 458 594 l 421 583 q 387 556 393 574 q 398 492 381 537 l 534 136 l 467 97 l 610 492 q 620 556 626 538 q 587 583 614 575 l 568 588 q 542 603 551 594 q 534 628 534 613 q 548 658 534 647 q 584 669 561 669 l 764 669 q 801 658 788 669 q 815 628 815 647 q 808 605 815 615 q 784 588 802 594 l 771 583 q 747 557 758 578 q 717 488 735 536 l 549 56 q 513 11 536 22 q 463 0 489 0 z "},"w":{"ha":1236,"x_min":-1,"x_max":1240,"o":"m 437 0 l 331 0 q 280 14 301 0 q 245 62 258 28 l 71 534 q 55 568 62 560 q 40 580 48 576 l 26 587 q 6 603 12 594 q -1 628 -1 613 q 13 658 -1 647 q 50 669 26 669 l 401 669 q 438 658 424 669 q 451 628 451 647 q 443 603 451 613 q 417 588 435 594 l 399 583 q 381 562 383 578 q 394 499 378 546 l 513 150 l 441 95 l 603 529 l 688 476 l 523 56 q 486 11 510 22 q 437 0 463 0 m 910 0 l 809 0 q 757 14 780 0 q 723 62 735 28 l 558 534 q 542 568 549 560 q 527 580 535 576 l 513 587 q 492 603 499 594 q 486 628 486 613 q 537 669 486 669 l 880 669 q 930 628 930 669 q 922 602 930 613 q 901 590 915 592 l 870 584 q 853 563 855 581 q 866 499 851 544 l 978 150 l 914 95 l 1034 480 q 1050 557 1052 535 q 1031 583 1049 578 l 1012 588 q 986 603 994 594 q 978 628 978 613 q 991 658 978 647 q 1028 669 1005 669 l 1189 669 q 1226 658 1213 669 q 1240 628 1240 647 q 1233 605 1240 615 q 1209 588 1227 594 l 1196 583 q 1173 557 1183 578 q 1145 488 1162 536 l 997 56 q 961 11 985 23 q 910 0 937 0 z "},"x":{"ha":834,"x_min":15,"x_max":823,"o":"m 303 371 l 380 333 l 263 178 q 243 123 240 147 q 269 88 247 99 l 282 82 q 303 66 296 75 q 310 43 310 57 q 296 12 310 24 q 258 1 282 1 l 66 1 q 29 12 42 1 q 15 43 15 24 q 23 67 15 57 q 50 88 31 77 q 93 115 74 99 q 133 155 112 131 q 185 217 155 180 l 303 371 m 449 535 l 559 380 l 571 366 l 735 147 q 769 106 756 119 q 794 85 782 92 q 816 66 809 76 q 823 42 823 56 q 809 11 823 23 q 771 0 795 0 l 406 0 q 367 11 381 0 q 353 43 353 23 q 359 66 353 57 q 377 79 365 74 l 391 85 q 406 102 406 90 q 391 133 406 113 l 281 290 l 269 306 l 115 528 q 84 563 99 551 q 52 581 68 574 q 27 599 34 589 q 21 626 21 610 q 35 658 21 647 q 73 669 49 669 l 428 669 q 466 658 452 669 q 480 627 480 647 q 475 605 480 614 q 460 589 470 596 l 447 580 q 436 563 436 572 q 449 535 437 553 m 527 299 l 450 337 l 567 492 q 587 548 591 524 q 561 582 583 572 l 548 588 q 527 605 534 595 q 520 627 520 614 q 534 658 520 647 q 572 669 548 669 l 764 669 q 801 658 788 669 q 815 627 815 647 q 807 603 815 613 q 780 582 799 593 q 718 538 745 566 q 645 453 690 509 l 527 299 z "},"y":{"ha":843,"x_min":-1,"x_max":847,"o":"m 560 136 l 399 -124 l 80 533 q 56 568 68 558 q 26 587 44 578 q 6 603 12 594 q -1 628 -1 613 q 13 658 -1 647 q 50 669 26 669 l 424 669 q 460 658 447 669 q 474 628 474 647 q 466 603 474 613 q 440 588 458 594 l 421 583 q 388 556 393 574 q 403 492 383 537 l 560 136 m 403 -60 l 422 -15 l 460 55 l 629 478 q 642 545 647 522 q 609 578 638 569 l 586 585 q 560 602 569 591 q 551 628 551 613 q 565 658 551 647 q 601 669 578 669 l 797 669 q 834 658 820 669 q 847 628 847 647 q 840 605 847 615 q 816 586 833 595 q 772 553 790 573 q 736 488 754 533 l 524 -26 q 435 -210 475 -145 q 349 -299 395 -274 q 233 -324 302 -324 q 72 -270 132 -324 q 13 -134 13 -216 q 42 -42 13 -76 q 122 -8 72 -8 q 197 -36 172 -8 q 243 -110 223 -64 l 258 -144 q 280 -180 267 -167 q 307 -193 293 -193 q 332 -185 320 -193 q 360 -149 343 -177 q 403 -60 376 -120 z "},"z":{"ha":736,"x_min":31,"x_max":718,"o":"m 680 550 l 328 31 l 294 85 l 386 85 q 471 97 437 85 q 533 138 505 108 q 596 224 562 167 l 619 263 q 648 289 631 283 q 682 291 664 294 q 710 273 702 287 q 714 237 718 260 l 673 22 q 657 -10 669 0 q 626 -19 645 -19 q 584 -10 605 -19 q 520 0 563 0 l 106 0 q 48 11 65 0 q 31 44 31 22 q 38 77 31 59 q 63 119 45 94 l 414 638 l 463 584 l 343 584 q 273 576 302 584 q 220 544 244 567 q 171 478 197 522 l 139 424 q 114 401 129 407 q 79 400 99 394 q 52 421 61 406 q 49 459 44 436 l 85 648 q 101 680 90 669 q 133 690 113 690 q 174 680 153 690 q 238 669 195 669 l 636 669 q 694 658 677 669 q 711 625 711 647 q 704 593 711 610 q 680 550 697 575 z "},"&":{"ha":1407,"x_min":44,"x_max":1358,"o":"m 916 -35 q 1155 16 1056 -35 q 1306 163 1253 67 q 1358 393 1358 259 q 1303 667 1358 537 q 1142 897 1247 797 q 910 1041 1046 990 q 622 1092 774 1092 q 313 1041 438 1092 q 124 899 188 990 q 60 683 60 807 q 96 558 60 607 q 197 509 132 509 q 289 543 253 509 q 325 631 325 577 q 318 688 325 664 q 302 733 311 712 q 285 775 292 753 q 278 825 278 797 q 312 922 278 878 q 420 991 346 965 q 617 1016 494 1016 q 875 968 753 1016 q 1080 838 996 920 q 1222 628 1174 745 q 1269 394 1269 510 q 1239 225 1269 292 q 1159 126 1209 158 q 1047 94 1108 94 q 965 115 1003 94 q 884 187 927 136 q 783 327 842 238 q 701 463 732 401 q 655 580 669 524 q 640 694 640 636 q 656 785 640 750 q 697 820 672 820 q 726 786 716 820 q 737 699 737 752 q 724 592 737 638 q 688 522 710 547 q 638 497 666 497 l 649 453 q 819 480 747 453 q 930 558 890 508 q 969 675 969 608 q 936 786 969 738 q 845 861 903 834 q 710 889 787 889 q 542 848 611 889 q 435 736 472 806 q 398 579 398 666 q 415 436 398 506 q 466 298 432 367 q 549 155 499 229 q 644 48 592 90 q 764 -14 697 6 q 916 -35 831 -35 m 857 176 l 879 131 q 1096 259 1028 179 q 1164 430 1164 339 q 1136 533 1164 496 q 1056 571 1108 571 q 974 534 1006 571 q 942 447 942 497 q 947 406 942 424 q 958 369 953 389 q 964 319 964 349 q 952 270 964 295 q 917 220 940 244 q 857 176 893 197 m 446 428 l 446 484 q 230 451 320 484 q 92 359 140 418 q 44 221 44 299 q 121 42 44 103 q 340 -19 198 -19 q 466 -7 412 -19 q 558 30 520 6 q 619 84 596 53 l 581 142 q 537 108 560 119 q 484 98 515 98 q 393 145 427 98 q 358 267 358 193 q 369 351 358 315 q 400 408 380 388 q 446 428 419 428 z "},"?":{"ha":843,"x_min":31,"x_max":804,"o":"m 297 465 l 313 407 q 335 369 321 381 q 376 357 350 357 q 413 368 400 357 q 437 410 426 379 l 452 456 q 470 489 460 478 q 504 503 481 499 l 554 513 q 745 598 687 537 q 804 760 804 658 q 710 957 804 889 q 414 1025 615 1025 q 216 990 302 1025 q 80 895 129 954 q 31 765 31 836 q 71 657 31 695 q 176 619 110 619 q 293 664 252 619 q 333 792 333 709 l 333 857 q 353 918 333 897 q 403 939 373 939 q 460 903 442 939 q 477 801 477 867 q 463 656 477 707 q 406 586 449 604 l 356 565 q 301 524 315 548 q 297 465 288 500 m 370 -21 q 287 2 324 -21 q 227 65 249 26 q 206 149 206 103 q 227 233 206 195 q 287 294 249 271 q 370 317 324 317 q 455 294 417 317 q 514 233 492 271 q 536 149 536 195 q 514 65 536 103 q 455 2 492 26 q 370 -21 417 -21 z "},"¿":{"ha":801,"x_min":35,"x_max":808,"o":"m 542 333 l 526 390 q 504 428 519 417 q 463 440 490 440 q 426 429 440 440 q 403 388 413 418 l 388 342 q 369 308 380 319 q 335 294 359 298 l 285 285 q 94 200 153 260 q 35 38 35 139 q 130 -160 35 -92 q 426 -228 224 -228 q 624 -192 538 -228 q 759 -98 710 -157 q 808 33 808 -39 q 769 140 808 102 q 664 178 729 178 q 547 133 588 178 q 506 6 506 88 l 506 -60 q 486 -121 506 -100 q 436 -142 467 -142 q 380 -106 397 -142 q 363 -3 363 -70 q 376 142 363 90 q 433 211 390 193 l 483 232 q 539 273 525 249 q 542 333 552 297 m 469 818 q 553 795 515 818 q 612 733 590 772 q 634 649 634 694 q 612 564 634 602 q 553 503 590 526 q 469 481 515 481 q 385 503 422 481 q 325 564 347 526 q 303 649 303 602 q 325 733 303 694 q 385 795 347 772 q 469 818 422 818 z "},"!":{"ha":479,"x_min":63,"x_max":417,"o":"m 240 1046 q 374 1005 331 1046 q 417 895 417 964 q 413 851 417 875 q 401 797 409 826 l 300 424 q 277 373 291 390 q 240 357 264 357 q 202 373 215 357 q 179 424 189 390 l 78 797 q 66 851 70 826 q 63 895 63 875 q 106 1005 63 964 q 240 1046 149 1046 m 239 -21 q 156 2 193 -21 q 96 65 118 26 q 74 149 74 103 q 96 233 74 195 q 156 294 118 271 q 239 317 193 317 q 324 294 286 317 q 383 233 361 271 q 405 149 405 195 q 383 65 405 103 q 324 2 361 26 q 239 -21 286 -21 z "},"¡":{"ha":451,"x_min":53,"x_max":408,"o":"m 231 -249 q 97 -208 140 -249 q 53 -98 53 -167 q 57 -53 53 -78 q 69 0 61 -29 l 170 374 q 193 424 179 408 q 231 440 206 440 q 268 424 255 440 q 291 374 281 408 l 392 0 q 404 -53 400 -29 q 408 -98 408 -78 q 364 -208 408 -167 q 231 -249 321 -249 m 231 818 q 315 795 277 818 q 374 733 352 772 q 396 649 396 694 q 374 564 396 602 q 315 503 352 526 q 231 481 277 481 q 147 503 184 481 q 87 564 109 526 q 65 649 65 602 q 87 733 65 694 q 147 795 109 772 q 231 818 184 818 z "},".":{"ha":456,"x_min":63,"x_max":393,"o":"m 227 -21 q 144 2 181 -21 q 84 65 106 26 q 63 149 63 103 q 84 233 63 195 q 144 294 106 271 q 227 317 181 317 q 312 294 274 317 q 371 233 349 271 q 393 149 393 195 q 371 65 393 103 q 312 2 349 26 q 227 -21 274 -21 z "},",":{"ha":473,"x_min":55,"x_max":417,"o":"m 219 -15 q 109 25 145 -15 q 74 126 74 65 q 120 240 74 194 q 238 286 167 286 q 366 232 314 286 q 417 69 417 178 q 399 -59 417 -2 q 346 -160 381 -117 q 259 -233 311 -203 q 140 -278 208 -262 q 83 -280 103 -286 q 59 -257 63 -274 q 67 -224 55 -239 q 114 -199 78 -209 q 216 -156 178 -180 q 272 -103 255 -132 q 290 -40 290 -74 q 283 -22 290 -28 q 261 -15 277 -15 l 219 -15 z "},":":{"ha":456,"x_min":63,"x_max":393,"o":"m 227 -21 q 144 2 181 -21 q 84 65 106 26 q 63 149 63 103 q 84 233 63 195 q 144 294 106 271 q 227 317 181 317 q 312 294 274 317 q 371 233 349 271 q 393 149 393 195 q 371 65 393 103 q 312 2 349 26 q 227 -21 274 -21 m 227 374 q 144 397 181 374 q 84 459 106 420 q 63 543 63 498 q 84 627 63 590 q 144 688 106 665 q 227 711 181 711 q 312 688 274 711 q 371 627 349 665 q 393 543 393 590 q 371 459 393 498 q 312 397 349 420 q 227 374 274 374 z "},";":{"ha":473,"x_min":55,"x_max":417,"o":"m 236 373 q 153 396 190 373 q 93 458 115 419 q 72 542 72 497 q 93 627 72 589 q 153 688 115 665 q 236 710 190 710 q 321 688 283 710 q 380 627 358 665 q 402 542 402 589 q 380 458 402 497 q 321 396 358 419 q 236 373 283 373 m 219 -15 q 109 25 145 -15 q 74 126 74 65 q 120 240 74 194 q 238 286 167 286 q 366 232 314 286 q 417 69 417 178 q 399 -59 417 -2 q 346 -160 381 -117 q 259 -233 311 -203 q 140 -278 208 -262 q 83 -280 103 -286 q 59 -257 63 -274 q 67 -224 55 -239 q 114 -199 78 -209 q 216 -156 178 -180 q 272 -103 255 -132 q 290 -40 290 -74 q 283 -22 290 -28 q 261 -15 277 -15 l 219 -15 z "},"…":{"ha":1453,"x_min":90,"x_max":1363,"o":"m 255 -21 q 172 2 209 -21 q 112 65 134 26 q 90 149 90 103 q 112 233 90 195 q 172 294 134 271 q 255 317 209 317 q 340 294 302 317 q 399 233 377 271 q 421 149 421 195 q 399 65 421 103 q 340 2 377 26 q 255 -21 302 -21 m 727 -21 q 644 2 681 -21 q 584 65 606 26 q 563 149 563 103 q 584 233 563 195 q 644 294 606 271 q 727 317 681 317 q 812 294 774 317 q 871 233 849 271 q 893 149 893 195 q 871 65 893 103 q 812 2 849 26 q 727 -21 774 -21 m 1197 -21 q 1114 2 1151 -21 q 1055 65 1076 26 q 1033 149 1033 103 q 1055 233 1033 195 q 1114 294 1076 271 q 1197 317 1151 317 q 1282 294 1244 317 q 1341 233 1319 271 q 1363 149 1363 195 q 1341 65 1363 103 q 1282 2 1319 26 q 1197 -21 1244 -21 z "},"“":{"ha":803,"x_min":21,"x_max":765,"o":"m 210 822 q 325 787 286 822 q 365 693 365 753 q 316 586 365 627 q 201 544 268 544 q 71 596 122 544 q 21 744 21 647 q 51 897 21 828 q 137 1013 81 966 q 271 1081 193 1060 q 322 1083 303 1089 q 344 1059 340 1077 q 339 1028 349 1043 q 299 1002 329 1013 q 215 958 248 984 q 166 903 182 931 q 150 849 150 874 q 158 829 150 837 q 185 822 165 822 l 210 822 m 610 822 q 725 787 686 822 q 765 693 765 753 q 716 586 765 627 q 601 544 668 544 q 471 596 522 544 q 421 744 421 647 q 451 897 421 828 q 537 1013 481 966 q 671 1081 593 1060 q 722 1083 703 1089 q 744 1059 740 1077 q 739 1028 749 1043 q 699 1002 729 1013 q 615 958 648 984 q 566 903 582 931 q 550 849 550 874 q 558 829 550 837 q 585 822 565 822 l 610 822 z "},"”":{"ha":803,"x_min":38,"x_max":782,"o":"m 593 805 q 477 840 517 805 q 438 933 438 874 q 486 1041 438 999 q 602 1082 535 1082 q 732 1031 681 1082 q 782 883 782 980 q 752 729 782 798 q 666 613 722 660 q 532 546 610 566 q 482 544 499 538 q 458 567 464 550 q 464 598 453 583 q 504 624 474 613 q 588 669 555 642 q 637 724 621 695 q 653 777 653 753 q 645 797 653 790 q 618 805 638 805 l 593 805 m 193 805 q 77 840 117 805 q 38 933 38 874 q 86 1041 38 999 q 202 1082 135 1082 q 332 1031 281 1082 q 382 883 382 980 q 352 729 382 798 q 266 613 322 660 q 132 546 210 566 q 82 544 99 538 q 58 567 64 550 q 64 598 53 583 q 104 624 74 613 q 188 669 155 642 q 237 724 221 695 q 253 777 253 753 q 245 797 253 790 q 218 805 238 805 l 193 805 z "},"‘":{"ha":403,"x_min":21,"x_max":365,"o":"m 210 821 q 325 786 286 821 q 365 692 365 752 q 316 585 365 626 q 201 544 268 544 q 71 595 122 544 q 21 743 21 647 q 51 897 21 828 q 137 1013 81 965 q 271 1080 193 1060 q 322 1082 303 1088 q 344 1058 340 1076 q 339 1027 349 1042 q 299 1001 329 1013 q 215 957 248 983 q 166 902 182 931 q 150 849 150 874 q 158 828 150 836 q 185 821 165 821 l 210 821 z "},"’":{"ha":403,"x_min":38,"x_max":382,"o":"m 193 805 q 77 840 117 805 q 38 933 38 874 q 86 1041 38 999 q 202 1082 135 1082 q 332 1031 281 1082 q 382 883 382 980 q 352 729 382 798 q 266 613 322 660 q 132 546 210 566 q 82 544 99 538 q 58 567 64 550 q 64 598 53 583 q 104 624 74 613 q 188 669 155 642 q 237 724 221 695 q 253 777 253 753 q 245 797 253 790 q 218 805 238 805 l 193 805 z "},"ʼ":{"ha":403,"x_min":38,"x_max":382,"o":"m 193 805 q 77 840 117 805 q 38 933 38 874 q 86 1041 38 999 q 202 1082 135 1082 q 332 1031 281 1082 q 382 883 382 980 q 352 729 382 798 q 266 613 322 660 q 132 546 210 566 q 82 544 99 538 q 58 567 64 550 q 64 598 53 583 q 104 624 74 613 q 188 669 155 642 q 237 724 221 695 q 253 777 253 753 q 245 797 253 790 q 218 805 238 805 l 193 805 z "},"‚":{"ha":403,"x_min":38,"x_max":382,"o":"m 193 1 q 77 36 117 1 q 38 130 38 71 q 86 237 38 196 q 202 278 135 278 q 332 227 281 278 q 382 79 382 176 q 352 -74 382 -6 q 266 -190 322 -143 q 132 -258 210 -237 q 82 -260 99 -266 q 58 -236 64 -253 q 64 -205 53 -220 q 104 -179 74 -190 q 188 -135 155 -161 q 237 -80 221 -108 q 253 -26 253 -51 q 245 -6 253 -14 q 218 1 238 1 l 193 1 z "},"„":{"ha":803,"x_min":38,"x_max":782,"o":"m 593 -2 q 477 33 517 -2 q 438 126 438 67 q 486 234 438 192 q 602 275 535 275 q 732 224 681 275 q 782 76 782 173 q 752 -78 782 -9 q 666 -194 722 -147 q 532 -261 610 -241 q 482 -263 499 -269 q 458 -240 464 -257 q 464 -209 453 -224 q 504 -183 474 -194 q 588 -138 555 -165 q 637 -83 621 -112 q 653 -30 653 -54 q 645 -10 653 -17 q 618 -2 638 -2 l 593 -2 m 193 -2 q 77 33 117 -2 q 38 126 38 67 q 86 234 38 192 q 202 275 135 275 q 332 224 281 275 q 382 76 382 173 q 352 -78 382 -9 q 266 -194 322 -147 q 132 -261 210 -241 q 82 -263 99 -269 q 58 -240 64 -257 q 64 -209 53 -224 q 104 -183 74 -194 q 188 -138 155 -165 q 237 -83 221 -112 q 253 -30 253 -54 q 245 -10 253 -17 q 218 -2 238 -2 l 193 -2 z "},"«":{"ha":933,"x_min":56,"x_max":874,"o":"m 56 343 q 69 388 56 364 q 109 432 83 411 q 189 496 149 464 q 267 557 229 528 q 338 611 305 587 q 394 653 370 636 q 424 668 412 667 q 447 662 437 669 q 455 641 456 654 q 444 610 453 627 q 401 531 426 574 q 345 433 377 488 q 271 303 314 377 l 271 383 q 345 254 314 310 q 401 155 377 198 q 444 76 426 113 q 455 45 453 59 q 447 24 456 32 q 424 18 437 17 q 394 33 412 19 q 338 75 370 50 q 267 129 305 99 q 189 190 229 158 q 109 254 149 222 q 69 299 83 275 q 56 343 56 322 m 474 343 q 488 388 474 364 q 527 432 501 411 q 607 496 567 464 q 685 557 647 528 q 756 611 723 587 q 812 653 788 636 q 842 668 830 667 q 865 662 855 669 q 873 641 874 654 q 863 610 872 627 q 819 531 844 574 q 764 433 795 488 q 689 303 732 377 l 689 383 q 764 254 732 310 q 819 155 795 198 q 863 76 844 113 q 873 45 872 59 q 865 24 874 32 q 842 18 855 17 q 812 33 830 19 q 756 75 788 50 q 685 129 723 99 q 607 190 647 158 q 527 254 567 222 q 488 299 501 275 q 474 343 474 322 z "},"»":{"ha":933,"x_min":59,"x_max":878,"o":"m 878 343 q 864 299 878 322 q 824 254 850 275 q 744 190 785 222 q 666 129 704 158 q 596 75 628 99 q 540 33 563 50 q 509 18 522 19 q 487 24 497 17 q 478 45 477 32 q 489 76 480 59 q 532 155 508 112 q 588 253 556 198 q 663 383 619 309 l 663 303 q 588 432 619 376 q 532 531 556 488 q 489 610 508 574 q 478 641 480 627 q 487 662 477 654 q 509 668 497 669 q 540 653 522 667 q 596 611 563 636 q 666 557 628 587 q 744 496 704 528 q 824 432 785 464 q 864 388 850 411 q 878 343 878 364 m 460 343 q 446 299 460 322 q 406 254 432 275 q 326 190 367 222 q 248 129 286 158 q 178 75 210 99 q 122 33 145 50 q 91 18 103 19 q 69 24 78 17 q 60 45 59 32 q 71 76 62 59 q 114 155 90 112 q 170 253 138 198 q 244 383 201 309 l 244 303 q 170 432 201 376 q 114 531 138 488 q 71 610 90 574 q 60 641 62 627 q 69 662 59 654 q 91 668 78 669 q 122 653 103 667 q 178 611 145 636 q 248 557 210 587 q 326 496 286 528 q 406 432 367 464 q 446 388 432 411 q 460 343 460 364 z "},"‹":{"ha":515,"x_min":56,"x_max":456,"o":"m 56 343 q 69 388 56 364 q 109 432 83 411 q 189 496 149 464 q 267 557 229 528 q 338 611 305 587 q 394 653 370 636 q 424 668 412 667 q 447 662 437 669 q 455 641 456 654 q 444 610 453 627 q 401 531 426 574 q 345 433 377 488 q 271 303 314 377 l 271 383 q 345 254 314 310 q 401 155 377 198 q 444 76 426 113 q 455 45 453 59 q 447 24 456 32 q 424 18 437 17 q 394 33 412 19 q 338 75 370 50 q 267 129 305 99 q 189 190 229 158 q 109 254 149 222 q 69 299 83 275 q 56 343 56 322 z "},"›":{"ha":515,"x_min":59,"x_max":460,"o":"m 460 343 q 446 299 460 322 q 406 254 432 275 q 326 190 367 222 q 248 129 286 158 q 178 75 210 99 q 122 33 145 50 q 91 18 103 19 q 69 24 78 17 q 60 45 59 32 q 71 76 62 59 q 114 155 90 112 q 170 253 138 198 q 244 383 201 309 l 244 303 q 170 432 201 376 q 114 531 138 488 q 71 610 90 574 q 60 641 62 627 q 69 662 59 654 q 91 668 78 669 q 122 653 103 667 q 178 611 145 636 q 248 557 210 587 q 326 496 286 528 q 406 432 367 464 q 446 388 432 411 q 460 343 460 364 z "},"(":{"ha":558,"x_min":104,"x_max":544,"o":"m 104 423 q 152 695 104 573 q 279 901 199 817 q 456 1018 359 985 q 535 1018 519 1040 q 539 991 544 1007 q 511 947 533 976 q 427 806 465 888 q 367 628 389 725 q 344 423 344 531 q 367 218 344 315 q 427 40 389 121 q 511 -101 465 -42 q 539 -145 533 -130 q 535 -172 544 -160 q 456 -172 519 -194 q 279 -55 359 -139 q 152 151 199 28 q 104 423 104 273 z "},")":{"ha":558,"x_min":13,"x_max":453,"o":"m 453 423 q 406 151 453 273 q 278 -55 358 28 q 101 -172 199 -139 q 22 -172 39 -194 q 19 -145 13 -161 q 47 -101 24 -130 q 131 40 93 -42 q 191 218 169 121 q 213 423 213 315 q 191 628 213 531 q 131 806 169 725 q 47 947 93 888 q 19 991 24 976 q 22 1018 13 1006 q 101 1018 39 1040 q 278 901 199 985 q 406 695 358 817 q 453 423 453 573 z "},"[":{"ha":539,"x_min":104,"x_max":534,"o":"m 330 882 l 330 -33 q 345 -75 330 -62 q 395 -87 361 -87 l 478 -87 q 534 -133 534 -87 q 521 -165 534 -153 q 478 -178 508 -178 l 172 -178 q 119 -161 135 -178 q 104 -108 104 -144 l 104 957 q 119 1010 104 994 q 172 1027 135 1027 l 478 1027 q 521 1014 508 1027 q 534 982 534 1001 q 478 936 534 936 l 395 936 q 345 924 361 936 q 330 882 330 913 z "},"]":{"ha":553,"x_min":19,"x_max":449,"o":"m 223 -33 l 223 882 q 207 924 223 912 q 158 937 192 937 l 74 937 q 19 983 19 937 q 32 1015 19 1002 q 74 1027 45 1027 l 381 1027 q 433 1010 418 1027 q 449 957 449 993 l 449 -108 q 433 -161 449 -144 q 381 -178 418 -178 l 74 -178 q 32 -165 45 -178 q 19 -133 19 -152 q 74 -87 19 -87 l 158 -87 q 207 -75 192 -87 q 223 -33 223 -63 z "},"{":{"ha":596,"x_min":63,"x_max":578,"o":"m 303 425 q 330 402 303 402 q 454 373 408 402 q 500 293 500 344 q 482 227 500 260 q 441 162 465 194 q 400 98 418 130 q 383 34 383 66 q 411 -56 383 -24 q 493 -87 440 -87 l 523 -87 q 578 -133 578 -87 q 564 -165 578 -151 q 513 -178 549 -178 l 444 -178 q 275 -152 341 -178 q 176 -84 208 -127 q 144 14 144 -40 q 168 119 144 74 q 224 200 192 165 q 281 266 256 236 q 305 324 305 296 q 289 365 305 351 q 244 379 274 379 q 206 368 219 379 q 179 346 193 357 q 138 335 165 335 q 83 361 103 335 q 63 425 63 388 q 83 489 63 462 q 138 515 103 515 q 179 504 165 515 q 206 482 193 493 q 244 471 219 471 q 289 485 274 471 q 305 526 305 500 q 281 584 305 554 q 224 650 256 614 q 168 731 192 685 q 144 836 144 776 q 176 934 144 891 q 275 1002 208 977 q 444 1028 341 1028 l 513 1028 q 564 1015 549 1028 q 578 983 578 1001 q 523 938 578 938 l 493 938 q 411 906 440 938 q 383 816 383 874 q 400 752 383 784 q 441 688 418 720 q 482 623 465 656 q 500 557 500 590 q 454 477 500 506 q 330 448 408 448 q 303 425 303 448 z "},"}":{"ha":596,"x_min":17,"x_max":533,"o":"m 292 425 q 266 448 292 448 q 142 477 188 448 q 96 557 96 506 q 114 623 96 590 q 155 688 131 656 q 195 752 178 720 q 213 816 213 784 q 185 906 213 874 q 103 938 156 938 l 73 938 q 17 983 17 938 q 32 1015 17 1001 q 83 1028 47 1028 l 152 1028 q 321 1002 255 1028 q 420 934 388 977 q 452 836 452 890 q 428 731 452 776 q 372 650 403 685 q 315 584 340 614 q 291 526 291 554 q 307 485 291 499 q 351 471 322 471 q 390 482 376 471 q 417 504 403 493 q 458 515 431 515 q 513 489 492 515 q 533 425 533 462 q 513 361 533 388 q 458 335 492 335 q 417 346 431 335 q 390 368 403 357 q 351 379 376 379 q 307 365 322 379 q 291 324 291 350 q 315 266 291 296 q 372 200 340 236 q 428 119 403 165 q 452 14 452 74 q 420 -84 452 -41 q 321 -152 388 -127 q 152 -178 255 -178 l 83 -178 q 32 -165 47 -178 q 17 -133 17 -151 q 73 -87 17 -87 l 103 -87 q 185 -56 156 -87 q 213 34 213 -24 q 195 98 213 66 q 155 162 178 130 q 114 227 131 194 q 96 293 96 260 q 142 373 96 344 q 266 402 188 402 q 292 425 292 402 z "},"⟨":{"ha":607,"x_min":58,"x_max":583,"o":"m 342 427 l 569 -136 q 575 -192 583 -172 q 540 -212 567 -212 q 509 -200 524 -212 q 469 -158 493 -188 l 103 331 q 70 379 82 359 q 58 427 58 399 q 70 475 58 455 q 103 524 82 495 l 469 1012 q 509 1055 493 1042 q 540 1067 524 1067 q 575 1046 567 1067 q 569 990 583 1026 l 342 427 z "},"⟩":{"ha":607,"x_min":24,"x_max":549,"o":"m 265 427 l 38 990 q 32 1046 24 1026 q 67 1067 40 1067 q 98 1055 83 1067 q 138 1012 114 1042 l 503 524 q 537 475 525 495 q 549 427 549 455 q 537 379 549 399 q 503 331 525 359 l 138 -158 q 98 -200 114 -188 q 67 -212 83 -212 q 32 -192 40 -212 q 38 -136 24 -172 l 265 427 z "},"/":{"ha":711,"x_min":-3,"x_max":718,"o":"m 410 399 q 374 314 394 362 q 333 212 354 266 q 292 103 313 158 q 251 -5 271 48 q 213 -102 231 -57 q 179 -178 194 -147 q 134 -216 165 -209 q 65 -206 103 -224 q 11 -159 26 -187 q 12 -101 -3 -131 q 49 -25 27 -68 q 99 66 72 17 q 155 167 126 115 q 212 269 184 218 q 264 365 240 319 q 305 447 288 410 q 342 532 322 484 q 382 634 361 580 q 424 743 403 688 q 465 850 444 798 q 503 948 485 903 q 536 1024 522 992 q 581 1062 551 1055 q 651 1051 612 1069 q 704 1005 690 1033 q 703 947 718 977 q 666 872 689 915 q 616 780 644 828 q 560 679 589 731 q 503 577 531 628 q 452 481 476 526 q 410 399 428 435 z "},"\\":{"ha":711,"x_min":-7,"x_max":714,"o":"m 301 399 q 337 314 317 362 q 378 212 357 266 q 419 103 399 158 q 460 -5 440 48 q 499 -102 481 -57 q 532 -178 517 -147 q 577 -216 547 -209 q 647 -206 608 -224 q 700 -159 685 -187 q 699 -101 714 -131 q 662 -25 684 -68 q 612 66 640 17 q 556 167 585 115 q 499 269 527 218 q 448 365 472 319 q 406 447 424 410 q 369 532 389 484 q 329 634 350 580 q 288 743 308 688 q 247 850 267 798 q 208 948 226 903 q 175 1024 190 992 q 130 1062 160 1055 q 60 1051 99 1069 q 7 1005 22 1033 q 8 947 -7 977 q 45 872 22 915 q 95 780 67 828 q 151 679 122 731 q 208 577 180 628 q 259 481 235 526 q 301 399 283 435 z "},"|":{"ha":456,"x_min":139,"x_max":317,"o":"m 176 426 q 171 551 176 478 q 158 702 165 624 q 144 853 150 781 q 139 974 139 924 q 161 1042 139 1018 q 228 1067 183 1067 q 294 1042 272 1067 q 317 974 317 1018 q 313 880 317 935 q 303 764 309 826 q 292 641 298 703 q 283 523 287 578 q 279 426 279 467 q 285 301 279 374 q 298 149 290 228 q 311 -1 306 70 q 317 -123 317 -73 q 294 -191 317 -167 q 228 -215 272 -215 q 161 -191 183 -215 q 139 -123 139 -167 q 143 -29 139 -83 q 152 87 147 26 q 163 211 158 149 q 173 328 169 273 q 176 426 176 384 z "},"¦":{"ha":479,"x_min":139,"x_max":317,"o":"m 279 560 q 267 506 279 522 q 228 489 254 489 q 190 506 204 489 q 176 560 176 524 q 171 655 176 600 q 158 769 165 710 q 144 883 150 828 q 139 974 139 937 q 161 1042 139 1018 q 228 1067 183 1067 q 294 1042 272 1067 q 317 974 317 1018 q 311 883 317 937 q 298 769 306 828 q 285 655 290 710 q 279 560 279 600 m 176 290 q 189 344 176 328 q 228 361 201 361 q 265 344 251 361 q 279 290 279 326 q 285 195 279 250 q 298 81 290 140 q 311 -33 306 22 q 317 -124 317 -87 q 294 -192 317 -168 q 228 -217 272 -217 q 161 -192 183 -217 q 139 -124 139 -168 q 144 -33 139 -87 q 158 81 150 22 q 171 195 165 140 q 176 290 176 250 z "},"-":{"ha":558,"x_min":15,"x_max":543,"o":"m 475 477 q 517 405 543 477 l 495 345 q 467 299 483 311 q 424 287 451 287 l 83 287 q 42 359 15 287 l 63 419 q 91 465 75 453 q 134 477 108 477 l 475 477 z "},"­":{"ha":558,"x_min":15,"x_max":543,"o":"m 475 477 q 517 405 543 477 l 495 345 q 467 299 483 311 q 424 287 451 287 l 83 287 q 42 359 15 287 l 63 419 q 91 465 75 453 q 134 477 108 477 l 475 477 z "},"‐":{"ha":558,"x_min":15,"x_max":543,"o":"m 475 477 q 517 405 543 477 l 495 345 q 467 299 483 311 q 424 287 451 287 l 83 287 q 42 359 15 287 l 63 419 q 91 465 75 453 q 134 477 108 477 l 475 477 z "},"–":{"ha":797,"x_min":35,"x_max":761,"o":"m 35 381 q 48 425 35 409 q 86 442 60 442 l 710 442 q 749 425 737 442 q 761 381 761 409 q 749 335 761 352 q 710 318 737 318 l 86 318 q 48 335 60 318 q 35 381 35 352 z "},"—":{"ha":1243,"x_min":35,"x_max":1207,"o":"m 35 381 q 48 425 35 409 q 86 442 60 442 l 1156 442 q 1195 425 1183 442 q 1207 381 1207 409 q 1195 335 1207 351 q 1156 318 1183 318 l 86 318 q 48 335 60 318 q 35 381 35 351 z "},"_":{"ha":727,"x_min":1,"x_max":725,"o":"m 1 -194 q 14 -149 1 -165 q 52 -133 26 -133 l 675 -133 q 713 -149 701 -133 q 725 -194 725 -165 q 713 -239 725 -222 q 675 -256 701 -256 l 52 -256 q 14 -239 26 -256 q 1 -194 1 -222 z "},"·":{"ha":456,"x_min":63,"x_max":393,"o":"m 227 188 q 144 211 181 188 q 84 273 106 234 q 63 357 63 312 q 84 441 63 403 q 144 502 106 479 q 227 525 181 525 q 312 502 274 525 q 371 441 349 479 q 393 357 393 403 q 371 273 393 312 q 312 211 349 234 q 227 188 274 188 z "},"•":{"ha":683,"x_min":94,"x_max":590,"o":"m 341 103 q 216 138 272 103 q 127 232 159 173 q 94 358 94 290 q 127 484 94 427 q 216 575 159 541 q 341 610 272 610 q 468 575 411 610 q 557 484 524 541 q 590 358 590 427 q 557 232 590 290 q 468 138 524 173 q 341 103 411 103 z "},"∙":{"ha":456,"x_min":63,"x_max":393,"o":"m 227 188 q 144 211 181 188 q 84 273 106 234 q 63 357 63 312 q 84 441 63 403 q 144 502 106 479 q 227 525 181 525 q 312 502 274 525 q 371 441 349 479 q 393 357 393 403 q 371 273 393 312 q 312 211 349 234 q 227 188 274 188 z "},"@":{"ha":1379,"x_min":65,"x_max":1314,"o":"m 765 342 q 739 351 750 348 q 710 355 728 355 q 663 333 683 355 q 642 270 642 311 q 661 205 642 228 q 710 183 681 183 q 747 190 731 183 q 768 210 763 197 l 786 163 q 699 89 758 115 q 574 63 640 63 q 422 107 479 63 q 365 222 365 151 q 445 359 365 307 q 683 411 526 411 q 742 407 722 411 q 786 390 763 402 l 765 342 m 1056 174 q 1114 192 1086 174 q 1165 243 1142 210 q 1201 326 1188 277 q 1214 439 1214 376 q 1145 693 1214 587 q 961 857 1077 800 q 699 915 844 915 q 483 876 581 915 q 314 767 385 838 q 205 599 243 696 q 166 385 166 502 q 234 101 166 223 q 424 -89 303 -22 q 702 -157 544 -157 q 945 -117 830 -157 q 1172 24 1061 -77 q 1214 50 1196 45 q 1245 42 1232 54 q 1253 13 1257 32 q 1224 -33 1249 -6 q 1101 -132 1176 -85 q 925 -209 1026 -179 q 701 -238 825 -238 q 448 -195 565 -238 q 246 -71 332 -152 q 112 125 160 10 q 65 385 65 241 q 112 624 65 513 q 245 818 159 735 q 448 949 331 902 q 706 996 566 996 q 944 959 833 996 q 1138 850 1054 922 q 1267 675 1221 778 q 1314 440 1314 572 q 1275 244 1314 329 q 1164 111 1237 159 q 986 63 1090 63 q 874 77 922 64 q 798 115 826 90 q 766 172 769 139 l 743 177 l 743 594 q 732 638 743 620 q 697 656 720 656 q 664 644 677 656 q 651 612 651 633 l 651 565 q 609 477 651 509 q 509 446 567 446 q 425 469 462 446 q 389 546 389 493 q 427 641 389 600 q 541 706 465 683 q 728 729 617 729 q 875 709 811 729 q 976 646 940 689 q 1013 535 1013 603 l 1013 224 q 1023 188 1013 201 q 1056 174 1033 174 z "},"©":{"ha":1312,"x_min":38,"x_max":1274,"o":"m 656 -107 q 905 -63 792 -107 q 1101 61 1018 -19 q 1229 250 1183 141 q 1274 489 1274 359 q 1229 728 1274 619 q 1101 917 1183 837 q 905 1041 1018 997 q 656 1085 792 1085 q 408 1041 521 1085 q 212 917 294 997 q 84 728 129 837 q 38 489 38 619 q 84 250 38 359 q 212 61 129 141 q 408 -63 294 -19 q 656 -107 521 -107 m 656 -26 q 386 41 503 -26 q 204 223 269 107 q 138 489 138 340 q 204 755 138 639 q 386 937 269 871 q 656 1003 503 1003 q 866 966 772 1003 q 1030 859 961 928 q 1137 695 1099 790 q 1174 489 1174 601 q 1137 282 1174 376 q 1030 119 1099 188 q 866 12 961 50 q 656 -26 772 -26 m 985 355 q 963 273 984 313 q 900 200 941 233 q 803 148 860 167 q 674 128 746 128 q 480 173 563 128 q 351 299 397 218 q 305 488 305 381 q 353 670 305 590 q 485 796 402 750 q 669 842 567 842 q 735 834 710 842 q 776 819 760 827 q 810 812 793 812 q 841 818 828 812 q 865 830 854 824 q 888 836 876 836 q 915 827 906 836 q 929 795 924 818 l 965 622 q 958 590 969 603 q 930 574 948 578 q 893 577 908 569 q 870 608 878 585 q 804 723 843 693 q 726 753 765 753 q 665 725 688 753 q 630 647 641 698 q 619 526 619 597 q 639 388 619 443 q 693 307 658 333 q 777 280 728 280 q 859 301 824 280 q 913 356 894 322 q 931 378 922 371 q 949 386 940 385 q 964 386 957 388 q 985 355 985 381 z "},"®":{"ha":1005,"x_min":17,"x_max":988,"o":"m 501 170 q 696 204 607 170 q 851 300 785 238 q 952 444 916 361 q 988 624 988 526 q 951 801 988 720 q 850 940 915 881 q 695 1032 784 999 q 501 1065 606 1065 q 307 1032 396 1065 q 154 940 219 999 q 53 801 89 881 q 17 624 17 720 q 53 444 17 526 q 153 300 88 361 q 306 204 217 238 q 501 170 394 170 m 501 239 q 297 289 385 239 q 158 427 208 340 q 108 624 108 515 q 159 817 108 733 q 298 948 210 901 q 501 996 387 996 q 704 948 615 996 q 845 816 793 900 q 897 624 897 732 q 846 427 897 515 q 706 289 795 340 q 501 239 617 239 m 757 692 q 725 615 757 649 q 640 572 694 582 q 589 559 610 567 q 535 551 567 551 q 472 560 497 551 q 430 579 447 569 l 428 632 q 464 613 449 617 q 505 608 478 608 q 559 628 540 608 q 577 690 577 647 q 556 771 577 739 q 500 803 535 803 l 471 803 l 471 469 q 473 453 471 458 q 482 444 475 448 l 491 439 q 501 427 499 433 q 503 414 503 422 q 472 390 503 390 l 283 390 q 249 414 249 390 q 267 440 249 431 l 278 446 q 290 454 286 449 q 293 469 293 458 l 293 781 q 290 796 293 791 q 280 804 286 801 l 267 810 q 249 836 249 817 q 283 860 249 860 l 501 860 q 691 814 626 860 q 757 692 757 767 m 515 572 l 682 590 l 744 464 q 755 449 750 454 q 765 441 759 444 q 778 431 775 436 q 782 418 782 426 q 773 397 782 405 q 749 390 764 390 l 582 390 q 551 414 551 390 q 558 432 551 424 l 561 435 q 567 443 566 437 q 563 459 567 450 l 515 572 z "},"™":{"ha":1518,"x_min":17,"x_max":1461,"o":"m 201 972 l 465 972 q 519 978 499 972 q 557 985 539 985 q 596 973 583 985 q 617 933 609 961 l 643 795 q 613 747 653 753 q 584 749 597 744 q 563 770 572 753 q 525 849 542 822 q 491 886 508 876 q 455 897 474 897 l 449 897 l 449 468 q 453 450 449 456 q 467 440 458 444 l 478 433 q 502 396 502 420 q 458 360 502 360 l 208 360 q 163 396 163 360 q 188 433 163 419 l 198 440 q 211 450 206 444 q 217 468 217 456 l 217 897 l 210 897 q 176 886 192 897 q 143 848 160 875 q 103 771 126 820 q 82 749 94 753 q 52 747 69 744 q 26 763 35 750 q 22 795 17 776 l 49 933 q 69 973 56 961 q 108 985 82 985 q 147 978 127 985 q 201 972 167 972 m 1090 578 l 1010 574 l 1122 906 q 1158 959 1140 944 q 1213 973 1177 973 l 1397 973 q 1431 964 1419 973 q 1442 938 1442 954 q 1435 916 1442 924 q 1417 902 1428 908 l 1403 894 q 1389 883 1394 890 q 1384 863 1383 876 l 1408 473 q 1413 452 1409 458 q 1425 440 1416 446 l 1439 433 q 1461 399 1461 424 q 1417 361 1461 361 l 1161 361 q 1117 397 1117 361 q 1143 433 1117 421 l 1157 440 q 1170 452 1165 446 q 1174 474 1175 458 l 1149 896 l 1213 900 l 1049 432 q 1018 383 1033 394 q 981 372 1003 372 q 941 382 957 372 q 905 435 924 392 l 744 881 l 801 890 l 772 485 q 780 456 771 466 q 806 437 789 445 l 815 429 q 831 398 831 419 q 820 371 831 381 q 786 361 810 361 l 669 361 q 635 371 646 361 q 625 397 625 381 q 632 420 625 412 q 653 435 640 428 l 659 439 q 680 456 671 446 q 690 486 689 465 l 714 842 q 711 879 715 867 q 697 895 707 890 l 683 902 q 665 916 672 907 q 658 938 658 924 q 703 973 658 973 l 888 973 q 941 958 922 973 q 974 908 959 942 l 1090 578 z "},"*":{"ha":868,"x_min":9,"x_max":842,"o":"m 450 688 l 423 688 q 405 779 423 740 q 362 853 386 819 q 320 919 338 887 q 301 988 301 951 q 436 1089 301 1089 q 536 1063 500 1089 q 572 988 572 1037 q 553 919 572 951 q 511 853 535 887 q 468 779 487 819 q 450 688 450 740 m 441 700 l 432 676 q 339 687 383 692 q 255 670 295 683 q 177 650 215 658 q 105 654 140 643 q 51 812 9 686 q 106 897 71 872 q 189 906 142 922 q 249 868 224 895 q 301 808 275 841 q 359 745 326 775 q 441 700 392 716 m 426 695 l 447 680 q 408 595 417 638 q 399 511 399 553 q 393 433 398 470 q 367 367 388 397 q 198 363 308 285 q 133 441 147 400 q 147 523 119 483 q 204 568 169 552 q 278 597 238 583 q 357 632 318 610 q 426 695 395 653 m 426 680 l 447 695 q 517 632 478 653 q 595 597 556 610 q 670 568 635 583 q 726 523 704 552 q 675 363 784 441 q 580 327 624 326 q 506 367 535 327 q 480 433 485 397 q 475 511 476 470 q 465 595 474 553 q 426 680 456 638 m 432 700 q 514 745 481 716 q 572 808 547 775 q 624 868 598 841 q 684 906 649 895 q 822 811 781 937 q 828 711 842 752 q 768 654 815 670 q 696 650 733 643 q 618 670 658 658 q 534 687 578 683 q 441 676 490 692 l 432 700 z "},"†":{"ha":799,"x_min":40,"x_max":758,"o":"m 400 760 q 472 776 439 760 q 535 815 504 793 q 596 853 565 837 q 660 870 626 870 q 732 839 706 870 q 758 737 758 808 q 734 638 758 669 q 661 606 709 606 q 597 623 628 606 q 535 661 566 639 q 472 699 505 683 q 400 715 439 715 q 327 699 361 715 q 263 661 294 683 q 202 623 233 639 q 138 606 172 606 q 66 638 91 606 q 40 737 40 669 q 67 839 40 808 q 138 870 94 870 q 202 853 172 870 q 264 815 233 837 q 328 776 294 793 q 400 760 361 760 m 374 738 q 358 811 374 778 q 319 873 341 844 q 281 931 298 902 q 265 992 265 960 q 298 1064 265 1040 q 399 1089 331 1089 q 503 1063 472 1089 q 535 991 535 1036 q 518 930 535 959 q 479 873 501 901 q 440 811 457 844 q 424 738 424 778 q 445 660 424 693 q 495 596 467 627 q 544 527 523 565 q 566 434 566 489 q 554 341 566 386 q 525 246 542 296 q 490 135 508 196 q 460 -6 472 74 q 449 -190 449 -85 q 401 -226 449 -226 q 352 -188 352 -226 q 340 -4 352 -83 q 311 136 328 75 q 276 248 294 198 q 247 343 258 298 q 235 435 235 388 q 256 525 235 488 q 305 594 277 563 q 353 659 332 625 q 374 738 374 692 z "},"‡":{"ha":799,"x_min":40,"x_max":758,"o":"m 400 765 q 471 781 438 765 q 535 820 504 798 q 596 858 565 842 q 660 875 626 875 q 732 844 706 875 q 758 742 758 813 q 734 643 758 675 q 661 611 709 611 q 597 627 628 611 q 535 666 566 644 q 472 704 505 688 q 400 720 439 720 q 328 704 361 720 q 264 666 294 688 q 202 627 233 644 q 138 611 172 611 q 66 643 91 611 q 40 742 40 675 q 67 844 40 813 q 138 875 94 875 q 202 858 172 875 q 264 820 233 842 q 328 781 294 798 q 400 765 361 765 m 566 439 q 544 350 566 387 q 495 282 523 313 q 445 217 467 251 q 424 138 424 183 q 440 66 424 99 q 479 5 457 34 q 518 -53 501 -24 q 535 -116 535 -83 q 503 -186 535 -158 q 399 -214 472 -215 q 298 -187 331 -214 q 265 -116 265 -161 q 281 -54 265 -83 q 319 5 298 -25 q 358 66 341 34 q 374 138 374 99 q 353 218 374 184 q 305 284 332 253 q 256 352 277 315 q 235 440 235 389 q 256 530 235 493 q 305 599 277 567 q 353 664 332 631 q 374 743 374 698 q 358 816 374 783 q 319 878 341 849 q 281 936 298 908 q 265 997 265 965 q 298 1069 265 1044 q 399 1094 331 1094 q 503 1068 472 1094 q 535 997 535 1042 q 518 936 535 965 q 479 878 501 907 q 440 816 457 849 q 424 743 424 783 q 445 665 424 698 q 495 601 467 632 q 544 532 523 569 q 566 439 566 494 m 400 115 q 328 98 361 115 q 264 60 294 81 q 202 22 233 38 q 138 5 172 5 q 67 38 94 5 q 40 138 40 71 q 66 239 40 208 q 138 269 91 269 q 202 253 172 269 q 264 215 233 236 q 328 177 294 194 q 400 160 361 160 q 472 176 439 160 q 535 214 505 192 q 597 253 566 236 q 661 269 628 269 q 734 239 709 269 q 758 138 758 208 q 732 38 758 71 q 660 5 706 5 q 596 22 626 5 q 535 60 565 38 q 471 98 504 81 q 400 115 438 115 z "},"'":{"ha":306,"x_min":10,"x_max":297,"o":"m 146 542 q 107 558 124 542 q 85 603 90 574 l 28 897 q 42 1042 10 992 q 155 1092 74 1092 q 267 1040 237 1092 q 277 898 297 988 l 214 602 q 190 556 207 571 q 146 542 172 542 z "},"\"":{"ha":624,"x_min":10,"x_max":615,"o":"m 465 542 q 426 558 443 542 q 403 603 409 574 l 347 897 q 360 1042 328 992 q 474 1092 392 1092 q 585 1040 556 1092 q 596 898 615 988 l 533 602 q 508 556 526 571 q 465 542 491 542 m 146 542 q 107 558 124 542 q 85 603 90 574 l 28 897 q 42 1042 10 992 q 155 1092 74 1092 q 267 1040 237 1092 q 277 898 297 988 l 214 602 q 190 556 207 571 q 146 542 172 542 z "},"′":{"ha":363,"x_min":36,"x_max":329,"o":"m 88 549 q 48 566 60 549 q 42 611 36 582 l 85 933 q 130 1045 96 1012 q 220 1078 165 1078 q 302 1051 274 1078 q 329 981 329 1025 q 301 883 329 937 l 153 606 q 120 562 136 574 q 88 549 105 549 z "},"ʹ":{"ha":363,"x_min":36,"x_max":329,"o":"m 88 549 q 48 566 60 549 q 42 611 36 582 l 85 933 q 130 1045 96 1012 q 220 1078 165 1078 q 302 1051 274 1078 q 329 981 329 1025 q 301 883 329 937 l 153 606 q 120 562 136 574 q 88 549 105 549 z "},"ʺ":{"ha":733,"x_min":36,"x_max":697,"o":"z "},"″":{"ha":733,"x_min":36,"x_max":697,"o":"m 88 549 q 48 566 60 549 q 42 611 36 582 l 85 933 q 130 1045 96 1012 q 220 1078 165 1078 q 302 1051 274 1078 q 329 981 329 1025 q 301 883 329 937 l 153 606 q 120 562 136 574 q 88 549 105 549 m 456 548 q 416 564 428 548 q 410 610 404 581 l 453 932 q 498 1043 464 1010 q 588 1076 533 1076 q 670 1050 642 1076 q 697 980 697 1024 q 669 882 697 935 l 522 605 q 489 560 504 573 q 456 548 473 548 z "},"^":{"ha":664,"x_min":47,"x_max":617,"o":"m 374 875 l 294 875 l 488 549 q 543 505 516 513 q 593 510 570 498 q 615 544 612 520 q 601 595 617 567 l 445 915 q 391 980 415 965 q 334 995 367 995 q 277 980 302 995 q 223 915 253 965 l 63 597 q 49 545 47 569 q 71 510 51 521 q 120 506 94 499 q 176 550 147 513 l 374 875 z "},"~":{"ha":895,"x_min":64,"x_max":832,"o":"m 619 348 q 531 368 574 348 q 445 414 487 388 q 363 460 403 440 q 285 481 322 481 q 212 456 242 481 q 173 383 183 431 q 151 354 166 365 q 117 344 136 344 q 64 406 64 344 q 92 506 64 459 q 169 581 121 552 q 276 609 217 609 q 383 589 335 609 q 472 543 431 569 q 547 497 513 517 q 611 476 581 476 q 683 498 653 476 q 719 565 713 520 q 744 600 728 589 q 778 612 760 612 q 832 549 832 612 q 803 448 832 493 q 726 375 774 402 q 619 348 678 348 z "},"+":{"ha":797,"x_min":73,"x_max":724,"o":"m 73 474 q 88 514 73 499 q 124 529 103 529 l 674 529 q 709 514 694 529 q 724 474 724 499 q 709 434 724 448 q 674 419 694 419 l 123 419 q 88 434 103 419 q 73 474 73 448 m 1342 14 q 1382 -1 1367 14 q 1397 -37 1397 -17 l 1397 -587 q 1382 -622 1397 -608 q 1342 -637 1367 -637 q 1302 -622 1316 -637 q 1288 -587 1288 -608 l 1288 -36 q 1302 -1 1288 -17 q 1342 14 1316 14 z "},"−":{"ha":797,"x_min":73,"x_max":724,"o":"m 73 474 q 88 514 73 499 q 124 529 103 529 l 674 529 q 709 514 694 529 q 724 474 724 499 q 709 434 724 448 q 674 419 694 419 l 123 419 q 88 434 103 419 q 73 474 73 448 z "},"±":{"ha":798,"x_min":78,"x_max":729,"o":"m 78 582 q 94 623 78 608 q 129 638 109 638 l 680 638 q 715 623 700 638 q 729 582 729 608 q 715 542 729 556 q 680 528 700 528 l 128 528 q 94 542 109 528 q 78 582 78 556 m 1347 122 q 1388 107 1373 122 q 1403 72 1403 92 l 1403 -479 q 1388 -514 1403 -499 q 1347 -528 1373 -528 q 1307 -514 1322 -528 q 1293 -479 1293 -499 l 1293 72 q 1307 107 1293 92 q 1347 122 1322 122 m 78 111 q 93 152 78 137 q 128 167 108 167 l 679 167 q 714 152 699 167 q 728 111 728 137 q 714 71 728 85 q 679 57 699 57 l 128 57 q 93 71 108 57 q 78 111 78 85 z "},"÷":{"ha":797,"x_min":78,"x_max":728,"o":"m 400 669 q 350 682 373 669 q 315 716 328 695 q 301 763 301 738 q 315 809 301 789 q 350 843 328 830 q 400 856 373 856 q 451 843 429 856 q 487 809 474 830 q 500 763 500 789 q 487 716 500 738 q 451 682 474 695 q 400 669 429 669 m 78 474 q 93 514 78 499 q 128 529 108 529 l 679 529 q 714 514 699 529 q 728 474 728 499 q 714 434 728 448 q 679 419 699 419 l 128 419 q 93 434 108 419 q 78 474 78 448 m 400 99 q 350 112 373 99 q 315 146 328 125 q 301 193 301 168 q 315 239 301 218 q 350 273 328 260 q 400 286 373 286 q 451 273 429 286 q 487 239 474 260 q 500 193 500 218 q 487 146 500 168 q 451 112 474 125 q 400 99 429 99 z "},"×":{"ha":776,"x_min":89,"x_max":669,"o":"m 132 207 q 134 288 89 246 l 561 740 q 602 758 580 758 q 646 739 624 758 q 668 702 668 719 q 647 663 669 684 l 219 210 q 176 190 199 192 q 132 207 154 188 m 647 208 q 602 191 627 190 q 561 208 578 192 l 133 663 q 114 701 113 681 q 134 739 114 722 q 217 739 174 776 l 649 281 q 667 245 667 265 q 647 208 667 226 z "},"=":{"ha":797,"x_min":78,"x_max":728,"o":"m 78 602 q 93 643 78 628 q 128 658 108 658 l 679 658 q 714 643 699 658 q 728 602 728 628 q 714 562 728 576 q 679 548 699 548 l 128 548 q 93 562 108 548 q 78 602 78 576 m 78 349 q 93 390 78 375 q 128 405 108 405 l 679 405 q 714 390 699 405 q 728 349 728 375 q 714 309 728 324 q 679 295 699 295 l 128 295 q 93 309 108 295 q 78 349 78 324 z "},"<":{"ha":738,"x_min":59,"x_max":660,"o":"m 208 486 l 208 464 l 604 698 q 645 731 633 713 q 657 765 657 749 q 644 803 658 788 q 602 818 631 818 q 555 808 578 818 q 496 780 531 798 l 119 560 q 74 524 90 545 q 59 475 59 502 q 74 426 59 447 q 119 389 90 404 l 499 169 q 557 141 533 151 q 605 131 581 131 q 647 145 633 131 q 659 184 660 160 q 647 219 659 200 q 607 251 635 238 l 208 486 z "},">":{"ha":738,"x_min":73,"x_max":674,"o":"m 525 464 l 525 486 l 128 252 q 88 219 100 238 q 76 185 76 201 q 88 147 75 162 q 131 132 101 132 q 178 142 154 132 q 237 170 201 152 l 613 390 q 658 426 643 405 q 674 475 674 448 q 658 524 674 503 q 613 561 643 546 l 234 781 q 175 809 199 799 q 128 819 151 819 q 86 805 99 819 q 74 766 73 790 q 86 731 74 750 q 126 699 98 713 l 525 464 z "},"≤":{"ha":799,"x_min":80,"x_max":731,"o":"m 80 113 q 95 154 80 139 q 131 169 110 169 l 681 169 q 716 154 701 169 q 731 113 731 139 q 716 73 731 88 q 681 59 701 59 l 130 59 q 95 73 110 59 q 80 113 80 88 m 252 594 l 252 572 l 649 806 q 689 839 677 820 q 701 873 701 857 q 689 911 702 896 q 647 926 676 926 q 599 916 623 926 q 540 888 576 906 l 164 668 q 119 631 134 653 q 103 583 103 610 q 119 533 103 555 q 164 497 134 512 l 543 276 q 602 249 578 259 q 649 238 626 238 q 691 253 678 238 q 703 292 704 268 q 691 326 703 308 q 651 359 679 345 l 252 594 z "},"≥":{"ha":797,"x_min":80,"x_max":731,"o":"m 550 572 l 550 594 l 153 360 q 113 327 125 345 q 101 292 101 308 q 113 255 100 269 q 156 240 126 240 q 203 250 179 240 q 262 278 226 260 l 638 497 q 683 534 668 513 q 699 583 699 556 q 683 632 699 610 q 638 669 668 653 l 259 889 q 200 917 224 906 q 153 927 176 927 q 111 912 124 927 q 99 874 98 897 q 111 839 99 858 q 151 806 123 820 l 550 572 m 80 113 q 95 153 80 138 q 131 168 110 168 l 681 168 q 716 153 701 168 q 731 113 731 138 q 716 73 731 87 q 681 58 701 58 l 130 58 q 95 73 110 58 q 80 113 80 87 z "},"≈":{"ha":895,"x_min":69,"x_max":837,"o":"m 624 208 q 535 228 579 208 q 450 274 492 248 q 367 320 408 300 q 290 340 327 340 q 217 315 247 340 q 178 243 188 290 q 156 214 171 224 q 122 203 141 203 q 69 265 69 203 q 97 365 69 319 q 174 440 126 412 q 281 469 222 469 q 388 449 340 469 q 477 402 436 428 q 552 356 517 376 q 616 336 586 336 q 688 358 658 336 q 724 424 717 380 q 749 460 733 449 q 783 472 765 472 q 837 409 837 472 q 808 307 837 353 q 731 235 779 262 q 624 208 683 208 m 624 509 q 535 529 579 509 q 450 575 492 549 q 367 622 408 601 q 290 642 327 642 q 217 617 247 642 q 178 544 188 592 q 156 515 171 526 q 122 505 141 505 q 69 567 69 505 q 97 667 69 620 q 174 742 126 713 q 281 770 222 770 q 388 750 340 770 q 477 704 436 730 q 552 658 517 678 q 616 638 586 638 q 688 659 658 638 q 724 726 717 681 q 749 761 733 750 q 783 773 765 773 q 837 710 837 773 q 808 609 837 654 q 731 536 779 563 q 624 509 683 509 z "},"≠":{"ha":797,"x_min":83,"x_max":733,"o":"m 154 24 q 121 41 134 24 q 125 84 108 58 l 590 881 q 617 922 606 906 q 654 938 628 938 q 689 918 676 938 q 681 869 701 898 l 213 78 q 181 37 193 49 q 154 24 169 24 m 83 602 q 98 643 83 628 q 133 658 113 658 l 684 658 q 719 643 704 658 q 733 602 733 628 q 719 562 733 576 q 684 548 704 548 l 133 548 q 98 562 113 548 q 83 602 83 576 m 83 349 q 98 390 83 375 q 133 405 113 405 l 684 405 q 719 390 704 405 q 733 349 733 375 q 719 309 733 324 q 684 295 704 295 l 133 295 q 98 309 113 295 q 83 349 83 324 z "},"¬":{"ha":794,"x_min":74,"x_max":710,"o":"m 74 539 q 92 583 74 567 q 133 599 110 599 l 637 599 q 690 582 669 599 q 710 531 710 565 l 710 301 q 693 263 710 279 q 646 247 676 247 q 598 264 615 247 q 580 301 580 280 l 580 497 l 596 481 l 133 481 q 91 496 109 481 q 74 539 74 511 z "},"∕":{"ha":942,"x_min":10,"x_max":926,"o":"m 447 471 q 410 380 430 431 q 369 271 390 328 q 328 155 349 213 q 287 40 307 96 q 249 -64 267 -16 q 215 -147 231 -112 q 170 -193 201 -180 q 101 -194 140 -205 q 48 -157 62 -183 q 48 -99 33 -132 q 85 -17 63 -63 q 135 84 108 30 q 191 194 163 138 q 248 306 220 251 q 300 411 276 362 q 341 501 324 461 q 378 592 358 541 q 418 701 397 644 q 460 817 439 759 q 501 932 481 876 q 539 1036 521 988 q 572 1119 558 1084 q 617 1165 587 1152 q 687 1166 648 1177 q 740 1129 726 1155 q 740 1071 754 1104 q 702 989 725 1036 q 652 888 680 942 q 596 778 625 834 q 540 666 567 721 q 488 561 512 610 q 447 471 464 511 z "},"№":{"ha":1687,"x_min":35,"x_max":1633,"o":"m 997 83 q 1010 125 997 110 q 1042 141 1022 141 l 1515 141 q 1550 125 1537 141 q 1563 83 1563 110 q 1550 45 1563 59 q 1515 31 1538 31 l 1042 31 q 1009 45 1021 31 q 997 83 997 59 m 364 47 q 350 13 364 26 q 305 0 335 0 l 84 0 q 47 13 58 0 q 35 47 35 26 q 75 101 35 81 l 90 108 q 131 140 116 119 q 147 200 147 160 l 147 744 q 141 790 147 775 q 119 820 135 805 l 90 872 q 65 901 74 888 q 56 931 56 915 q 70 961 56 950 q 109 972 85 972 l 325 972 q 370 968 351 972 q 407 937 390 965 l 740 291 l 717 174 l 717 772 q 702 833 717 813 q 660 865 687 853 l 645 872 q 614 895 624 883 q 605 925 605 907 q 619 960 605 947 q 664 972 634 972 l 875 972 q 920 960 906 972 q 934 925 934 947 q 894 872 934 891 l 879 865 q 837 833 851 853 q 822 772 822 813 l 822 228 q 827 200 822 212 q 839 176 832 188 l 870 108 q 890 72 885 83 q 896 47 896 60 q 881 13 896 26 q 842 0 866 0 l 595 0 q 549 39 549 0 q 545 64 549 51 q 527 101 542 76 l 194 765 l 252 827 l 252 199 q 267 139 252 159 q 309 108 281 119 l 324 101 q 364 47 364 81 m 1290 935 q 1471 891 1394 935 q 1591 768 1548 847 q 1633 588 1633 690 q 1589 413 1633 490 q 1464 291 1544 335 q 1280 247 1385 247 q 1100 290 1177 247 q 979 412 1022 334 q 936 594 936 490 q 981 767 936 690 q 1106 889 1026 844 q 1290 935 1185 935 m 1338 351 q 1370 386 1358 356 q 1381 474 1382 417 q 1363 609 1381 530 q 1303 785 1337 731 q 1235 831 1269 840 q 1203 797 1215 826 q 1192 711 1191 767 q 1210 573 1192 656 q 1269 397 1235 451 q 1338 351 1302 343 z "},"#":{"ha":953,"x_min":19,"x_max":934,"o":"m 373 477 q 357 414 366 450 q 337 337 347 378 q 316 253 327 296 q 295 170 306 211 q 276 94 285 130 q 260 32 267 58 q 197 -6 245 -17 q 164 17 172 1 q 161 56 155 33 q 179 115 168 81 q 203 189 190 149 q 230 271 216 229 q 258 353 244 313 q 282 430 271 394 q 301 494 293 467 q 317 559 308 522 q 335 638 326 596 q 353 722 344 679 q 370 806 362 765 q 387 882 379 847 q 401 941 395 917 q 465 978 417 989 q 499 956 490 972 q 501 916 508 940 q 484 855 494 890 q 461 780 474 820 q 437 698 449 740 q 413 616 424 656 q 391 540 401 575 q 373 477 381 504 m 505 687 q 573 688 534 687 q 654 692 611 690 q 738 696 697 694 q 816 700 780 699 q 878 702 852 701 q 918 690 903 702 q 934 656 933 678 q 918 620 933 632 q 877 607 903 608 q 814 608 851 607 q 735 611 777 610 q 651 615 694 613 q 571 618 609 617 q 504 619 533 619 q 436 617 475 618 q 354 615 397 617 q 268 613 310 614 q 187 611 225 612 q 122 611 149 611 q 81 623 96 610 q 66 658 67 635 q 81 693 66 682 q 122 706 96 705 q 186 704 149 706 q 266 699 223 702 q 352 693 308 696 q 435 688 396 690 q 505 687 475 686 m 458 307 q 390 306 428 307 q 307 304 351 305 q 221 302 264 303 q 141 300 178 301 q 76 299 103 299 q 35 311 49 299 q 19 347 20 324 q 34 382 19 371 q 76 394 49 394 q 139 392 102 394 q 219 387 176 390 q 305 381 262 384 q 389 377 349 378 q 458 375 428 375 q 526 376 488 375 q 607 380 565 378 q 692 384 650 382 q 769 388 733 387 q 831 390 806 390 q 872 378 857 390 q 888 344 887 367 q 872 308 887 320 q 831 295 857 297 q 767 297 803 296 q 688 300 730 298 q 605 303 647 301 q 524 306 563 305 q 458 307 486 307 m 540 32 q 476 -6 525 -17 q 443 17 452 1 q 441 56 435 33 q 459 115 448 81 q 483 189 469 149 q 510 271 496 229 q 538 353 524 313 q 562 430 551 394 q 581 494 574 467 q 598 559 589 522 q 615 638 606 596 q 633 723 624 680 q 651 806 642 765 q 668 881 660 847 q 682 940 676 916 q 745 978 696 990 q 779 955 770 972 q 780 915 788 939 q 763 855 773 890 q 741 780 753 819 q 717 698 729 740 q 692 615 704 656 q 670 540 681 575 q 653 477 660 504 q 636 414 646 450 q 617 337 627 378 q 596 253 607 296 q 575 170 585 211 q 556 94 565 130 q 540 32 547 58 z "},"¤":{"ha":835,"x_min":72,"x_max":765,"o":"m 99 228 q 75 187 78 211 q 92 144 72 163 q 138 129 112 126 q 183 150 164 133 l 307 276 l 221 354 l 99 228 m 92 784 q 75 741 72 765 q 99 699 78 717 l 221 574 l 307 652 l 183 778 q 138 799 164 796 q 92 784 112 802 m 744 785 q 698 801 724 804 q 651 780 671 798 l 528 655 l 614 577 l 738 703 q 761 744 757 721 q 744 785 765 768 m 744 142 q 761 184 765 160 q 738 225 757 207 l 614 351 l 528 273 l 651 148 q 698 127 671 130 q 744 142 724 124 m 417 213 q 553 244 492 213 q 650 332 614 275 q 686 465 686 389 q 650 599 686 542 q 553 686 614 655 q 418 717 492 717 q 284 686 344 717 q 187 599 223 655 q 151 465 151 542 q 187 332 151 389 q 283 244 223 275 q 417 213 344 213 m 419 299 q 337 321 372 299 q 284 382 303 344 q 266 465 266 419 q 284 549 266 512 q 337 609 303 587 q 419 632 372 632 q 501 609 466 632 q 555 549 535 587 q 574 465 574 512 q 555 382 574 419 q 501 321 535 344 q 419 299 466 299 z "},"$":{"ha":877,"x_min":47,"x_max":839,"o":"m 463 968 q 660 939 580 968 q 783 857 741 909 q 825 736 825 805 q 794 645 825 683 q 712 607 763 607 q 613 641 653 607 q 574 728 574 674 l 574 796 q 542 885 574 851 q 452 919 510 919 q 385 905 415 919 q 338 860 355 890 q 320 789 320 831 q 340 716 320 749 q 404 655 359 683 q 526 601 449 627 q 716 512 649 559 q 811 412 784 465 q 839 297 839 359 q 790 141 839 207 q 650 39 742 75 q 428 3 558 3 q 218 33 303 3 q 90 114 133 63 q 47 226 47 165 q 80 316 47 281 q 171 351 113 351 q 259 316 222 351 q 297 222 297 281 l 297 164 q 333 85 297 115 q 431 54 370 54 q 537 86 497 54 q 576 172 576 119 q 531 277 576 233 q 363 363 485 322 q 186 447 252 402 q 90 547 119 492 q 60 673 60 603 q 109 823 60 756 q 248 929 158 890 q 463 968 338 968 m 481 533 l 431 533 q 426 707 431 630 q 416 847 422 785 q 405 961 410 910 q 401 1056 401 1013 q 416 1101 401 1085 q 456 1117 431 1117 q 494 1101 478 1117 q 510 1055 510 1085 q 506 965 510 1015 q 495 852 501 915 q 485 710 490 789 q 481 533 481 631 m 410 461 l 460 461 q 464 285 460 364 q 475 143 469 206 q 485 30 481 80 q 490 -62 490 -21 q 475 -107 490 -91 q 435 -122 460 -122 q 395 -107 411 -122 q 380 -60 380 -91 q 384 34 380 -17 q 395 147 389 85 q 406 287 401 210 q 410 461 410 365 z "},"¥":{"ha":985,"x_min":24,"x_max":965,"o":"m 628 299 l 385 264 l 122 812 q 101 848 109 836 q 73 869 92 860 l 54 877 q 31 897 39 884 q 24 925 24 910 q 38 960 24 947 q 83 972 53 972 l 456 972 q 501 960 486 972 q 515 925 515 947 q 479 874 515 889 l 462 868 q 432 842 432 856 q 447 802 433 828 l 626 379 l 531 329 l 730 772 q 737 830 744 805 q 697 869 730 856 l 681 877 q 660 895 669 883 q 652 925 652 907 q 666 960 652 947 q 711 972 681 972 l 906 972 q 951 960 936 972 q 965 925 965 947 q 958 898 965 908 q 936 878 951 888 l 926 872 q 901 853 913 865 q 875 821 889 842 q 842 760 861 799 l 628 299 m 347 360 l 651 363 l 651 154 q 660 128 651 140 q 687 108 668 116 l 713 99 q 749 47 749 81 q 735 13 749 26 q 690 0 720 0 l 308 0 q 263 13 278 0 q 249 47 249 26 q 285 99 249 81 l 312 108 q 340 129 333 117 q 347 154 347 141 l 347 360 m 118 330 q 127 352 118 344 q 149 360 135 360 l 847 360 q 870 352 861 360 q 878 330 878 344 q 847 299 878 299 l 147 299 q 118 330 118 299 m 656 469 l 678 531 l 847 531 q 870 522 861 531 q 878 500 878 514 q 847 469 878 469 l 656 469 m 118 500 q 127 522 118 514 q 149 531 135 531 l 469 531 l 496 469 l 147 469 q 118 500 118 469 z "},"€":{"ha":1028,"x_min":28,"x_max":991,"o":"m 988 281 q 955 174 981 228 q 880 76 928 120 q 761 4 832 31 q 597 -23 690 -23 q 351 38 455 -23 q 191 211 247 99 q 134 476 134 324 q 196 742 134 625 q 378 927 258 860 q 672 995 499 995 q 776 985 728 995 q 862 960 824 976 q 927 927 901 944 q 970 893 956 913 q 976 851 984 872 l 938 701 q 922 666 931 680 q 894 652 913 651 q 857 665 868 652 q 840 701 846 678 q 810 816 833 769 q 751 887 788 863 q 669 912 715 912 q 591 886 627 912 q 528 808 556 860 q 486 679 501 756 q 471 500 471 602 q 496 281 471 366 q 570 156 522 196 q 690 115 619 115 q 816 162 763 115 q 896 283 869 209 q 914 312 906 301 q 930 327 922 322 q 950 331 939 331 q 981 318 970 331 q 988 281 991 305 m 28 558 q 37 580 28 572 q 57 588 45 588 l 765 588 q 788 580 779 588 q 797 558 797 572 q 765 528 797 528 l 57 528 q 28 558 28 528 m 31 412 q 39 433 31 425 q 60 442 48 442 l 719 442 q 742 433 733 442 q 751 412 751 425 q 719 382 751 382 l 59 382 q 31 412 31 382 z "},"£":{"ha":929,"x_min":43,"x_max":883,"o":"m 356 262 l 284 266 q 316 301 306 283 q 326 338 326 318 q 304 400 326 369 q 249 463 282 431 q 184 532 217 496 q 128 610 151 568 q 106 702 106 652 q 152 854 106 788 q 293 957 199 920 q 533 994 388 994 q 729 958 652 994 q 843 863 806 922 q 880 732 880 803 q 842 617 880 658 q 736 576 804 576 q 623 621 667 576 q 579 744 579 665 l 579 838 q 562 910 579 886 q 514 933 545 933 q 451 891 471 933 q 431 754 431 849 q 433 676 431 715 q 438 598 435 637 q 443 521 441 559 q 444 448 445 483 q 425 340 444 390 q 356 262 407 290 m 43 117 q 68 213 43 169 q 143 282 94 256 q 265 308 193 308 q 369 301 321 308 q 463 284 418 294 q 551 267 508 274 q 640 260 595 260 q 741 278 704 260 q 798 338 778 297 q 819 358 806 349 q 848 366 833 366 q 872 355 862 365 q 883 325 883 344 q 848 127 881 203 q 758 14 815 50 q 624 -23 701 -23 q 539 -8 578 -23 q 467 45 499 8 q 408 150 435 83 q 389 187 397 176 q 363 198 380 198 q 343 186 351 198 q 333 142 334 174 q 313 48 331 85 q 261 -6 295 12 q 178 -23 228 -23 q 77 16 110 -23 q 43 117 43 56 m 91 451 q 101 472 91 464 q 124 481 111 480 l 280 492 l 344 424 l 125 424 q 101 432 110 424 q 91 451 91 439 m 399 424 l 397 481 l 637 481 q 659 473 651 481 q 667 453 667 465 q 637 424 667 424 l 399 424 z "},"₤":{"ha":940,"x_min":43,"x_max":883,"o":"m 371 262 l 303 266 q 332 301 324 284 q 341 338 341 319 q 317 404 341 372 q 259 470 294 436 q 189 543 224 504 q 130 628 153 582 q 106 733 106 675 q 152 869 106 810 q 293 961 199 928 q 533 994 388 994 q 726 961 651 994 q 838 874 801 928 q 875 754 875 819 q 837 646 875 685 q 731 608 799 608 q 622 648 664 608 q 579 763 579 689 l 579 838 q 562 910 579 886 q 513 933 545 933 q 451 897 472 933 q 431 772 431 860 q 437 683 431 726 q 452 597 444 639 q 467 515 460 556 q 474 436 474 475 q 448 341 473 385 q 371 262 424 296 m 43 117 q 68 209 43 167 q 143 275 94 250 q 265 299 193 299 q 369 292 321 299 q 463 275 418 285 q 551 259 508 266 q 640 251 595 251 q 741 270 704 251 q 798 328 778 288 q 819 349 806 340 q 848 357 833 357 q 872 346 862 357 q 883 317 883 335 q 848 123 881 198 q 758 13 815 48 q 624 -23 701 -23 q 539 -7 578 -23 q 469 48 501 10 q 414 150 438 86 q 394 187 403 176 q 367 198 385 198 q 348 186 357 198 q 338 142 339 174 q 317 48 336 85 q 264 -6 299 12 q 178 -23 229 -23 q 77 16 110 -23 q 43 117 43 56 m 90 392 q 98 410 90 403 q 120 417 107 417 l 638 417 q 657 410 650 417 q 665 392 665 403 q 638 365 665 365 l 119 365 q 97 372 105 365 q 90 392 90 379 m 90 531 q 99 551 90 544 q 124 559 108 558 l 249 566 l 304 507 l 124 507 q 99 513 109 507 q 90 531 90 519 m 384 507 l 381 559 l 638 559 q 657 552 650 559 q 665 533 665 545 q 638 507 665 507 l 384 507 z "},"₡":{"ha":926,"x_min":48,"x_max":903,"o":"m 887 298 q 858 191 885 245 q 784 93 832 138 q 670 22 737 49 q 521 -5 603 -5 q 269 54 376 -5 q 106 221 163 113 q 48 476 48 329 q 108 733 48 620 q 286 912 169 847 q 572 978 403 978 q 682 965 631 978 q 774 931 733 951 q 846 887 815 910 q 888 851 872 871 q 896 810 903 832 l 857 662 q 841 626 850 640 q 813 612 832 612 q 776 625 788 613 q 759 661 765 638 q 726 790 750 737 q 663 871 703 843 q 567 899 624 899 q 484 874 522 899 q 418 799 446 849 q 375 674 390 749 q 360 500 360 599 q 386 286 360 369 q 464 164 413 203 q 589 124 515 124 q 720 173 669 124 q 794 301 771 222 q 811 329 803 319 q 828 344 819 340 q 848 349 837 349 q 878 335 869 349 q 887 298 887 320 m 444 -101 q 428 -87 433 -98 q 427 -63 422 -76 l 475 91 l 694 925 l 719 1037 q 732 1056 722 1050 q 754 1058 742 1062 q 772 1045 767 1056 q 774 1024 778 1035 l 736 908 l 519 82 l 481 -78 q 468 -98 478 -92 q 444 -101 457 -104 m 319 -92 q 303 -79 308 -90 q 302 -55 297 -68 l 353 117 l 572 947 l 594 1046 q 607 1065 597 1058 q 630 1067 617 1071 q 647 1054 642 1064 q 649 1033 653 1044 l 617 941 l 397 103 l 356 -69 q 343 -89 353 -83 q 319 -92 332 -95 z "},"₵":{"ha":915,"x_min":37,"x_max":884,"o":"m 581 499 q 582 361 581 424 q 586 243 584 297 q 591 144 589 190 q 596 61 594 99 q 600 -8 599 24 q 601 -65 601 -39 q 588 -103 601 -90 q 552 -116 574 -116 q 520 -103 533 -116 q 508 -63 508 -90 q 509 -7 508 -37 q 513 61 510 24 q 518 144 515 99 q 523 243 521 189 q 527 360 526 297 q 528 499 528 424 q 527 633 528 571 q 523 747 525 694 q 518 843 520 799 q 513 923 515 887 q 509 990 510 960 q 508 1047 508 1021 q 521 1084 508 1071 q 557 1097 535 1097 q 589 1084 576 1097 q 601 1044 601 1071 q 600 990 601 1019 q 595 923 598 960 q 590 843 593 887 q 585 747 588 799 q 582 633 583 695 q 581 499 581 572 m 510 -4 q 260 55 366 -4 q 95 222 153 115 q 37 469 37 328 q 98 734 37 620 q 271 913 158 849 q 538 977 383 977 q 625 965 592 977 q 678 939 658 952 q 713 926 699 926 q 743 934 728 926 q 771 953 757 942 q 801 972 785 964 q 836 980 817 980 q 872 968 859 980 q 884 931 884 956 l 883 665 q 873 626 883 642 q 838 610 863 610 q 790 628 808 610 q 763 681 772 647 q 721 803 750 754 q 650 878 692 853 q 551 903 607 903 q 448 862 494 903 q 373 735 401 822 q 344 510 344 649 q 372 285 344 370 q 450 162 400 200 q 568 124 501 124 q 706 168 649 124 q 784 288 763 213 q 807 325 794 315 q 837 335 820 335 q 867 321 858 335 q 876 285 876 307 q 848 180 874 231 q 774 87 822 128 q 660 20 727 45 q 510 -4 593 -4 z "},"₲":{"ha":1038,"x_min":42,"x_max":1008,"o":"m 591 491 q 593 355 591 417 q 597 239 594 292 q 602 142 599 186 q 607 60 604 97 q 610 -8 609 23 q 612 -65 612 -39 q 598 -102 612 -89 q 562 -115 585 -115 q 531 -102 544 -115 q 518 -62 518 -90 q 519 -7 518 -37 q 523 60 521 23 q 528 141 526 97 q 534 239 531 185 q 538 355 536 292 q 539 491 539 417 q 537 626 539 564 q 533 740 535 688 q 528 836 531 792 q 523 917 526 881 q 519 985 521 954 q 518 1041 518 1015 q 532 1078 518 1065 q 567 1092 545 1092 q 599 1078 586 1092 q 612 1039 612 1065 q 610 984 612 1014 q 606 918 608 954 q 601 837 603 881 q 595 741 598 793 q 592 626 593 688 q 591 491 591 564 m 564 902 q 454 857 500 902 q 383 724 408 813 q 358 506 358 636 q 385 276 358 372 q 456 131 412 181 q 552 81 500 81 q 634 92 603 81 q 677 126 664 103 q 690 183 690 149 l 690 385 q 709 455 690 428 q 771 482 728 482 l 948 482 q 993 470 979 482 q 1008 438 1008 458 q 999 410 1008 421 q 972 391 990 399 l 956 385 q 934 370 942 379 q 925 343 925 362 l 925 48 q 867 -7 925 -7 q 825 2 847 -7 q 784 23 804 11 q 745 43 763 34 q 711 52 726 52 q 682 44 699 52 q 640 25 665 35 q 581 6 615 15 q 499 -2 546 -2 q 255 56 358 -2 q 97 218 153 113 q 42 465 42 323 q 104 734 42 619 q 282 913 166 849 q 558 976 397 976 q 658 964 620 976 q 718 940 695 952 q 757 927 741 927 q 787 935 773 927 q 816 953 801 943 q 847 971 831 963 q 882 979 863 979 q 917 967 904 979 q 930 931 930 956 l 930 665 q 919 626 930 642 q 885 610 909 610 q 836 628 853 610 q 808 681 818 647 q 760 805 792 756 q 678 878 727 854 q 564 902 629 902 z "},"₣":{"ha":887,"x_min":49,"x_max":865,"o":"m 49 331 q 57 352 49 344 q 78 361 66 361 l 700 361 q 723 352 714 361 q 731 331 731 344 q 700 301 731 301 l 76 301 q 49 331 49 301 m 594 972 q 649 978 626 972 q 690 989 672 983 q 726 994 708 994 q 775 977 760 994 q 804 922 791 960 l 858 724 q 852 689 865 703 q 815 670 838 674 q 779 674 797 667 q 749 704 761 680 q 685 809 717 773 q 615 859 652 846 q 533 873 578 873 l 465 873 l 465 154 q 475 124 465 134 q 502 108 485 114 l 551 94 q 588 47 588 82 q 573 13 588 26 q 528 0 558 0 l 122 0 q 76 13 91 0 q 62 47 62 26 q 98 99 62 81 l 125 108 q 150 124 141 115 q 160 154 160 134 l 160 818 q 150 848 160 838 q 125 864 141 858 l 98 874 q 62 925 62 891 q 76 960 62 947 q 122 972 91 972 l 594 972 m 332 469 l 332 562 l 697 562 q 743 517 743 562 q 733 480 743 490 q 701 469 722 469 l 332 469 z "},"₭":{"ha":1157,"x_min":49,"x_max":1110,"o":"m 49 483 q 58 507 49 497 q 77 517 66 517 l 242 517 l 247 449 l 76 448 q 49 483 49 448 m 601 458 l 599 526 l 1003 526 q 1031 492 1031 526 q 1022 467 1031 477 q 1002 458 1014 458 l 601 458 m 465 154 q 472 121 465 131 q 496 103 478 111 l 513 98 q 548 47 548 81 q 533 13 548 26 q 488 0 519 0 l 122 0 q 76 13 91 0 q 62 47 62 26 q 98 99 62 81 l 125 108 q 150 124 141 115 q 160 154 160 134 l 160 818 q 150 848 160 838 q 125 864 141 858 l 98 874 q 62 925 62 891 q 76 960 62 947 q 122 972 91 972 l 503 972 q 549 960 534 972 q 563 925 563 947 q 527 874 563 891 l 500 864 q 475 848 485 858 q 465 818 465 838 l 465 154 m 440 466 l 708 728 q 749 789 740 761 q 749 836 758 816 q 715 866 740 856 l 695 875 q 660 925 660 891 q 674 960 660 947 q 719 972 689 972 l 1016 972 q 1061 960 1047 972 q 1075 925 1075 947 q 1060 894 1075 906 q 1018 870 1045 882 q 990 853 1004 863 q 958 827 976 844 q 914 785 940 811 q 849 719 888 759 l 613 493 l 733 497 l 1019 157 q 1050 119 1040 131 q 1074 103 1061 108 q 1102 79 1094 93 q 1110 47 1110 65 q 1095 13 1110 26 q 1050 0 1081 0 l 694 0 q 649 13 663 0 q 634 48 634 26 q 642 77 634 66 q 664 96 651 89 l 682 103 q 696 124 694 109 q 677 163 698 138 l 440 466 z "},"₦":{"ha":1112,"x_min":47,"x_max":1061,"o":"m 885 320 l 883 379 l 1031 379 q 1053 370 1044 379 q 1061 349 1061 362 q 1053 328 1061 336 q 1031 320 1044 320 l 885 320 m 576 320 l 74 320 q 47 349 47 320 q 55 370 47 362 q 75 379 63 379 l 548 379 l 576 320 m 226 645 l 228 586 l 77 586 q 56 594 64 586 q 47 615 47 603 q 56 637 47 629 q 77 645 64 645 l 226 645 m 587 586 l 558 645 l 1034 645 q 1061 615 1061 645 q 1053 594 1061 603 q 1033 586 1044 586 l 587 586 m 401 47 q 387 13 401 26 q 342 0 372 0 l 126 0 q 81 13 96 0 q 67 47 67 26 q 107 101 67 81 l 122 108 q 164 140 149 119 q 178 200 178 160 l 178 718 q 172 762 178 748 q 151 794 166 776 l 97 872 q 72 901 82 889 q 63 931 63 913 q 77 961 63 949 q 115 972 92 972 l 344 972 q 386 968 369 972 q 425 937 404 963 l 846 283 l 818 174 l 818 772 q 803 833 818 813 q 761 865 788 853 l 747 872 q 706 925 706 892 q 720 960 706 947 q 765 972 735 972 l 981 972 q 1026 960 1012 972 q 1040 925 1040 947 q 1031 894 1040 906 q 1000 872 1022 882 l 985 865 q 943 833 958 853 q 928 772 928 813 l 928 256 q 934 206 928 228 q 950 167 939 185 l 982 108 q 1002 72 997 84 q 1007 47 1007 60 q 992 13 1007 26 q 953 0 978 0 l 717 0 q 672 39 672 0 q 663 64 672 51 q 633 101 653 76 l 226 739 l 290 801 l 290 199 q 304 139 290 159 q 346 108 319 119 l 361 101 q 401 47 401 81 z "},"₽":{"ha":1019,"x_min":53,"x_max":965,"o":"m 53 274 q 63 295 53 287 q 89 303 74 303 l 610 303 q 636 295 626 303 q 647 274 647 287 q 636 251 647 259 q 610 242 626 242 l 88 242 q 63 251 73 242 q 53 274 53 259 m 54 433 q 65 455 54 447 q 90 463 75 463 l 215 463 l 223 402 l 89 402 q 64 410 74 402 q 54 433 54 419 m 502 896 l 485 896 l 485 155 q 495 124 485 134 q 522 108 505 115 l 563 94 q 599 47 599 81 q 584 13 599 26 q 539 0 569 0 l 132 0 q 87 13 101 0 q 72 48 72 26 q 108 99 72 81 l 136 108 q 161 125 152 115 q 170 154 170 135 l 170 817 q 161 847 170 837 q 136 864 152 858 l 108 874 q 72 924 72 890 q 87 959 72 947 q 132 972 101 972 l 512 972 q 763 932 663 972 q 915 820 864 892 q 965 656 965 749 q 926 520 965 577 q 805 432 887 463 q 592 401 722 401 l 350 401 l 365 463 l 525 463 q 606 486 570 463 q 664 554 642 509 q 685 664 685 599 q 662 788 685 735 q 598 868 639 840 q 502 896 557 896 z "},"₱":{"ha":1164,"x_min":66,"x_max":1104,"o":"m 66 708 q 75 730 66 721 q 96 738 83 739 l 326 729 l 858 729 l 1073 738 q 1095 730 1087 739 q 1104 708 1104 721 q 1095 686 1104 694 q 1073 678 1087 678 l 859 687 l 328 687 l 94 678 q 73 686 81 678 q 66 708 66 694 m 1001 597 q 956 430 1001 501 q 826 321 910 360 q 624 283 742 283 q 477 301 542 283 q 361 351 413 319 l 372 416 q 422 388 399 400 q 470 369 444 376 q 533 363 497 363 q 625 389 583 363 q 691 469 666 415 q 716 604 716 523 q 688 757 716 693 q 612 856 660 822 q 501 891 564 891 l 485 891 l 485 155 q 495 124 485 134 q 522 108 504 115 l 563 94 q 598 47 598 82 q 583 13 598 26 q 538 0 569 0 l 142 0 q 97 13 111 0 q 82 48 82 26 q 117 99 82 81 l 146 108 q 170 125 161 115 q 180 154 180 135 l 180 817 q 170 847 180 837 q 146 864 161 858 l 117 874 q 82 924 82 890 q 97 959 82 947 q 142 972 111 972 l 512 972 q 778 924 669 972 q 944 791 887 876 q 1001 597 1001 706 m 66 535 q 75 558 66 549 q 96 566 83 567 l 329 557 l 862 557 l 1073 566 q 1095 558 1087 567 q 1104 535 1104 549 q 1095 514 1104 522 q 1073 506 1087 505 l 862 515 l 329 515 l 94 506 q 73 514 81 505 q 66 535 66 522 z "},"₹":{"ha":863,"x_min":61,"x_max":834,"o":"m 165 912 l 173 972 l 234 972 q 467 935 365 972 q 629 832 570 899 q 688 676 688 765 q 652 549 688 605 q 551 461 617 493 q 399 428 486 428 l 426 459 l 713 93 q 734 66 726 79 q 742 37 742 53 q 696 0 742 0 l 451 0 q 400 13 420 0 q 360 46 379 26 l 117 373 q 88 410 97 395 q 79 444 79 424 q 93 474 79 460 q 128 488 108 488 q 171 486 150 488 q 212 483 192 483 q 323 535 282 483 q 363 681 363 588 q 341 802 363 750 q 282 883 319 853 q 194 912 244 912 l 165 912 m 61 942 q 70 964 61 955 q 91 972 78 972 l 803 972 q 825 964 817 972 q 834 942 834 955 q 803 912 834 912 l 90 912 q 61 942 61 912 m 61 716 q 70 737 61 728 q 91 746 78 746 l 798 746 q 820 737 812 746 q 829 716 829 728 q 820 694 829 702 q 798 685 812 685 l 90 685 q 61 716 61 685 z "},"₺":{"ha":1026,"x_min":50,"x_max":1007,"o":"m 538 86 q 608 107 576 86 q 666 169 641 127 q 704 277 690 212 q 718 431 718 342 q 730 465 718 453 q 760 478 742 478 l 969 478 q 996 467 985 478 q 1007 433 1007 457 q 969 255 1007 335 q 865 119 932 176 q 708 31 797 62 q 516 0 619 0 l 249 0 q 205 16 218 0 q 192 60 192 32 l 192 924 q 207 959 192 946 q 244 973 221 973 l 456 973 q 491 959 481 973 q 502 923 502 944 l 502 124 q 538 86 502 86 m 56 479 q 54 503 50 491 q 72 520 58 515 l 702 881 q 729 884 716 888 q 749 869 742 881 q 751 847 756 858 q 733 829 747 835 l 100 468 q 75 464 86 461 q 56 479 63 467 m 67 276 q 66 299 61 287 q 83 317 70 310 l 713 676 q 740 680 727 683 q 760 666 753 677 q 744 625 774 640 l 112 264 q 86 260 98 258 q 67 276 75 263 z "},"₩":{"ha":1441,"x_min":53,"x_max":1421,"o":"m 1103 925 q 1117 960 1103 947 q 1162 972 1132 972 l 1361 972 q 1406 960 1392 972 q 1421 925 1421 947 q 1385 879 1421 896 l 1366 869 q 1322 833 1340 857 q 1292 764 1303 810 l 1135 60 q 1063 0 1119 0 l 939 0 q 888 14 907 0 q 863 50 869 27 l 719 712 l 749 714 l 582 58 q 556 17 574 33 q 508 0 538 0 l 395 0 q 347 15 367 0 q 318 60 327 30 l 151 813 q 134 848 144 837 q 106 868 124 859 l 81 878 q 53 926 53 892 q 67 960 53 947 q 111 972 81 972 l 460 972 q 505 960 490 972 q 519 926 519 947 q 488 882 519 895 l 464 874 q 445 849 447 867 q 449 800 443 831 l 544 274 l 538 274 l 698 915 q 720 959 706 946 q 758 973 734 973 l 862 973 q 903 957 886 973 q 931 903 920 940 l 1087 230 l 1080 230 l 1186 778 q 1185 836 1193 812 q 1148 874 1178 861 l 1131 882 q 1110 899 1118 889 q 1103 925 1103 910 m 282 645 l 301 585 l 94 585 q 72 593 81 585 q 64 615 64 602 q 72 637 64 629 q 94 645 81 645 l 282 645 m 664 654 l 651 594 l 361 594 l 347 654 l 664 654 m 1395 624 q 1387 602 1395 611 q 1367 594 1378 594 l 923 594 l 899 654 l 1368 654 q 1395 624 1395 654 m 306 380 l 320 320 l 126 320 q 105 328 113 320 q 97 350 97 337 q 126 380 97 380 l 306 380 m 1356 350 q 1347 328 1356 337 q 1326 320 1338 320 l 1124 320 l 1133 380 l 1328 380 q 1356 350 1356 380 m 839 363 l 869 303 l 595 303 l 619 363 l 839 363 z "},"₼":{"ha":1169,"x_min":74,"x_max":1094,"o":"m 585 949 q 855 864 741 949 q 1032 611 969 779 q 1094 192 1094 443 l 1094 41 q 1083 12 1094 24 q 1055 0 1072 0 l 842 0 q 801 10 813 0 q 790 42 790 20 l 790 281 q 766 628 790 500 q 694 813 741 757 q 581 869 647 869 q 468 813 513 869 q 401 628 423 757 q 378 281 378 500 l 378 44 q 326 0 378 0 l 115 0 q 83 14 92 0 q 74 44 74 28 l 74 192 q 208 759 74 568 q 585 949 342 949 m 583 107 q 559 116 569 107 q 550 137 550 124 l 550 1076 q 559 1100 550 1091 q 583 1108 569 1108 q 607 1100 598 1108 q 615 1076 615 1091 l 615 135 q 583 107 615 107 z "},"₧":{"ha":1406,"x_min":57,"x_max":1375,"o":"m 890 613 q 852 451 890 519 q 743 344 814 382 q 574 306 673 306 q 433 323 495 306 q 322 369 371 340 l 332 449 q 400 413 369 427 q 483 399 431 399 q 552 424 521 399 q 602 497 583 448 q 620 622 620 547 q 600 756 620 699 q 543 843 579 813 q 462 874 508 874 l 445 874 l 445 155 q 455 124 445 134 q 482 108 465 115 l 523 94 q 558 47 558 81 q 544 13 558 26 q 499 0 529 0 l 117 0 q 72 13 86 0 q 57 48 57 26 q 92 99 57 81 l 121 108 q 145 125 136 115 q 155 154 155 135 l 155 817 q 145 847 155 837 q 121 864 136 858 l 92 874 q 57 924 57 890 q 72 959 57 947 q 117 972 86 972 l 472 972 q 699 926 606 972 q 841 799 792 880 q 890 613 890 718 m 896 571 l 865 571 l 865 653 l 915 653 q 944 660 931 653 q 969 679 958 667 l 1074 783 q 1103 808 1088 799 q 1133 818 1119 818 q 1165 805 1153 818 q 1176 768 1176 792 l 1176 245 q 1194 169 1176 194 q 1246 144 1212 144 q 1288 157 1270 144 q 1319 185 1305 169 q 1347 213 1333 201 q 1365 206 1357 214 q 1372 183 1372 199 q 1338 79 1369 125 q 1253 6 1306 33 q 1132 -20 1200 -20 q 976 32 1029 -20 q 922 192 922 83 l 922 542 q 915 563 922 556 q 896 571 908 571 m 1083 557 l 1086 653 l 1329 653 q 1363 644 1351 653 q 1375 617 1375 635 q 1350 574 1375 592 q 1267 557 1325 557 l 1083 557 z "},"¢":{"ha":765,"x_min":34,"x_max":728,"o":"m 429 352 q 431 227 429 283 q 433 124 432 170 q 436 40 435 77 q 439 -28 438 2 q 440 -83 440 -58 q 430 -111 440 -101 q 403 -122 420 -122 q 379 -112 390 -122 q 369 -81 369 -102 q 370 -27 369 -57 q 373 39 371 2 q 376 123 374 76 q 378 226 377 169 q 379 352 379 283 q 378 466 379 415 q 375 559 376 517 q 372 635 374 601 q 370 696 371 669 q 369 744 369 723 q 379 773 369 763 q 407 783 390 783 q 431 773 421 783 q 440 742 440 763 q 439 694 440 721 q 436 634 438 667 q 433 559 435 601 q 430 466 431 517 q 429 352 429 415 m 728 477 q 695 388 728 423 q 608 352 663 352 q 519 390 550 352 q 489 493 489 428 l 489 533 q 466 588 489 568 q 406 607 444 607 q 347 585 374 607 q 303 520 319 563 q 286 411 286 476 q 312 275 286 330 q 383 193 338 221 q 483 165 428 165 q 574 185 538 165 q 644 242 610 206 q 668 258 660 253 q 684 262 676 263 q 703 253 696 261 q 710 227 710 245 q 667 112 707 163 q 557 31 626 61 q 395 1 487 1 q 210 40 292 1 q 81 148 128 78 q 34 317 34 219 q 81 502 34 421 q 215 629 128 583 q 417 676 301 676 q 585 649 515 676 q 691 578 654 623 q 728 477 728 533 z "},"₫":{"ha":960,"x_min":54,"x_max":928,"o":"m 89 -156 q 98 -130 89 -140 q 119 -120 106 -120 l 855 -120 q 879 -130 870 -120 q 888 -156 888 -140 q 879 -181 888 -172 q 855 -191 870 -191 l 118 -191 q 89 -156 89 -191 m 831 1031 l 831 146 q 835 108 831 119 q 849 90 840 97 l 864 83 q 885 66 878 76 q 892 41 892 56 q 878 11 892 22 q 842 0 865 0 l 649 0 q 580 24 610 0 q 551 81 551 49 l 541 124 l 541 939 q 557 991 541 971 q 601 1022 574 1012 l 701 1057 q 747 1071 730 1067 q 785 1075 765 1075 q 818 1063 806 1075 q 831 1031 831 1051 m 583 199 l 623 158 q 500 28 568 75 q 343 -18 432 -18 q 194 23 259 -18 q 91 138 128 64 q 54 312 54 213 q 100 509 54 425 q 224 641 145 594 q 403 688 303 688 q 541 658 484 688 q 638 563 597 627 l 574 500 q 525 561 552 544 q 467 578 499 578 q 407 554 433 578 q 367 479 381 531 q 352 342 352 427 q 367 209 352 260 q 408 135 382 158 q 467 113 435 113 q 531 133 502 113 q 583 199 560 154 m 363 868 q 372 894 363 884 q 393 904 381 904 l 896 904 q 919 894 910 904 q 928 868 928 884 q 919 842 928 851 q 896 832 910 832 l 392 832 q 363 868 363 832 z "},"ƒ":{"ha":740,"x_min":-56,"x_max":755,"o":"m 524 636 l 474 53 q 421 -178 462 -92 q 313 -302 380 -264 q 153 -340 246 -340 q -6 -294 44 -340 q -56 -183 -56 -249 q -25 -98 -56 -131 q 56 -65 6 -65 q 98 -72 79 -65 q 132 -91 117 -79 q 163 -125 150 -105 q 186 -169 176 -145 q 215 -226 201 -210 q 252 -243 230 -243 q 297 -219 279 -243 q 315 -161 315 -195 q 299 -112 315 -134 q 260 -68 283 -90 q 214 -24 237 -47 q 178 30 192 0 q 167 100 164 60 l 195 496 q 183 526 197 518 q 136 544 169 533 l 92 558 q 56 598 56 570 q 70 627 56 616 q 110 638 84 638 l 232 638 l 210 594 l 229 758 q 274 911 239 847 q 372 1012 308 976 q 533 1048 436 1048 q 698 1006 642 1048 q 755 897 755 963 q 722 811 755 838 q 635 783 690 783 q 592 794 613 783 q 553 824 571 804 q 532 854 541 837 q 515 892 522 872 q 485 949 503 931 q 445 966 467 966 q 408 948 422 966 q 394 899 394 930 q 415 836 394 865 q 462 776 435 806 q 508 713 489 747 q 524 636 527 679 m 465 541 l 473 638 l 643 638 q 684 626 670 638 q 699 588 699 615 q 680 554 699 567 q 634 541 660 541 l 465 541 z "},"⁒":{"ha":824,"x_min":106,"x_max":742,"o":"m 442 471 q 414 409 431 445 q 380 332 398 374 q 343 248 362 291 q 306 164 324 205 q 273 87 288 122 q 246 26 258 51 q 216 -4 234 3 q 176 -2 199 -11 q 147 25 152 8 q 152 64 141 42 q 181 122 163 88 q 218 195 198 156 q 261 277 239 235 q 305 359 283 319 q 344 436 326 400 q 374 499 362 472 q 403 563 387 526 q 436 643 419 600 q 472 731 453 686 q 507 818 490 776 q 539 895 524 860 q 564 954 553 931 q 593 984 576 976 q 633 981 611 991 q 663 955 657 972 q 657 915 668 938 q 628 855 645 890 q 591 778 611 819 q 550 694 572 738 q 509 610 529 651 q 472 533 489 569 q 442 471 454 497 m 604 20 q 535 40 566 20 q 485 92 503 59 q 467 163 467 124 q 485 233 467 201 q 535 284 503 265 q 604 303 566 303 q 675 284 643 303 q 724 233 706 265 q 742 163 742 201 q 724 92 742 124 q 675 40 706 59 q 604 20 643 20 m 243 681 q 174 701 205 681 q 124 753 142 720 q 106 824 106 785 q 124 894 106 862 q 174 945 142 926 q 243 965 205 965 q 314 945 282 965 q 363 894 345 926 q 381 824 381 862 q 363 753 381 785 q 314 701 345 720 q 243 681 282 681 z "},"%":{"ha":1214,"x_min":34,"x_max":1180,"o":"m 322 995 q 518 926 442 995 q 593 735 593 856 q 557 578 593 642 q 457 482 520 515 q 315 449 394 449 q 108 520 181 449 q 34 723 34 590 q 112 921 34 847 q 322 995 190 995 m 376 719 q 360 887 376 840 q 315 934 344 934 q 267 886 282 934 q 251 734 251 838 q 268 559 251 607 q 317 511 285 511 q 347 528 334 511 q 368 591 360 546 q 376 719 376 636 m 683 539 q 657 517 668 522 q 628 522 646 513 q 613 541 615 529 q 620 572 611 553 q 645 626 630 594 q 677 696 660 658 q 713 773 695 734 q 749 847 731 812 q 780 909 766 882 q 802 949 794 936 q 852 991 823 982 q 917 981 881 1000 q 956 934 951 962 q 941 874 962 906 q 915 836 933 860 q 873 780 897 812 q 823 714 849 749 q 770 647 797 680 q 722 585 744 613 q 683 539 699 558 m 533 438 q 560 460 548 455 q 588 456 572 465 q 604 436 603 448 q 595 404 605 424 q 571 350 585 383 q 539 280 556 318 q 503 202 521 242 q 467 128 485 163 q 436 66 450 92 q 414 26 422 39 q 364 -15 393 -6 q 299 -5 334 -24 q 260 41 266 13 q 276 101 254 69 q 302 139 284 115 q 343 196 319 164 q 394 262 367 228 q 446 330 420 297 q 495 391 472 363 q 533 438 517 419 m 908 521 q 1105 451 1029 521 q 1180 260 1180 382 q 1143 104 1180 167 q 1044 8 1107 40 q 901 -25 981 -25 q 694 45 768 -25 q 621 249 621 116 q 699 447 621 372 q 908 521 776 521 m 963 245 q 947 413 963 365 q 901 460 931 460 q 853 412 869 460 q 838 260 838 364 q 855 85 838 133 q 903 37 872 37 q 934 54 921 37 q 955 117 947 72 q 963 245 963 162 z "},"‰":{"ha":1537,"x_min":53,"x_max":1478,"o":"m 762 482 q 924 417 863 482 q 986 238 986 351 q 922 43 986 110 q 759 -24 857 -24 q 589 42 649 -24 q 528 230 528 107 q 592 413 528 344 q 762 482 656 482 m 806 227 q 793 380 806 335 q 758 424 781 424 q 723 378 735 424 q 710 238 710 333 q 723 79 710 124 q 760 34 736 34 q 792 75 778 34 q 806 227 806 115 m 288 995 q 449 930 388 995 q 511 751 511 865 q 447 557 511 624 q 285 490 383 490 q 114 555 174 490 q 53 744 53 621 q 117 927 53 858 q 288 995 181 995 m 331 740 q 318 894 331 850 q 284 938 306 938 q 248 892 260 938 q 235 751 235 847 q 248 593 235 638 q 285 548 261 548 q 317 588 303 548 q 331 740 331 628 m 1254 482 q 1417 417 1355 482 q 1478 238 1478 351 q 1414 43 1478 110 q 1251 -24 1349 -24 q 1081 42 1141 -24 q 1021 230 1021 107 q 1084 413 1021 344 q 1254 482 1148 482 m 1297 227 q 1285 380 1297 335 q 1251 424 1273 424 q 1215 378 1227 424 q 1202 238 1202 333 q 1215 79 1202 124 q 1252 34 1228 34 q 1284 75 1271 34 q 1297 227 1297 115 m 601 539 q 576 517 587 522 q 547 522 565 513 q 532 541 533 529 q 539 572 530 553 q 564 626 549 594 q 596 696 578 658 q 632 773 614 734 q 667 847 650 812 q 699 909 685 882 q 721 949 713 936 q 771 991 742 982 q 835 981 800 1000 q 875 934 869 962 q 860 874 881 906 q 833 836 851 860 q 792 780 815 812 q 742 714 768 749 q 689 647 715 680 q 640 585 663 613 q 601 539 617 558 m 451 438 q 478 460 467 455 q 507 456 490 465 q 523 436 522 448 q 514 404 524 424 q 490 350 504 383 q 457 280 475 318 q 422 202 440 242 q 386 128 403 163 q 355 66 369 92 q 333 26 341 39 q 282 -15 312 -6 q 218 -5 253 -24 q 179 41 185 13 q 194 101 173 69 q 220 139 203 115 q 262 196 238 164 q 313 262 286 228 q 365 330 339 297 q 414 391 391 363 q 451 438 436 419 z "},"°":{"ha":553,"x_min":60,"x_max":493,"o":"m 276 995 q 388 968 340 995 q 465 893 437 941 q 493 782 493 845 q 465 676 493 722 q 387 604 436 630 q 276 578 338 578 q 165 605 214 578 q 88 679 116 632 q 60 786 60 726 q 87 892 60 844 q 163 967 114 940 q 276 995 212 995 m 276 910 q 195 874 226 910 q 164 786 164 838 q 196 698 164 732 q 276 664 228 664 q 356 698 324 664 q 389 784 389 731 q 357 875 389 840 q 276 910 326 910 z "},"ª":{"ha":756,"x_min":56,"x_max":724,"o":"m 81 831 q 118 906 81 869 q 227 969 154 944 q 411 994 301 994 q 586 949 528 994 q 643 820 643 903 l 643 546 q 648 527 643 535 q 665 519 653 519 q 679 525 674 519 q 688 536 684 531 q 699 541 692 541 q 718 533 711 541 q 724 513 724 525 q 706 463 724 490 q 651 417 688 435 q 561 398 615 398 q 456 425 497 398 q 415 494 415 453 l 396 508 l 396 885 q 384 921 396 908 q 352 934 372 934 q 323 925 335 934 q 311 899 311 915 l 311 852 q 277 776 311 806 q 182 747 243 747 q 107 769 133 747 q 81 831 81 791 m 414 648 q 390 659 401 656 q 363 662 378 662 q 321 641 337 662 q 305 583 305 621 q 322 526 305 545 q 367 506 339 506 q 398 514 383 506 q 419 532 413 522 l 433 485 q 351 420 406 443 q 236 398 297 398 q 106 438 156 398 q 56 540 56 478 q 130 667 56 620 q 338 713 204 713 q 395 709 371 713 q 435 695 419 704 l 414 648 z "},"º":{"ha":748,"x_min":40,"x_max":708,"o":"m 379 993 q 552 955 478 993 q 667 849 626 917 q 708 691 708 781 q 665 539 708 606 q 546 434 622 472 q 369 395 469 395 q 197 433 271 395 q 81 539 122 471 q 40 697 40 607 q 83 847 40 780 q 202 954 126 915 q 379 993 278 993 m 421 481 q 450 512 440 485 q 460 590 460 540 q 444 710 459 640 q 409 828 428 783 q 370 893 390 874 q 329 908 349 913 q 300 877 311 904 q 291 801 290 851 q 306 678 292 752 q 341 561 322 606 q 380 496 360 515 q 421 481 401 476 z "},"§":{"ha":860,"x_min":85,"x_max":792,"o":"m 468 133 l 463 192 q 553 219 521 193 q 585 285 585 244 q 569 340 585 317 q 518 384 554 364 q 419 425 482 405 q 229 504 298 459 q 132 606 160 549 q 104 728 104 662 q 142 863 104 804 q 248 956 179 922 q 411 990 317 990 q 490 982 458 990 q 544 966 522 974 q 584 958 567 958 q 613 967 599 958 q 641 985 626 976 q 672 994 656 994 q 705 981 692 994 q 729 935 718 968 l 784 735 q 782 699 792 714 q 751 678 772 683 q 694 707 714 671 q 612 824 655 781 q 526 885 569 867 q 442 903 483 903 q 371 878 397 903 q 345 813 345 853 q 360 757 345 781 q 404 715 374 733 q 478 683 433 697 q 657 604 593 649 q 748 507 722 560 q 774 392 774 453 q 737 264 774 322 q 632 170 701 206 q 468 133 564 135 m 378 544 l 386 484 q 306 459 338 485 q 275 391 275 433 q 295 333 275 357 q 357 290 316 309 q 459 251 398 271 q 637 173 573 218 q 728 73 701 128 q 754 -44 754 19 q 715 -176 754 -117 q 605 -269 676 -235 q 435 -303 534 -303 q 366 -297 395 -303 q 317 -285 337 -291 q 285 -278 297 -278 q 248 -286 266 -278 q 215 -300 231 -293 q 186 -308 200 -308 q 153 -297 165 -308 q 136 -263 142 -287 l 95 -65 q 124 -19 86 -28 q 159 -20 142 -13 q 189 -46 175 -26 q 265 -151 228 -114 q 339 -204 302 -189 q 416 -219 376 -219 q 492 -194 463 -219 q 521 -128 521 -169 q 510 -77 521 -99 q 472 -38 499 -56 q 400 -7 446 -21 q 209 73 278 28 q 113 173 140 117 q 85 293 85 228 q 120 419 85 363 q 222 508 156 475 q 378 544 288 542 z "},"¶":{"ha":1039,"x_min":18,"x_max":993,"o":"m 709 176 l 709 796 q 696 839 709 822 q 651 856 683 856 q 607 837 620 856 q 593 796 593 819 l 593 176 q 607 135 593 153 q 651 117 620 117 q 696 134 683 117 q 709 176 709 151 m 933 0 l 333 0 q 301 11 314 0 q 288 41 288 22 q 300 79 288 65 q 331 99 313 94 l 373 112 q 409 131 397 119 q 420 158 420 142 l 420 383 q 379 376 399 379 q 338 372 359 372 q 104 449 190 372 q 18 656 18 526 q 61 822 18 751 q 182 933 104 893 q 364 972 260 972 l 938 972 q 975 961 958 972 q 992 926 992 949 q 983 896 992 908 q 960 877 974 884 l 924 861 q 893 839 903 852 q 882 805 882 825 l 882 167 q 891 133 882 147 q 919 112 899 119 l 956 99 q 983 82 973 93 q 993 50 993 70 q 973 12 993 24 q 933 0 953 0 z "},"µ":{"ha":940,"x_min":-2,"x_max":920,"o":"m 90 213 l 133 213 q 150 63 133 126 q 190 -50 167 -1 q 229 -138 212 -99 q 247 -213 247 -177 q 211 -298 247 -265 q 124 -331 175 -331 q 34 -297 69 -331 q -2 -203 -2 -262 q 12 -131 -2 -172 q 44 -39 26 -90 q 76 74 62 12 q 90 213 90 137 m 555 214 l 597 169 l 565 140 q 403 19 473 56 q 275 -18 333 -18 q 141 37 192 -18 q 89 189 89 92 l 89 554 q 105 605 89 585 q 149 634 122 624 l 249 669 q 295 684 278 679 q 333 688 313 688 q 366 675 354 688 q 378 643 378 663 l 378 245 q 395 179 378 201 q 445 157 413 157 q 488 164 467 157 q 530 190 509 172 l 555 214 m 731 -18 q 597 19 646 -18 q 544 131 547 57 l 535 147 l 535 553 q 551 604 535 584 q 595 634 567 624 l 695 669 q 741 684 724 679 q 780 688 759 688 q 812 675 800 688 q 824 643 824 663 l 824 158 q 831 136 824 144 q 851 127 838 127 q 867 133 861 127 q 878 145 874 139 q 890 151 883 151 q 912 142 904 151 q 920 120 920 133 q 899 59 920 91 q 835 5 878 27 q 731 -18 793 -18 z "},"⁰":{"ha":608,"x_min":24,"x_max":583,"o":"m 312 992 q 508 923 433 992 q 583 732 583 853 q 547 575 583 639 q 447 479 510 512 q 305 447 384 447 q 98 517 172 447 q 24 720 24 588 q 102 918 24 844 q 312 992 180 992 m 367 717 q 350 884 367 837 q 305 931 334 931 q 257 883 272 931 q 242 731 242 835 q 258 556 242 604 q 307 508 275 508 q 338 526 324 508 q 359 588 351 543 q 367 717 367 633 z "},"¹":{"ha":453,"x_min":37,"x_max":424,"o":"m 83 891 l 100 891 q 122 884 115 891 q 128 856 128 876 l 128 575 q 123 552 128 560 q 105 541 117 544 l 68 531 q 37 501 37 525 q 78 472 37 472 l 384 472 q 424 501 424 472 q 394 531 424 524 l 361 541 q 346 552 351 544 q 340 575 340 560 l 340 966 q 301 999 340 999 q 283 997 292 999 q 261 990 274 995 q 203 966 235 975 q 117 957 171 957 l 87 957 q 55 948 67 957 q 44 924 44 938 q 53 900 44 909 q 83 891 63 891 z "},"²":{"ha":556,"x_min":28,"x_max":529,"o":"m 124 594 l 85 615 l 163 650 q 241 698 212 672 q 284 758 271 724 q 297 840 297 793 q 289 929 297 904 q 260 954 281 954 q 232 939 239 954 q 224 896 224 923 l 224 848 q 198 788 224 810 q 129 765 172 765 q 62 787 87 765 q 37 849 37 809 q 95 950 37 905 q 277 996 153 996 q 450 953 394 996 q 506 842 506 910 q 485 774 506 805 q 421 715 465 742 q 304 661 377 688 l 124 594 m 28 533 q 75 610 28 585 q 217 636 121 636 q 285 631 252 636 q 347 620 317 626 q 401 615 376 615 q 436 624 422 615 q 459 657 451 633 q 473 673 463 669 q 492 677 482 678 q 524 634 529 676 q 479 495 517 538 q 378 453 441 453 q 294 474 326 453 q 240 540 263 494 q 226 565 230 557 q 215 573 222 573 q 204 563 208 573 q 200 533 200 553 q 177 473 199 492 q 113 453 156 453 q 51 475 74 453 q 28 533 28 497 z "},"³":{"ha":514,"x_min":31,"x_max":499,"o":"m 257 724 l 240 737 q 270 743 253 741 q 308 746 286 746 q 441 708 389 746 q 494 606 494 671 q 428 489 494 532 q 249 445 363 445 q 85 481 140 445 q 31 570 31 517 q 59 631 31 607 q 128 656 88 656 q 194 634 171 656 q 217 577 217 612 l 217 534 q 226 502 217 516 q 251 489 235 489 q 282 511 272 489 q 292 586 292 533 q 277 663 292 640 q 242 685 263 685 l 211 685 q 184 693 195 685 q 173 715 173 700 q 178 735 173 726 q 196 753 184 744 l 363 880 l 369 829 l 178 829 q 136 804 143 829 l 129 778 q 117 759 126 767 q 90 752 108 752 q 62 760 73 752 q 53 785 51 768 l 67 935 q 83 962 69 952 q 121 972 97 972 l 455 972 q 488 963 476 972 q 499 939 499 953 q 490 918 499 928 q 459 894 480 908 l 257 724 z "},"⁴":{"ha":593,"x_min":24,"x_max":557,"o":"m 265 655 q 269 675 265 667 q 282 690 274 683 l 407 797 q 428 810 420 806 q 445 813 437 813 q 469 789 469 813 l 470 558 q 476 535 470 542 q 491 524 481 528 l 517 515 q 540 503 531 510 q 548 485 548 496 q 507 456 548 456 l 220 456 q 179 485 179 456 q 210 515 179 507 l 242 524 q 259 535 253 527 q 265 558 265 542 l 265 655 m 158 740 q 193 774 182 758 q 204 806 204 791 q 193 839 204 824 q 172 871 183 854 q 161 912 161 888 q 192 976 161 950 q 287 1002 224 1002 q 370 979 339 1002 q 402 917 402 956 q 386 861 402 891 q 310 783 369 831 l 94 611 l 81 635 l 518 635 q 547 629 536 635 q 557 609 557 623 q 518 579 557 579 l 64 579 q 34 588 44 579 q 24 612 24 597 q 29 631 24 620 q 52 652 35 641 l 158 740 z "},"⁄":{"ha":706,"x_min":-1,"x_max":707,"o":"m 428 539 q 402 517 413 522 q 374 522 391 513 q 358 541 360 529 q 365 572 356 553 q 390 626 375 594 q 423 696 405 658 q 458 773 440 734 q 494 847 476 812 q 525 909 511 882 q 547 949 539 936 q 597 991 568 982 q 662 981 626 1000 q 701 934 696 962 q 686 874 707 906 q 660 836 678 860 q 618 780 642 812 q 568 714 594 749 q 516 647 542 680 q 467 585 490 613 q 428 539 444 558 m 278 438 q 305 460 293 455 q 333 456 317 465 q 349 436 348 448 q 340 404 350 424 q 316 350 331 383 q 284 280 301 318 q 248 202 266 242 q 213 128 230 163 q 181 66 195 92 q 159 26 167 39 q 109 -15 138 -6 q 44 -5 79 -24 q 5 41 11 13 q 21 101 -1 69 q 47 139 29 115 q 89 196 65 164 q 139 262 113 228 q 191 330 165 297 q 240 391 217 363 q 278 438 263 419 z "},"¼":{"ha":1148,"x_min":65,"x_max":1088,"o":"m 112 891 l 128 891 q 150 884 144 891 q 157 856 157 876 l 157 575 q 151 552 157 560 q 133 541 145 544 l 97 531 q 65 501 65 525 q 106 472 65 472 l 413 472 q 453 501 453 472 q 423 531 453 524 l 390 541 q 374 552 380 544 q 369 575 369 560 l 369 966 q 330 999 369 999 q 312 997 321 999 q 290 990 303 995 q 231 966 263 975 q 146 957 199 957 l 115 957 q 84 948 95 957 q 72 924 72 938 q 82 900 72 909 q 112 891 92 891 m 797 200 q 801 220 797 212 q 813 235 805 228 l 938 342 q 960 355 951 351 q 976 358 968 358 q 1000 334 1000 358 l 1001 103 q 1007 80 1001 88 q 1022 69 1013 73 l 1049 60 q 1071 48 1063 55 q 1079 30 1079 41 q 1038 1 1079 1 l 751 1 q 710 30 710 1 q 742 60 710 52 l 774 69 q 791 80 785 72 q 797 103 797 88 l 797 200 m 689 285 q 724 319 713 303 q 735 351 735 336 q 725 384 735 369 q 703 416 714 399 q 692 457 692 433 q 724 521 692 495 q 818 547 755 547 q 902 524 870 547 q 933 462 933 501 q 917 406 933 436 q 841 328 901 376 l 626 156 l 612 181 l 1049 181 q 1078 174 1067 181 q 1088 154 1088 168 q 1049 124 1088 124 l 595 124 q 565 133 576 124 q 555 157 555 142 q 560 176 555 165 q 583 197 566 186 l 689 285 m 619 536 q 593 514 604 519 q 565 519 582 510 q 549 538 551 526 q 556 569 547 550 q 581 623 566 591 q 614 693 596 656 q 649 770 631 731 q 685 844 667 809 q 716 906 702 879 q 738 947 730 933 q 788 988 759 979 q 853 978 817 997 q 892 931 887 959 q 877 871 898 903 q 851 833 869 858 q 809 777 833 809 q 759 711 785 746 q 707 644 733 677 q 658 583 681 610 q 619 536 635 555 m 469 435 q 496 457 484 452 q 524 453 508 462 q 540 433 539 445 q 531 401 541 421 q 507 348 522 380 q 475 277 492 315 q 439 200 457 239 q 403 125 421 160 q 372 63 386 90 q 350 23 358 36 q 300 -18 329 -9 q 235 -8 270 -26 q 196 38 202 10 q 212 99 190 66 q 238 136 220 112 q 280 193 256 161 q 330 259 303 225 q 382 327 356 294 q 431 389 408 360 q 469 435 453 417 z "},"½":{"ha":1181,"x_min":69,"x_max":1125,"o":"m 115 891 l 132 891 q 154 884 147 891 q 160 856 160 876 l 160 575 q 155 552 160 560 q 137 541 149 544 l 100 531 q 69 501 69 525 q 110 472 69 472 l 416 472 q 456 501 456 472 q 426 531 456 524 l 393 541 q 378 552 383 544 q 372 575 372 560 l 372 966 q 333 999 372 999 q 315 997 324 999 q 293 990 306 995 q 235 966 267 975 q 149 957 203 957 l 119 957 q 87 948 99 957 q 76 924 76 938 q 85 900 76 909 q 115 891 95 891 m 619 536 q 593 514 604 519 q 565 519 582 510 q 549 538 551 526 q 556 569 547 550 q 581 623 566 591 q 614 693 596 656 q 649 770 631 731 q 685 844 667 809 q 716 906 702 879 q 738 947 730 933 q 788 988 759 979 q 853 978 817 997 q 892 931 887 959 q 877 871 898 903 q 851 833 869 858 q 809 777 833 809 q 759 711 785 746 q 707 644 733 677 q 658 583 681 610 q 619 536 635 555 m 469 435 q 496 457 484 452 q 524 453 508 462 q 540 433 539 445 q 531 401 541 421 q 507 348 522 380 q 475 277 492 315 q 439 200 457 239 q 403 125 421 160 q 372 63 386 90 q 350 23 358 36 q 300 -18 329 -9 q 235 -8 270 -26 q 196 38 202 10 q 212 99 190 66 q 238 136 220 112 q 280 193 256 161 q 330 259 303 225 q 382 327 356 294 q 431 389 408 360 q 469 435 453 417 m 719 126 l 681 147 l 759 182 q 837 230 808 203 q 880 290 867 256 q 893 372 893 325 q 885 461 893 436 q 856 486 876 486 q 827 470 835 486 q 820 428 820 455 l 820 380 q 794 319 820 342 q 725 297 768 297 q 658 319 683 297 q 633 381 633 341 q 691 482 633 437 q 873 528 749 528 q 1046 485 990 528 q 1101 374 1101 442 q 1081 306 1101 337 q 1017 247 1061 274 q 900 193 973 219 l 719 126 m 624 65 q 670 142 624 117 q 813 168 717 168 q 881 163 848 168 q 943 152 913 158 q 997 147 972 147 q 1032 156 1017 147 q 1055 189 1047 165 q 1068 205 1059 201 q 1088 209 1078 210 q 1120 166 1125 208 q 1075 27 1113 69 q 974 -15 1037 -15 q 890 6 922 -15 q 836 72 859 26 q 822 97 826 89 q 811 105 817 105 q 800 95 803 105 q 796 65 796 85 q 773 5 794 24 q 709 -15 752 -15 q 647 7 670 -15 q 624 65 624 28 z "},"¾":{"ha":1204,"x_min":72,"x_max":1144,"o":"m 853 199 q 857 219 853 211 q 869 234 861 228 l 994 341 q 1016 354 1008 351 q 1033 358 1024 358 q 1056 333 1056 358 l 1058 102 q 1063 80 1058 87 q 1078 68 1069 72 l 1105 59 q 1127 47 1119 54 q 1135 29 1135 40 q 1094 0 1135 0 l 808 0 q 767 29 767 0 q 798 59 767 51 l 830 68 q 847 79 841 72 q 853 102 853 87 l 853 199 m 745 284 q 781 319 769 302 q 792 351 792 335 q 781 384 792 369 q 759 416 770 399 q 749 456 749 433 q 780 520 749 494 q 874 547 811 547 q 958 523 926 547 q 990 461 990 500 q 973 406 990 435 q 897 328 957 376 l 682 156 l 668 180 l 1106 180 q 1134 174 1124 180 q 1144 153 1144 167 q 1106 124 1144 124 l 651 124 q 622 133 632 124 q 611 156 611 142 q 617 175 611 165 q 640 197 622 185 l 745 284 m 679 536 q 653 514 665 519 q 625 519 642 510 q 609 538 611 526 q 617 569 608 550 q 641 623 626 591 q 674 693 656 656 q 710 770 692 731 q 745 844 728 809 q 776 906 763 879 q 799 947 790 933 q 849 988 819 979 q 913 978 878 997 q 953 931 947 959 q 938 871 958 903 q 911 833 929 858 q 869 777 893 809 q 819 711 846 746 q 767 644 793 677 q 718 583 741 610 q 679 536 695 555 m 529 435 q 556 457 544 452 q 585 453 568 462 q 600 433 599 445 q 592 401 601 421 q 567 348 582 380 q 535 277 553 315 q 499 200 517 239 q 464 125 481 160 q 433 63 447 90 q 410 23 419 36 q 360 -18 390 -9 q 296 -8 331 -26 q 257 38 263 10 q 272 99 251 66 q 298 136 281 112 q 340 193 316 161 q 390 259 364 225 q 443 327 417 294 q 491 389 469 360 q 529 435 514 417 m 298 724 l 281 737 q 311 743 294 741 q 349 746 327 746 q 482 708 430 746 q 535 606 535 671 q 469 489 535 532 q 290 445 403 445 q 126 481 181 445 q 72 570 72 517 q 100 631 72 607 q 169 656 128 656 q 235 634 212 656 q 258 577 258 612 l 258 534 q 267 502 258 516 q 292 489 276 489 q 323 511 313 489 q 333 586 333 533 q 318 663 333 640 q 283 685 303 685 l 252 685 q 225 693 236 685 q 214 715 214 700 q 219 735 214 726 q 237 753 225 744 l 403 880 l 410 829 l 219 829 q 177 804 184 829 l 170 778 q 158 759 167 767 q 131 752 149 752 q 103 760 114 752 q 94 785 92 768 l 108 935 q 124 962 110 952 q 162 972 138 972 l 496 972 q 528 963 517 972 q 540 939 540 953 q 531 918 540 928 q 500 894 521 908 l 298 724 z "},"´":{"ha":390,"x_min":38,"x_max":347,"o":"m 99 928 q 158 1022 124 988 q 248 1047 193 1055 q 322 1007 297 1042 q 341 933 347 972 q 309 862 335 891 q 230 807 282 833 l 107 735 q 75 730 92 729 q 49 740 59 731 q 40 764 38 751 q 50 790 42 776 l 99 928 z "},"˝":{"ha":594,"x_min":40,"x_max":554,"o":"m 72 919 q 114 1011 87 976 q 190 1046 140 1045 q 263 1018 236 1047 q 291 956 290 990 q 270 886 290 916 q 207 826 250 856 l 104 745 q 76 735 91 737 q 51 742 62 734 q 40 761 40 749 q 44 787 40 772 l 72 919 m 333 924 q 380 1013 351 980 q 457 1044 408 1045 q 528 1014 503 1043 q 553 949 554 984 q 529 881 551 910 q 462 824 507 852 l 356 748 q 328 739 343 740 q 303 747 313 738 q 293 767 292 756 q 300 792 294 778 l 333 924 z "},"`":{"ha":406,"x_min":37,"x_max":346,"o":"m 284 928 l 334 790 q 344 764 342 776 q 335 740 346 751 q 308 730 325 731 q 277 735 292 729 l 153 807 q 75 862 102 833 q 42 933 48 891 q 61 1007 37 972 q 136 1047 86 1042 q 225 1022 190 1055 q 284 928 260 988 z "},"ˆ":{"ha":572,"x_min":40,"x_max":525,"o":"m 351 897 l 215 897 l 443 738 q 483 725 463 724 q 514 735 502 725 q 525 759 524 744 q 509 793 525 774 l 372 973 q 332 1010 351 997 q 283 1024 312 1024 q 233 1010 253 1024 q 192 973 213 997 l 56 793 q 40 759 40 774 q 51 735 40 744 q 83 725 63 725 q 122 738 102 724 l 351 897 z "},"ˇ":{"ha":572,"x_min":40,"x_max":525,"o":"m 351 849 l 122 1007 q 83 1021 102 1022 q 51 1010 63 1021 q 40 986 40 1002 q 56 952 40 971 l 192 773 q 233 735 213 749 q 283 722 253 722 q 332 735 312 722 q 372 773 351 749 l 509 952 q 525 986 525 971 q 514 1010 524 1002 q 483 1021 502 1021 q 443 1007 463 1022 l 215 849 l 351 849 z "},"˘":{"ha":516,"x_min":38,"x_max":471,"o":"m 254 892 q 330 911 299 892 q 387 968 361 930 q 429 996 406 996 q 460 981 449 996 q 468 942 471 966 q 399 783 459 836 q 254 730 338 730 q 110 783 171 730 q 40 942 49 836 q 48 981 38 966 q 78 996 58 996 q 122 968 102 996 q 179 910 147 928 q 254 892 211 892 z "},"˜":{"ha":560,"x_min":40,"x_max":494,"o":"m 363 734 q 304 748 331 734 q 253 779 276 761 q 209 811 230 797 q 169 824 189 824 q 136 808 148 824 q 117 757 124 792 q 78 731 106 731 q 40 782 40 731 q 75 931 40 880 q 171 982 111 982 q 231 968 203 982 q 281 937 258 955 q 325 906 304 919 q 365 892 345 892 q 399 909 387 892 q 417 960 410 926 q 456 985 428 985 q 494 935 494 985 q 459 785 494 837 q 363 734 423 734 z "},"¯":{"ha":604,"x_min":40,"x_max":530,"o":"m 40 838 q 55 891 40 874 q 99 907 71 907 l 470 907 q 514 891 499 907 q 530 839 530 875 q 514 786 530 803 q 470 770 499 770 l 99 770 q 55 787 71 770 q 40 838 40 803 z "},"¨":{"ha":665,"x_min":40,"x_max":636,"o":"m 174 727 q 76 760 113 727 q 40 850 40 793 q 76 942 40 908 q 174 975 113 975 q 273 942 237 975 q 309 850 309 908 q 273 760 309 794 q 174 727 237 727 m 500 727 q 401 760 438 727 q 365 850 365 793 q 401 941 365 908 q 500 975 438 975 q 600 942 564 975 q 636 850 636 908 q 600 760 636 794 q 500 727 564 727 z "},"˙":{"ha":388,"x_min":40,"x_max":343,"o":"m 192 727 q 81 761 122 727 q 40 857 40 796 q 81 951 40 916 q 192 985 122 985 q 303 951 263 985 q 343 857 343 916 q 303 762 343 797 q 192 727 263 727 z "},"˚":{"ha":444,"x_min":40,"x_max":403,"o":"m 221 724 q 92 762 144 724 q 40 870 40 799 q 92 978 40 941 q 221 1015 144 1015 q 351 977 300 1015 q 403 870 403 939 q 351 763 403 801 q 221 724 300 724 m 222 952 q 180 932 197 952 q 163 870 163 911 q 180 809 163 830 q 222 788 197 788 q 264 810 249 788 q 280 870 280 831 q 264 932 280 911 q 222 952 249 952 z "},"¸":{"ha":450,"x_min":40,"x_max":388,"o":"m 185 10 l 255 10 l 200 -97 l 151 -86 q 187 -80 167 -82 q 236 -78 206 -78 q 349 -108 310 -78 q 388 -191 388 -137 q 341 -283 388 -249 q 205 -317 294 -317 q 88 -294 131 -317 q 40 -242 45 -272 q 49 -217 40 -226 q 72 -207 58 -207 q 92 -210 83 -206 q 112 -220 101 -215 q 143 -240 128 -233 q 175 -246 158 -246 q 222 -188 222 -246 q 208 -150 222 -163 q 166 -137 194 -137 l 148 -137 q 125 -126 130 -137 q 128 -100 120 -115 l 185 10 z "},"˛":{"ha":428,"x_min":40,"x_max":425,"o":"m 339 40 l 358 3 q 275 -65 301 -29 q 248 -151 248 -101 q 263 -208 248 -190 q 302 -226 278 -226 q 332 -217 318 -226 q 360 -195 347 -209 q 378 -182 369 -186 q 399 -181 388 -178 q 418 -198 410 -185 q 414 -234 425 -212 q 345 -301 394 -274 q 224 -328 295 -328 q 87 -292 134 -328 q 40 -190 40 -256 q 69 -100 40 -140 q 164 -26 98 -60 q 339 40 230 8 z "},"́":{"ha":382,"x_min":38,"x_max":347,"o":"m 99 928 q 158 1022 124 988 q 248 1047 193 1055 q 322 1007 297 1042 q 341 933 347 972 q 309 862 335 891 q 230 807 282 833 l 107 735 q 75 730 92 729 q 49 740 59 731 q 40 764 38 751 q 50 790 42 776 l 99 928 z "},"̋":{"ha":593,"x_min":40,"x_max":554,"o":"m 72 919 q 114 1011 87 976 q 190 1046 140 1045 q 263 1018 236 1047 q 291 956 290 990 q 270 886 290 916 q 207 826 250 856 l 104 745 q 76 735 91 737 q 51 742 62 734 q 40 761 40 749 q 44 787 40 772 l 72 919 m 333 924 q 380 1013 351 980 q 457 1044 408 1045 q 528 1014 503 1043 q 553 949 554 984 q 529 881 551 910 q 462 824 507 852 l 356 748 q 328 739 343 740 q 303 747 313 738 q 293 767 292 756 q 300 792 294 778 l 333 924 z "},"̀":{"ha":388,"x_min":37,"x_max":346,"o":"m 284 928 l 334 790 q 344 764 342 776 q 335 740 346 751 q 308 730 325 731 q 277 735 292 729 l 153 807 q 75 862 102 833 q 42 933 48 891 q 61 1007 37 972 q 136 1047 86 1042 q 225 1022 190 1055 q 284 928 260 988 z "},"̏":{"ha":599,"x_min":40,"x_max":554,"o":"m 260 924 l 294 792 q 300 767 299 778 q 290 747 301 756 q 266 739 281 738 q 238 748 251 740 l 132 824 q 65 881 87 852 q 41 949 42 910 q 65 1014 40 984 q 137 1044 91 1043 q 215 1013 186 1045 q 260 924 243 980 m 521 919 l 550 787 q 554 761 554 772 q 542 742 554 749 q 518 735 533 734 q 490 745 503 737 l 387 826 q 324 886 344 856 q 303 956 303 916 q 331 1018 303 990 q 403 1046 358 1047 q 480 1011 453 1045 q 521 919 507 976 z "},"̕":{"ha":299,"x_min":40,"x_max":265,"o":"m 51 940 q 76 1035 55 997 q 144 1081 97 1074 q 221 1066 190 1090 q 258 1008 252 1042 q 249 936 265 969 q 197 868 234 904 l 106 772 q 81 758 95 763 q 56 759 67 754 q 42 777 44 765 q 40 803 40 789 l 51 940 z "},"̂":{"ha":565,"x_min":40,"x_max":525,"o":"m 351 897 l 215 897 l 443 738 q 483 725 463 724 q 514 735 502 725 q 525 759 524 744 q 509 793 525 774 l 372 973 q 332 1010 351 997 q 283 1024 312 1024 q 233 1010 253 1024 q 192 973 213 997 l 56 793 q 40 759 40 774 q 51 735 40 744 q 83 725 63 725 q 122 738 102 724 l 351 897 z "},"̌":{"ha":565,"x_min":40,"x_max":525,"o":"m 351 849 l 122 1007 q 83 1021 102 1022 q 51 1010 63 1021 q 40 986 40 1002 q 56 952 40 971 l 192 773 q 233 735 213 749 q 283 722 253 722 q 332 735 312 722 q 372 773 351 749 l 509 952 q 525 986 525 971 q 514 1010 524 1002 q 483 1021 502 1021 q 443 1007 463 1022 l 215 849 l 351 849 z "},"̆":{"ha":508,"x_min":38,"x_max":471,"o":"m 254 892 q 330 911 299 892 q 387 968 361 930 q 429 996 406 996 q 460 981 449 996 q 468 942 471 966 q 399 783 459 836 q 254 730 338 730 q 110 783 171 730 q 40 942 49 836 q 48 981 38 966 q 78 996 58 996 q 122 968 102 996 q 179 910 147 928 q 254 892 211 892 z "},"̑":{"ha":508,"x_min":38,"x_max":471,"o":"m 254 838 q 179 820 211 838 q 122 762 147 803 q 78 734 102 734 q 48 749 58 734 q 40 788 38 765 q 110 947 49 894 q 254 1000 171 1000 q 399 947 338 1000 q 468 788 459 894 q 460 749 471 765 q 429 734 449 734 q 387 762 406 734 q 330 819 361 801 q 254 838 299 838 z "},"̃":{"ha":534,"x_min":40,"x_max":494,"o":"m 363 734 q 304 748 331 734 q 253 779 276 761 q 209 811 230 797 q 169 824 189 824 q 136 808 148 824 q 117 757 124 792 q 78 731 106 731 q 40 782 40 731 q 75 931 40 880 q 171 982 111 982 q 231 968 203 982 q 281 937 258 955 q 325 906 304 919 q 365 892 345 892 q 399 909 387 892 q 417 960 410 926 q 456 985 428 985 q 494 935 494 985 q 459 785 494 837 q 363 734 423 734 z "},"̄":{"ha":569,"x_min":40,"x_max":530,"o":"m 40 838 q 55 891 40 874 q 99 907 71 907 l 470 907 q 514 891 499 907 q 530 839 530 875 q 514 786 530 803 q 470 770 499 770 l 99 770 q 55 787 71 770 q 40 838 40 803 z "},"̈":{"ha":676,"x_min":40,"x_max":636,"o":"m 174 727 q 76 760 113 727 q 40 850 40 793 q 76 942 40 908 q 174 975 113 975 q 273 942 237 975 q 309 850 309 908 q 273 760 309 794 q 174 727 237 727 m 500 727 q 401 760 438 727 q 365 850 365 793 q 401 941 365 908 q 500 975 438 975 q 600 942 564 975 q 636 850 636 908 q 600 760 636 794 q 500 727 564 727 z "},"̇":{"ha":382,"x_min":40,"x_max":342,"o":"m 192 727 q 80 761 121 727 q 40 857 40 796 q 80 951 40 916 q 192 985 121 985 q 302 951 263 985 q 342 857 342 916 q 302 762 342 797 q 192 727 263 727 z "},"̒":{"ha":335,"x_min":40,"x_max":294,"o":"m 188 926 q 268 900 242 926 q 294 832 294 874 q 260 756 294 785 q 174 727 225 727 q 77 762 114 727 q 40 862 40 797 q 85 1005 40 949 q 235 1085 131 1062 q 271 1083 258 1090 q 288 1061 285 1076 q 284 1036 292 1047 q 256 1019 276 1024 q 186 997 212 1010 q 149 970 160 984 q 138 943 138 956 q 160 926 138 926 l 188 926 z "},"̛":{"ha":473,"x_min":40,"x_max":433,"o":"m 433 790 q 390 680 433 724 q 268 618 348 635 q 77 619 189 601 q 40 649 40 624 q 50 673 40 665 q 81 678 61 681 q 211 683 177 661 q 246 753 246 705 l 246 790 q 270 866 246 839 q 340 893 295 893 q 409 866 386 893 q 433 790 433 840 z "},"̦":{"ha":335,"x_min":40,"x_max":295,"o":"m 145 -248 q 66 -222 92 -248 q 40 -155 40 -195 q 75 -78 40 -108 q 163 -49 110 -49 q 259 -83 222 -49 q 295 -184 295 -118 q 250 -326 295 -270 q 99 -407 204 -383 q 64 -405 77 -412 q 47 -383 51 -397 q 51 -357 44 -369 q 80 -340 59 -345 q 150 -318 124 -331 q 186 -291 175 -306 q 197 -264 197 -276 q 175 -248 197 -248 l 145 -248 z "},"̧":{"ha":428,"x_min":40,"x_max":388,"o":"m 185 10 l 255 10 l 200 -97 l 151 -86 q 187 -80 167 -82 q 236 -78 206 -78 q 349 -108 310 -78 q 388 -191 388 -137 q 341 -283 388 -249 q 205 -317 294 -317 q 88 -294 131 -317 q 40 -242 45 -272 q 49 -217 40 -226 q 72 -207 58 -207 q 92 -210 83 -206 q 112 -220 101 -215 q 143 -240 128 -233 q 175 -246 158 -246 q 222 -188 222 -246 q 208 -150 222 -163 q 166 -137 194 -137 l 148 -137 q 125 -126 130 -137 q 128 -100 120 -115 l 185 10 z "},"̨":{"ha":460,"x_min":40,"x_max":425,"o":"m 339 40 l 358 3 q 275 -65 301 -29 q 248 -151 248 -101 q 263 -208 248 -190 q 302 -226 278 -226 q 332 -217 318 -226 q 360 -195 347 -209 q 378 -182 369 -186 q 399 -181 388 -178 q 418 -198 410 -185 q 414 -234 425 -212 q 345 -301 394 -274 q 224 -328 295 -328 q 87 -292 134 -328 q 40 -190 40 -256 q 69 -100 40 -140 q 164 -26 98 -60 q 339 40 230 8 z "},"̮":{"ha":508,"x_min":38,"x_max":471,"o":"m 254 -152 q 330 -133 299 -152 q 387 -76 361 -115 q 429 -49 406 -49 q 460 -64 449 -49 q 468 -103 471 -78 q 399 -261 459 -208 q 254 -314 338 -314 q 110 -261 171 -314 q 40 -103 49 -208 q 48 -64 38 -78 q 78 -49 58 -49 q 122 -76 103 -49 q 179 -134 147 -117 q 254 -152 211 -152 z "},"̱":{"ha":569,"x_min":40,"x_max":530,"o":"m 40 -167 q 55 -115 40 -131 q 99 -99 71 -99 l 470 -99 q 514 -115 499 -99 q 530 -167 530 -131 q 514 -218 530 -202 q 470 -235 499 -235 l 99 -235 q 55 -218 71 -235 q 40 -167 40 -202 z "},"̤":{"ha":676,"x_min":40,"x_max":636,"o":"m 174 -299 q 76 -266 113 -299 q 40 -175 40 -233 q 76 -84 40 -117 q 174 -51 113 -51 q 273 -84 237 -51 q 309 -175 309 -117 q 273 -266 309 -232 q 174 -299 237 -299 m 500 -299 q 401 -266 438 -299 q 365 -175 365 -233 q 401 -85 365 -118 q 500 -51 438 -51 q 600 -84 564 -51 q 636 -175 636 -117 q 600 -266 636 -232 q 500 -299 564 -299 z "},"Æ":{"ha":1447,"x_min":10,"x_max":1442,"o":"m 749 972 l 704 869 l 641 869 l 286 227 q 270 150 260 181 q 312 103 280 119 l 331 93 q 357 75 347 85 q 367 47 367 65 q 352 13 367 26 q 308 0 338 0 l 69 0 q 24 13 38 0 q 10 47 10 26 q 41 94 10 74 l 56 103 q 95 143 75 115 q 138 209 116 171 l 458 783 q 472 840 478 819 q 438 873 465 861 q 410 895 419 882 q 402 925 402 908 q 417 960 402 947 q 462 972 431 972 l 749 972 m 315 467 l 694 467 l 695 363 l 314 363 l 315 467 m 846 542 l 1028 542 q 1090 559 1072 542 q 1123 625 1108 576 q 1174 669 1135 669 q 1220 628 1210 669 l 1274 410 q 1247 347 1286 360 q 1182 367 1206 333 q 1141 416 1160 399 q 1100 439 1123 433 q 1042 445 1078 445 l 846 445 l 846 542 m 646 154 l 646 972 l 1131 972 q 1184 978 1163 972 q 1223 991 1205 985 q 1266 997 1242 997 q 1313 980 1297 997 q 1341 922 1329 962 l 1400 727 q 1400 685 1408 702 q 1371 661 1392 669 q 1326 661 1346 652 q 1294 694 1306 670 q 1238 784 1264 749 q 1184 838 1211 819 q 1128 865 1158 858 q 1062 873 1099 873 l 968 873 l 968 184 q 989 120 968 142 q 1050 99 1010 99 l 1083 99 q 1175 116 1135 99 q 1251 177 1215 132 q 1327 306 1287 222 q 1355 336 1338 328 q 1395 340 1373 344 q 1431 318 1419 335 q 1434 274 1442 300 l 1369 50 q 1342 -7 1358 12 q 1292 -25 1326 -25 q 1252 -19 1270 -25 q 1214 -6 1235 -12 q 1160 0 1192 0 l 608 0 q 563 13 577 0 q 548 47 548 26 q 584 99 548 85 l 610 108 q 637 126 628 115 q 646 154 646 137 z "},"Œ":{"ha":1489,"x_min":42,"x_max":1483,"o":"m 606 972 l 1173 972 q 1226 978 1205 972 q 1265 991 1247 985 q 1308 997 1283 997 q 1355 980 1339 997 q 1383 922 1371 962 l 1442 727 q 1442 685 1449 702 q 1413 661 1434 669 q 1368 661 1388 652 q 1335 694 1348 670 q 1279 784 1306 749 q 1226 838 1253 819 q 1170 865 1199 858 q 1103 873 1140 873 l 1010 873 l 1010 184 q 1031 120 1010 142 q 1092 99 1052 99 l 1124 99 q 1216 116 1176 99 q 1292 177 1256 132 q 1369 306 1328 222 q 1397 336 1379 328 q 1437 340 1415 344 q 1472 318 1461 335 q 1476 274 1483 300 l 1411 50 q 1384 -7 1400 12 q 1333 -25 1367 -25 q 1294 -19 1312 -25 q 1255 -6 1276 -12 q 1202 0 1234 0 l 609 0 q 300 54 426 0 q 108 214 174 108 q 42 473 42 319 q 112 738 42 626 q 309 911 182 849 q 606 972 435 972 m 418 489 q 450 263 418 349 q 532 139 481 177 q 642 100 583 100 l 688 100 l 688 873 l 640 873 q 524 830 574 873 q 446 702 474 787 q 418 489 418 617 m 888 542 l 1070 542 q 1116 549 1099 542 q 1144 574 1133 556 q 1165 625 1155 592 q 1215 669 1177 669 q 1262 628 1252 669 l 1316 410 q 1289 347 1328 360 q 1224 367 1248 333 q 1183 416 1201 399 q 1142 439 1165 433 q 1083 445 1119 445 l 888 445 l 888 542 z "},"Ə":{"ha":1041,"x_min":34,"x_max":1000,"o":"m 34 395 q 68 478 34 449 q 163 507 102 507 l 756 507 l 756 424 l 428 424 q 389 412 401 424 q 376 372 376 400 q 388 239 376 295 q 421 146 400 183 q 470 91 442 109 q 528 74 497 74 q 584 91 558 74 q 631 148 610 109 q 663 252 651 188 q 674 408 674 316 q 639 648 674 554 q 539 786 603 741 q 388 831 474 831 q 297 815 340 831 q 217 766 253 798 q 155 685 181 733 q 129 656 143 663 q 99 652 115 649 q 76 666 83 656 q 69 694 69 676 q 98 803 69 749 q 181 902 126 857 q 311 973 235 947 q 483 1000 388 1000 q 755 937 639 1000 q 936 761 872 874 q 1000 501 1000 649 q 966 286 1000 383 q 865 119 931 189 q 705 10 799 49 q 492 -28 611 -28 q 243 29 345 -28 q 88 182 141 86 q 34 395 34 278 z "},"Ŋ":{"ha":1058,"x_min":44,"x_max":1042,"o":"m 587 174 l 215 717 l 270 780 l 270 199 q 285 139 270 159 q 327 108 299 119 l 342 101 q 382 47 382 81 q 368 13 382 26 q 323 0 353 0 l 107 0 q 62 13 76 0 q 48 47 48 26 q 88 101 48 81 l 103 108 q 144 140 129 119 q 160 200 160 160 l 160 718 q 153 762 160 748 q 132 794 147 776 l 78 872 q 53 901 63 889 q 44 931 44 913 q 58 961 44 949 q 97 972 73 972 l 335 972 q 377 967 359 972 q 416 937 394 963 l 846 285 l 819 188 l 819 772 q 804 833 819 813 q 762 865 789 853 l 747 872 q 707 925 707 892 q 722 960 707 947 q 766 972 736 972 l 982 972 q 1027 960 1013 972 q 1042 925 1042 947 q 1001 872 1042 891 l 986 865 q 944 833 958 853 q 929 772 929 813 l 931 -87 q 869 -265 931 -207 q 704 -323 808 -323 q 567 -298 620 -323 q 488 -233 513 -274 q 463 -145 463 -192 q 495 -56 463 -86 q 583 -26 528 -26 q 671 -60 638 -26 q 703 -151 703 -95 l 703 -201 q 715 -239 703 -227 q 747 -251 726 -251 q 808 -222 785 -251 q 832 -136 832 -193 q 816 -59 832 -90 q 772 -2 799 -27 q 713 46 745 22 q 647 100 680 70 q 587 174 615 130 z "},"Þ":{"ha":1076,"x_min":62,"x_max":1038,"o":"m 353 697 l 353 781 l 632 781 q 842 746 751 781 q 985 645 933 711 q 1038 487 1038 580 q 986 333 1038 396 q 839 239 934 271 q 615 206 744 206 q 507 214 551 206 q 427 238 463 222 q 353 275 392 253 l 363 347 q 416 317 391 330 q 471 297 441 304 q 542 290 501 290 q 644 333 605 290 q 684 484 684 376 q 639 640 684 583 q 501 697 594 697 l 353 697 m 475 154 q 485 125 475 134 q 510 108 496 117 l 537 94 q 563 72 553 83 q 573 43 573 61 q 558 12 573 24 q 513 0 544 0 l 122 0 q 76 13 91 0 q 62 47 62 26 q 98 99 62 81 l 125 108 q 150 124 141 115 q 160 154 160 134 l 160 818 q 150 848 160 838 q 125 864 141 858 l 98 874 q 62 925 62 891 q 76 960 62 947 q 122 972 91 972 l 513 972 q 558 961 544 972 q 573 929 573 949 q 563 901 573 911 q 537 878 553 890 l 510 864 q 485 847 496 856 q 475 818 475 838 l 475 154 z "},"Ð":{"ha":1162,"x_min":37,"x_max":1122,"o":"m 37 489 q 48 514 37 504 q 74 524 58 524 l 572 524 q 598 514 588 524 q 609 489 609 504 q 598 462 609 472 q 572 453 588 453 l 72 453 q 47 462 57 453 q 37 489 37 472 m 62 47 q 98 99 62 85 l 124 108 q 151 126 142 115 q 160 154 160 137 l 160 818 q 151 846 160 835 q 124 864 142 857 l 98 874 q 62 925 62 888 q 76 960 62 947 q 122 972 91 972 l 553 972 q 785 934 681 972 q 965 826 890 896 q 1081 661 1040 756 q 1122 450 1122 565 q 1060 218 1122 320 q 885 58 998 117 q 620 0 773 0 l 122 0 q 76 13 91 0 q 62 47 62 26 m 579 99 q 686 135 638 99 q 762 250 734 172 q 790 453 790 328 q 772 631 790 553 q 718 763 753 708 q 631 845 682 817 q 516 873 581 873 l 482 873 l 482 176 q 502 118 482 136 q 561 99 523 99 l 579 99 z "},"Đ":{"ha":1162,"x_min":37,"x_max":1122,"o":"m 37 489 q 48 514 37 504 q 74 524 58 524 l 572 524 q 598 514 588 524 q 609 489 609 504 q 598 462 609 472 q 572 453 588 453 l 72 453 q 47 462 57 453 q 37 489 37 472 m 62 47 q 98 99 62 85 l 124 108 q 151 126 142 115 q 160 154 160 137 l 160 818 q 151 846 160 835 q 124 864 142 857 l 98 874 q 62 925 62 888 q 76 960 62 947 q 122 972 91 972 l 553 972 q 785 934 681 972 q 965 826 890 896 q 1081 661 1040 756 q 1122 450 1122 565 q 1060 218 1122 320 q 885 58 998 117 q 620 0 773 0 l 122 0 q 76 13 91 0 q 62 47 62 26 m 579 99 q 686 135 638 99 q 762 250 734 172 q 790 453 790 328 q 772 631 790 553 q 718 763 753 708 q 631 845 682 817 q 516 873 581 873 l 482 873 l 482 176 q 502 118 482 136 q 561 99 523 99 l 579 99 z "},"Ħ":{"ha":1253,"x_min":35,"x_max":1192,"o":"m 35 697 q 44 719 35 710 q 65 728 52 728 l 1146 728 q 1168 719 1160 728 q 1177 697 1177 710 q 1168 674 1177 683 q 1146 666 1160 666 l 63 666 q 35 697 35 666 m 294 512 l 883 512 l 883 408 l 294 408 l 294 512 m 482 154 q 491 126 482 137 q 517 108 500 115 l 544 99 q 580 47 580 85 q 565 13 580 26 q 520 0 551 0 l 122 0 q 76 13 91 0 q 62 47 62 26 q 98 99 62 85 l 124 108 q 151 126 142 115 q 160 154 160 137 l 160 818 q 151 846 160 835 q 124 864 142 857 l 98 874 q 62 925 62 888 q 76 960 62 947 q 122 972 91 972 l 520 972 q 565 960 551 972 q 580 925 580 947 q 544 874 580 888 l 517 864 q 491 846 500 857 q 482 818 482 835 l 482 154 m 1094 154 q 1103 126 1094 137 q 1129 108 1112 115 l 1156 99 q 1192 47 1192 85 q 1177 13 1192 26 q 1132 0 1163 0 l 733 0 q 688 13 703 0 q 674 47 674 26 q 710 99 674 85 l 736 108 q 763 126 754 115 q 772 154 772 137 l 772 818 q 763 846 772 835 q 736 864 754 857 l 710 874 q 674 925 674 888 q 688 960 674 947 q 733 972 703 972 l 1132 972 q 1177 960 1163 972 q 1192 925 1192 947 q 1156 874 1192 888 l 1129 864 q 1103 846 1112 857 q 1094 818 1094 835 l 1094 154 z "},"Ŧ":{"ha":1036,"x_min":27,"x_max":1010,"o":"m 197 465 q 207 490 197 480 q 233 499 217 499 l 776 499 q 803 490 792 499 q 814 465 814 480 q 803 438 814 447 q 776 428 792 428 l 232 428 q 206 438 216 428 q 197 465 197 447 m 285 972 l 751 972 q 805 978 783 972 q 846 989 828 983 q 882 994 864 994 q 933 977 916 994 q 960 922 949 961 l 1004 691 q 1000 646 1010 663 q 965 624 990 628 q 926 627 943 619 q 897 658 909 635 q 827 785 856 740 q 772 849 798 831 q 715 867 747 867 l 679 867 l 679 154 q 688 126 679 137 q 715 108 697 115 l 741 99 q 777 47 777 85 q 717 0 777 0 l 319 0 q 274 13 288 0 q 259 47 259 26 q 295 99 259 85 l 322 108 q 348 126 340 115 q 357 154 357 137 l 357 867 l 322 867 q 264 849 290 867 q 209 785 238 831 q 139 658 180 740 q 110 627 127 635 q 71 624 93 619 q 37 646 47 628 q 32 691 27 663 l 76 922 q 103 977 87 961 q 154 994 120 994 q 190 989 172 994 q 231 978 208 983 q 285 972 253 972 z "},"Ł":{"ha":926,"x_min":42,"x_max":915,"o":"m 49 348 q 48 372 42 360 q 68 390 53 384 l 583 654 q 611 657 597 661 q 631 642 625 653 q 632 617 638 628 q 612 598 626 605 l 96 334 q 68 331 81 327 q 49 348 56 335 m 544 874 l 517 864 q 491 846 500 857 q 482 818 482 835 l 482 151 q 496 111 482 122 q 535 99 510 99 l 589 99 q 653 110 626 99 q 705 148 681 120 q 755 231 729 176 l 801 328 q 831 360 813 352 q 872 361 849 368 q 906 338 896 354 q 908 295 915 322 l 838 50 q 810 -7 827 12 q 760 -25 794 -25 q 724 -19 742 -25 q 684 -6 706 -12 q 629 0 661 0 l 122 0 q 76 13 91 0 q 62 47 62 26 q 98 99 62 85 l 124 108 q 151 126 142 115 q 160 154 160 137 l 160 818 q 151 846 160 835 q 124 864 142 857 l 98 874 q 62 925 62 888 q 76 960 62 947 q 122 972 91 972 l 520 972 q 565 960 551 972 q 580 925 580 947 q 544 874 580 888 z "},"Ø":{"ha":1117,"x_min":42,"x_max":1075,"o":"m 156 -52 q 141 -33 143 -45 q 148 -10 139 -21 l 892 1014 q 913 1027 900 1025 q 938 1020 926 1028 q 953 1001 951 1012 q 948 979 956 990 l 202 -45 q 181 -59 193 -58 q 156 -52 168 -61 m 555 1000 q 773 963 676 1000 q 936 857 869 926 q 1039 693 1003 788 q 1075 480 1075 597 q 1040 281 1075 374 q 938 119 1004 189 q 776 11 871 50 q 563 -28 681 -28 q 345 9 442 -28 q 182 115 249 47 q 78 280 114 184 q 42 492 42 375 q 78 691 42 599 q 180 853 113 783 q 341 961 247 922 q 555 1000 436 1000 m 744 290 q 729 472 744 383 q 688 639 714 561 q 630 776 663 717 q 561 868 597 835 q 490 902 526 902 q 427 877 453 902 q 389 803 402 852 q 376 683 376 755 q 391 500 376 590 q 432 333 406 411 q 490 197 458 256 q 559 104 523 138 q 630 70 594 70 q 693 95 668 70 q 731 169 718 120 q 744 290 744 217 z "},"Ơ":{"ha":1117,"x_min":42,"x_max":1105,"o":"m 1105 1103 q 1052 972 1105 1025 q 903 902 1000 919 q 672 916 806 885 q 637 928 649 922 q 625 947 625 934 q 640 975 625 965 q 680 981 654 985 q 817 973 770 965 q 880 1008 863 981 q 897 1072 897 1034 l 897 1109 q 924 1192 897 1163 q 1002 1221 951 1221 q 1079 1190 1053 1221 q 1105 1103 1105 1159 m 555 1000 q 773 963 676 1000 q 936 857 869 926 q 1039 693 1003 788 q 1075 480 1075 597 q 1040 281 1075 374 q 938 119 1004 189 q 776 11 871 50 q 563 -28 681 -28 q 345 9 442 -28 q 182 115 249 47 q 78 280 114 184 q 42 492 42 375 q 78 691 42 599 q 180 853 113 783 q 341 961 247 922 q 555 1000 436 1000 m 744 290 q 729 472 744 383 q 688 639 714 561 q 630 776 663 717 q 561 868 597 835 q 490 902 526 902 q 427 877 453 902 q 389 803 402 852 q 376 683 376 755 q 391 500 376 590 q 432 333 406 411 q 490 197 458 256 q 559 104 523 138 q 630 70 594 70 q 693 95 668 70 q 731 169 718 120 q 744 290 744 217 z "},"Ư":{"ha":1097,"x_min":42,"x_max":1197,"o":"m 833 431 l 811 776 q 795 835 809 813 q 754 865 782 856 l 734 870 q 684 924 684 883 q 699 959 684 946 q 740 972 713 972 l 897 972 q 973 997 954 972 q 992 1072 992 1021 l 992 1109 q 1018 1192 992 1163 q 1094 1221 1045 1221 q 1172 1190 1146 1221 q 1197 1103 1197 1159 q 1180 1020 1197 1056 q 1120 954 1163 984 q 1002 893 1078 924 l 977 884 q 933 844 949 874 q 921 768 917 815 l 949 434 q 954 362 952 397 q 956 288 956 326 q 912 130 956 200 q 775 18 868 59 q 535 -23 683 -23 q 311 15 402 -23 q 174 122 220 52 q 127 288 127 191 q 129 338 127 307 q 134 399 131 368 q 138 451 136 431 l 160 817 q 152 848 161 838 q 120 864 143 859 l 93 870 q 42 924 42 882 q 57 959 42 946 q 99 972 72 972 l 532 972 q 574 959 559 972 q 588 924 588 946 q 575 890 588 903 q 538 871 562 878 l 509 864 q 484 849 492 860 q 474 818 476 838 l 451 444 q 448 366 449 402 q 447 306 447 330 q 496 141 447 191 q 631 90 545 90 q 743 115 697 90 q 814 184 789 139 q 839 292 839 229 q 837 372 839 341 q 833 431 835 403 z "},"ẞ":{"ha":1181,"x_min":62,"x_max":1164,"o":"m 397 0 l 122 0 q 76 13 91 0 q 62 47 62 26 q 70 78 62 65 q 98 99 78 92 l 124 108 q 151 126 142 115 q 160 154 160 137 l 160 818 q 151 846 160 835 q 124 864 142 857 l 98 874 q 70 894 78 881 q 62 925 62 907 q 76 960 62 947 q 122 972 91 972 l 1093 972 q 1146 959 1128 972 q 1164 918 1164 947 q 1156 883 1164 899 q 1124 838 1149 866 l 847 512 l 812 533 q 834 533 822 533 q 853 533 846 533 q 1017 497 948 533 q 1124 398 1087 461 q 1162 253 1162 335 q 1126 110 1162 172 q 1026 14 1090 48 q 878 -21 963 -21 q 816 -14 840 -21 q 775 2 792 -7 q 743 18 758 11 q 708 25 728 25 q 674 18 688 25 q 649 2 660 11 q 627 -14 638 -7 q 601 -21 615 -21 q 567 -7 578 -21 q 555 31 555 8 l 555 220 q 565 256 555 242 q 597 269 574 269 q 624 260 615 269 q 640 235 633 251 l 658 191 q 684 140 671 158 q 711 113 697 121 q 744 105 726 105 q 804 141 781 105 q 827 249 827 177 q 778 413 827 351 q 643 474 730 474 l 588 474 q 548 486 560 474 q 535 518 535 498 q 540 548 535 534 q 562 581 546 561 l 731 794 q 752 825 747 815 q 757 846 757 835 q 714 875 757 875 l 542 875 q 482 815 482 875 l 482 70 q 461 18 482 35 q 397 0 441 0 z "},"Ǆ":{"ha":2081,"x_min":62,"x_max":2052,"o":"m 62 47 q 98 99 62 85 l 124 108 q 151 126 142 115 q 160 154 160 137 l 160 818 q 151 846 160 835 q 124 864 142 857 l 98 874 q 62 925 62 888 q 76 960 62 947 q 122 972 91 972 l 553 972 q 785 934 681 972 q 965 826 890 896 q 1081 661 1040 756 q 1122 450 1122 565 q 1060 218 1122 320 q 885 58 998 117 q 620 0 773 0 l 122 0 q 76 13 91 0 q 62 47 62 26 m 579 99 q 686 135 638 99 q 762 250 734 172 q 790 453 790 328 q 772 631 790 553 q 718 763 753 708 q 631 845 682 817 q 516 873 581 873 l 482 873 l 482 176 q 502 118 482 136 q 561 99 523 99 l 579 99 z "},"Ĳ":{"ha":1478,"x_min":62,"x_max":1416,"o":"m 482 154 q 491 126 482 137 q 517 108 500 115 l 544 99 q 580 47 580 85 q 565 13 580 26 q 520 0 551 0 l 122 0 q 76 13 91 0 q 62 47 62 26 q 98 99 62 85 l 124 108 q 151 126 142 115 q 160 154 160 137 l 160 818 q 151 846 160 835 q 124 864 142 857 l 98 874 q 62 925 62 888 q 76 960 62 947 q 122 972 91 972 l 520 972 q 565 960 551 972 q 580 925 580 947 q 544 874 580 888 l 517 864 q 491 846 500 857 q 482 818 482 835 l 482 154 m 1377 196 q 1282 36 1377 97 q 1019 -25 1187 -25 q 768 34 858 -25 q 677 195 677 92 q 717 310 677 266 q 823 353 756 353 q 919 313 881 353 q 958 198 958 272 l 958 135 q 975 80 958 99 q 1029 60 993 60 q 1085 79 1065 60 q 1105 134 1105 99 q 1089 200 1105 169 q 1050 269 1072 232 q 1012 355 1028 306 q 996 472 996 403 l 996 818 q 988 848 996 836 q 960 864 980 860 l 919 873 q 887 890 897 878 q 877 925 877 902 q 892 960 877 947 q 937 972 906 972 l 1356 972 q 1401 960 1387 972 q 1416 925 1416 947 q 1380 874 1416 888 l 1353 864 q 1327 846 1336 857 q 1318 818 1318 835 l 1318 493 q 1327 399 1318 438 q 1348 329 1336 360 q 1368 267 1359 298 q 1377 196 1377 235 z "},"":{"ha":1478,"x_min":62,"x_max":1416,"o":"z "},"Ǉ":{"ha":1763,"x_min":62,"x_max":1701,"o":"m 544 874 l 517 864 q 491 846 500 857 q 482 818 482 835 l 482 151 q 496 111 482 122 q 535 99 510 99 l 589 99 q 653 110 626 99 q 705 148 681 120 q 755 231 729 176 l 801 328 q 831 360 813 352 q 872 361 849 368 q 906 338 896 354 q 908 295 915 322 l 838 50 q 810 -7 827 12 q 760 -25 794 -25 q 724 -19 742 -25 q 684 -6 706 -12 q 629 0 661 0 l 122 0 q 76 13 91 0 q 62 47 62 26 q 98 99 62 85 l 124 108 q 151 126 142 115 q 160 154 160 137 l 160 818 q 151 846 160 835 q 124 864 142 857 l 98 874 q 62 925 62 888 q 76 960 62 947 q 122 972 91 972 l 520 972 q 565 960 551 972 q 580 925 580 947 q 544 874 580 888 m 1662 196 q 1567 36 1662 97 q 1304 -25 1472 -25 q 1052 34 1143 -25 q 962 195 962 92 q 1001 310 962 266 q 1108 353 1041 353 q 1204 313 1166 353 q 1242 198 1242 272 l 1242 135 q 1260 80 1242 99 q 1314 60 1278 60 q 1369 79 1349 60 q 1390 134 1390 99 q 1373 200 1390 169 q 1335 269 1357 232 q 1297 355 1313 306 q 1281 472 1281 403 l 1281 818 q 1273 848 1281 836 q 1245 864 1265 860 l 1203 873 q 1172 890 1182 878 q 1162 925 1162 902 q 1176 960 1162 947 q 1222 972 1191 972 l 1641 972 q 1686 960 1672 972 q 1701 925 1701 947 q 1665 874 1701 888 l 1638 864 q 1612 846 1621 857 q 1603 818 1603 835 l 1603 493 q 1612 399 1603 438 q 1632 329 1621 360 q 1653 267 1644 298 q 1662 196 1662 235 z "},"Ǌ":{"ha":1916,"x_min":40,"x_max":1854,"o":"m 374 47 q 360 13 374 26 q 315 0 346 1 l 99 0 q 54 13 69 1 q 40 47 40 26 q 80 101 40 83 l 95 108 q 139 141 126 122 q 152 200 152 160 l 152 718 q 147 759 152 744 q 124 797 142 773 l 71 868 q 50 902 56 890 q 44 927 44 914 q 58 960 44 949 q 97 972 73 972 l 331 972 q 376 963 358 972 q 412 928 394 953 l 861 297 l 819 174 l 819 772 q 808 830 819 811 q 763 865 797 849 l 748 872 q 708 925 708 891 q 722 960 708 947 q 767 972 737 972 l 983 972 q 1028 960 1013 972 q 1042 925 1042 947 q 1002 872 1042 890 l 987 865 q 943 832 956 851 q 930 772 930 813 l 930 256 q 934 206 930 228 q 951 167 939 185 l 994 108 q 1016 73 1013 85 q 1019 47 1019 60 q 1005 13 1019 26 q 966 0 990 0 l 695 0 q 649 37 649 0 q 644 61 649 49 q 615 106 639 74 l 164 739 l 263 801 l 263 199 q 274 143 263 162 q 319 108 285 124 l 334 101 q 374 47 374 83 m 1815 196 q 1720 36 1815 97 q 1458 -25 1625 -25 q 1206 34 1297 -25 q 1115 195 1115 92 q 1155 310 1115 266 q 1261 353 1194 353 q 1358 313 1319 353 q 1396 198 1396 272 l 1396 135 q 1414 80 1396 99 q 1467 60 1431 60 q 1523 79 1503 60 q 1543 134 1543 99 q 1527 200 1543 169 q 1489 269 1510 232 q 1450 355 1467 306 q 1434 472 1434 403 l 1434 818 q 1426 848 1434 836 q 1399 864 1418 860 l 1357 873 q 1325 890 1335 878 q 1315 925 1315 902 q 1330 960 1315 947 q 1375 972 1344 972 l 1794 972 q 1840 960 1825 972 q 1854 925 1854 947 q 1818 874 1854 888 l 1792 864 q 1765 846 1774 857 q 1756 818 1756 835 l 1756 493 q 1765 399 1756 438 q 1786 329 1774 360 q 1806 267 1797 298 q 1815 196 1815 235 z "},"Ǽ":{"ha":1447,"x_min":10,"x_max":1442,"o":"m 749 972 l 704 869 l 641 869 l 286 227 q 270 150 260 181 q 312 103 280 119 l 331 93 q 357 75 347 85 q 367 47 367 65 q 352 13 367 26 q 308 0 338 0 l 69 0 q 24 13 38 0 q 10 47 10 26 q 41 94 10 74 l 56 103 q 95 143 75 115 q 138 209 116 171 l 458 783 q 472 840 478 819 q 438 873 465 861 q 410 895 419 882 q 402 925 402 908 q 417 960 402 947 q 462 972 431 972 l 749 972 m 315 467 l 694 467 l 695 363 l 314 363 l 315 467 m 846 542 l 1028 542 q 1090 559 1072 542 q 1123 625 1108 576 q 1174 669 1135 669 q 1220 628 1210 669 l 1274 410 q 1247 347 1286 360 q 1182 367 1206 333 q 1141 416 1160 399 q 1100 439 1123 433 q 1042 445 1078 445 l 846 445 l 846 542 m 646 154 l 646 972 l 1131 972 q 1184 978 1163 972 q 1223 991 1205 985 q 1266 997 1242 997 q 1313 980 1297 997 q 1341 922 1329 962 l 1400 727 q 1400 685 1408 702 q 1371 661 1392 669 q 1326 661 1346 652 q 1294 694 1306 670 q 1238 784 1264 749 q 1184 838 1211 819 q 1128 865 1158 858 q 1062 873 1099 873 l 968 873 l 968 184 q 989 120 968 142 q 1050 99 1010 99 l 1083 99 q 1175 116 1135 99 q 1251 177 1215 132 q 1327 306 1287 222 q 1355 336 1338 328 q 1395 340 1373 344 q 1431 318 1419 335 q 1434 274 1442 300 l 1369 50 q 1342 -7 1358 12 q 1292 -25 1326 -25 q 1252 -19 1270 -25 q 1214 -6 1235 -12 q 1160 0 1192 0 l 608 0 q 563 13 577 0 q 548 47 548 26 q 584 99 548 85 l 610 108 q 637 126 628 115 q 646 154 646 137 m 825 1210 q 890 1288 853 1261 q 975 1306 926 1315 q 1042 1262 1020 1297 q 1056 1190 1064 1226 q 1018 1121 1048 1147 q 934 1077 988 1096 l 807 1030 q 777 1026 792 1025 q 752 1038 761 1028 q 746 1061 743 1049 q 758 1087 749 1074 l 825 1210 z "},"Á":{"ha":1094,"x_min":19,"x_max":1060,"o":"m 248 414 l 653 414 l 654 310 l 247 310 l 248 414 m 360 47 q 345 13 360 26 q 301 0 331 0 l 78 0 q 34 13 49 0 q 19 47 19 26 q 27 73 19 63 q 51 94 34 84 l 65 103 q 101 138 88 117 q 129 209 114 158 l 307 783 q 316 843 319 824 q 288 873 313 861 q 260 895 268 883 q 252 925 252 908 q 267 960 252 947 q 312 972 281 972 l 758 972 q 803 960 789 972 q 818 925 818 947 q 809 894 818 906 q 785 874 801 882 q 764 852 767 866 q 771 807 761 838 l 962 202 q 988 134 976 156 q 1019 102 1000 112 q 1052 78 1044 90 q 1060 47 1060 66 q 1046 13 1060 26 q 1001 0 1031 0 l 634 0 q 589 13 603 0 q 574 47 574 26 q 583 75 574 65 q 610 94 592 86 l 633 105 q 648 127 651 113 q 635 174 645 142 l 431 851 l 460 871 l 261 227 q 250 170 250 192 q 263 133 249 148 q 305 103 276 118 l 324 93 q 350 75 340 85 q 360 47 360 65 m 576 1210 q 640 1288 604 1261 q 726 1306 676 1315 q 793 1262 771 1297 q 806 1190 815 1226 q 768 1121 799 1147 q 685 1077 738 1096 l 558 1030 q 527 1026 543 1025 q 503 1038 512 1028 q 497 1061 494 1049 q 508 1087 500 1074 l 576 1210 z "},"À":{"ha":1094,"x_min":19,"x_max":1060,"o":"m 248 414 l 653 414 l 654 310 l 247 310 l 248 414 m 360 47 q 345 13 360 26 q 301 0 331 0 l 78 0 q 34 13 49 0 q 19 47 19 26 q 27 73 19 63 q 51 94 34 84 l 65 103 q 101 138 88 117 q 129 209 114 158 l 307 783 q 316 843 319 824 q 288 873 313 861 q 260 895 268 883 q 252 925 252 908 q 267 960 252 947 q 312 972 281 972 l 758 972 q 803 960 789 972 q 818 925 818 947 q 809 894 818 906 q 785 874 801 882 q 764 852 767 866 q 771 807 761 838 l 962 202 q 988 134 976 156 q 1019 102 1000 112 q 1052 78 1044 90 q 1060 47 1060 66 q 1046 13 1060 26 q 1001 0 1031 0 l 634 0 q 589 13 603 0 q 574 47 574 26 q 583 75 574 65 q 610 94 592 86 l 633 105 q 648 127 651 113 q 635 174 645 142 l 431 851 l 460 871 l 261 227 q 250 170 250 192 q 263 133 249 148 q 305 103 276 118 l 324 93 q 350 75 340 85 q 360 47 360 65 m 591 1210 l 658 1087 q 670 1061 667 1074 q 664 1038 673 1049 q 639 1026 655 1028 q 609 1030 624 1025 l 482 1077 q 399 1121 429 1096 q 360 1190 368 1147 q 374 1262 352 1226 q 441 1306 396 1297 q 526 1288 490 1315 q 591 1210 563 1261 z "},"Ȁ":{"ha":1094,"x_min":19,"x_max":1060,"o":"m 248 414 l 653 414 l 654 310 l 247 310 l 248 414 m 360 47 q 345 13 360 26 q 301 0 331 0 l 78 0 q 34 13 49 0 q 19 47 19 26 q 27 73 19 63 q 51 94 34 84 l 65 103 q 101 138 88 117 q 129 209 114 158 l 307 783 q 316 843 319 824 q 288 873 313 861 q 260 895 268 883 q 252 925 252 908 q 267 960 252 947 q 312 972 281 972 l 758 972 q 803 960 789 972 q 818 925 818 947 q 809 894 818 906 q 785 874 801 882 q 764 852 767 866 q 771 807 761 838 l 962 202 q 988 134 976 156 q 1019 102 1000 112 q 1052 78 1044 90 q 1060 47 1060 66 q 1046 13 1060 26 q 1001 0 1031 0 l 634 0 q 589 13 603 0 q 574 47 574 26 q 583 75 574 65 q 610 94 592 86 l 633 105 q 648 127 651 113 q 635 174 645 142 l 431 851 l 460 871 l 261 227 q 250 170 250 192 q 263 133 249 148 q 305 103 276 118 l 324 93 q 350 75 340 85 q 360 47 360 65 m 443 1202 l 494 1081 q 503 1056 501 1067 q 495 1035 505 1045 q 473 1027 487 1027 q 444 1033 458 1026 l 331 1088 q 258 1136 283 1110 q 226 1200 232 1162 q 245 1267 222 1237 q 311 1303 269 1297 q 389 1280 358 1308 q 443 1202 419 1252 m 706 1202 l 753 1079 q 759 1054 758 1065 q 751 1034 760 1043 q 727 1027 742 1026 q 699 1034 712 1027 l 588 1093 q 518 1145 542 1117 q 490 1211 494 1172 q 513 1277 488 1247 q 581 1309 538 1306 q 657 1283 627 1313 q 706 1202 686 1253 z "},"Â":{"ha":1094,"x_min":19,"x_max":1060,"o":"m 248 414 l 653 414 l 654 310 l 247 310 l 248 414 m 360 47 q 345 13 360 26 q 301 0 331 0 l 78 0 q 34 13 49 0 q 19 47 19 26 q 27 73 19 63 q 51 94 34 84 l 65 103 q 101 138 88 117 q 129 209 114 158 l 307 783 q 316 843 319 824 q 288 873 313 861 q 260 895 268 883 q 252 925 252 908 q 267 960 252 947 q 312 972 281 972 l 758 972 q 803 960 789 972 q 818 925 818 947 q 809 894 818 906 q 785 874 801 882 q 764 852 767 866 q 771 807 761 838 l 962 202 q 988 134 976 156 q 1019 102 1000 112 q 1052 78 1044 90 q 1060 47 1060 66 q 1046 13 1060 26 q 1001 0 1031 0 l 634 0 q 589 13 603 0 q 574 47 574 26 q 583 75 574 65 q 610 94 592 86 l 633 105 q 648 127 651 113 q 635 174 645 142 l 431 851 l 460 871 l 261 227 q 250 170 250 192 q 263 133 249 148 q 305 103 276 118 l 324 93 q 350 75 340 85 q 360 47 360 65 m 607 1156 l 474 1156 l 697 1038 q 767 1035 741 1014 q 778 1059 776 1043 q 762 1092 779 1074 l 628 1241 q 588 1277 606 1263 q 540 1290 569 1290 q 493 1277 512 1290 q 452 1241 475 1263 l 319 1092 q 303 1059 302 1074 q 315 1035 305 1043 q 384 1038 340 1014 l 607 1156 z "},"Ậ":{"ha":1094,"x_min":19,"x_max":1060,"o":"m 248 414 l 653 414 l 654 310 l 247 310 l 248 414 m 360 47 q 345 13 360 26 q 301 0 331 0 l 78 0 q 34 13 49 0 q 19 47 19 26 q 27 73 19 63 q 51 94 34 84 l 65 103 q 101 138 88 117 q 129 209 114 158 l 307 783 q 316 843 319 824 q 288 873 313 861 q 260 895 268 883 q 252 925 252 908 q 267 960 252 947 q 312 972 281 972 l 758 972 q 803 960 789 972 q 818 925 818 947 q 809 894 818 906 q 785 874 801 882 q 764 852 767 866 q 771 807 761 838 l 962 202 q 988 134 976 156 q 1019 102 1000 112 q 1052 78 1044 90 q 1060 47 1060 66 q 1046 13 1060 26 q 1001 0 1031 0 l 634 0 q 589 13 603 0 q 574 47 574 26 q 583 75 574 65 q 610 94 592 86 l 633 105 q 648 127 651 113 q 635 174 645 142 l 431 851 l 460 871 l 261 227 q 250 170 250 192 q 263 133 249 148 q 305 103 276 118 l 324 93 q 350 75 340 85 q 360 47 360 65 m 607 1156 l 474 1156 l 697 1038 q 767 1035 741 1014 q 778 1059 776 1043 q 762 1092 779 1074 l 628 1241 q 588 1277 606 1263 q 540 1290 569 1290 q 493 1277 512 1290 q 452 1241 475 1263 l 319 1092 q 303 1059 302 1074 q 315 1035 305 1043 q 384 1038 340 1014 l 607 1156 m 558 -307 q 447 -273 488 -307 q 406 -177 406 -238 q 447 -83 406 -118 q 558 -49 488 -49 q 669 -83 629 -49 q 709 -177 709 -118 q 669 -272 709 -237 q 558 -307 629 -307 z "},"Ấ":{"ha":1094,"x_min":19,"x_max":1060,"o":"m 248 414 l 653 414 l 654 310 l 247 310 l 248 414 m 360 47 q 345 13 360 26 q 301 0 331 0 l 78 0 q 34 13 49 0 q 19 47 19 26 q 27 73 19 63 q 51 94 34 84 l 65 103 q 101 138 88 117 q 129 209 114 158 l 307 783 q 316 843 319 824 q 288 873 313 861 q 260 895 268 883 q 252 925 252 908 q 267 960 252 947 q 312 972 281 972 l 758 972 q 803 960 789 972 q 818 925 818 947 q 809 894 818 906 q 785 874 801 882 q 764 852 767 866 q 771 807 761 838 l 962 202 q 988 134 976 156 q 1019 102 1000 112 q 1052 78 1044 90 q 1060 47 1060 66 q 1046 13 1060 26 q 1001 0 1031 0 l 634 0 q 589 13 603 0 q 574 47 574 26 q 583 75 574 65 q 610 94 592 86 l 633 105 q 648 127 651 113 q 635 174 645 142 l 431 851 l 460 871 l 261 227 q 250 170 250 192 q 263 133 249 148 q 305 103 276 118 l 324 93 q 350 75 340 85 q 360 47 360 65 m 607 1156 l 474 1156 l 697 1038 q 767 1035 741 1014 q 778 1059 776 1043 q 762 1092 779 1074 l 628 1241 q 588 1277 606 1263 q 540 1290 569 1290 q 493 1277 512 1290 q 452 1241 475 1263 l 319 1092 q 303 1059 302 1074 q 315 1035 305 1043 q 384 1038 340 1014 l 607 1156 m 775 1341 q 830 1410 799 1386 q 902 1426 860 1434 q 961 1392 942 1422 q 975 1330 981 1363 q 943 1271 970 1293 q 872 1231 917 1249 l 765 1185 q 737 1181 750 1181 q 717 1191 724 1182 q 711 1211 708 1200 q 719 1232 714 1222 l 775 1341 z "},"Ầ":{"ha":1094,"x_min":19,"x_max":1060,"o":"m 248 414 l 653 414 l 654 310 l 247 310 l 248 414 m 360 47 q 345 13 360 26 q 301 0 331 0 l 78 0 q 34 13 49 0 q 19 47 19 26 q 27 73 19 63 q 51 94 34 84 l 65 103 q 101 138 88 117 q 129 209 114 158 l 307 783 q 316 843 319 824 q 288 873 313 861 q 260 895 268 883 q 252 925 252 908 q 267 960 252 947 q 312 972 281 972 l 758 972 q 803 960 789 972 q 818 925 818 947 q 809 894 818 906 q 785 874 801 882 q 764 852 767 866 q 771 807 761 838 l 962 202 q 988 134 976 156 q 1019 102 1000 112 q 1052 78 1044 90 q 1060 47 1060 66 q 1046 13 1060 26 q 1001 0 1031 0 l 634 0 q 589 13 603 0 q 574 47 574 26 q 583 75 574 65 q 610 94 592 86 l 633 105 q 648 127 651 113 q 635 174 645 142 l 431 851 l 460 871 l 261 227 q 250 170 250 192 q 263 133 249 148 q 305 103 276 118 l 324 93 q 350 75 340 85 q 360 47 360 65 m 607 1156 l 474 1156 l 697 1038 q 767 1035 741 1014 q 778 1059 776 1043 q 762 1092 779 1074 l 628 1241 q 588 1277 606 1263 q 540 1290 569 1290 q 493 1277 512 1290 q 452 1241 475 1263 l 319 1092 q 303 1059 302 1074 q 315 1035 305 1043 q 384 1038 340 1014 l 607 1156 m 807 1342 l 840 1223 q 843 1201 843 1212 q 833 1183 843 1190 q 812 1176 825 1175 q 785 1185 799 1178 l 691 1253 q 630 1304 651 1279 q 608 1365 609 1329 q 630 1424 608 1397 q 694 1452 653 1451 q 766 1424 740 1453 q 807 1342 792 1394 z "},"Ẩ":{"ha":1094,"x_min":19,"x_max":1060,"o":"m 248 414 l 653 414 l 654 310 l 247 310 l 248 414 m 360 47 q 345 13 360 26 q 301 0 331 0 l 78 0 q 34 13 49 0 q 19 47 19 26 q 27 73 19 63 q 51 94 34 84 l 65 103 q 101 138 88 117 q 129 209 114 158 l 307 783 q 316 843 319 824 q 288 873 313 861 q 260 895 268 883 q 252 925 252 908 q 267 960 252 947 q 312 972 281 972 l 758 972 q 803 960 789 972 q 818 925 818 947 q 809 894 818 906 q 785 874 801 882 q 764 852 767 866 q 771 807 761 838 l 962 202 q 988 134 976 156 q 1019 102 1000 112 q 1052 78 1044 90 q 1060 47 1060 66 q 1046 13 1060 26 q 1001 0 1031 0 l 634 0 q 589 13 603 0 q 574 47 574 26 q 583 75 574 65 q 610 94 592 86 l 633 105 q 648 127 651 113 q 635 174 645 142 l 431 851 l 460 871 l 261 227 q 250 170 250 192 q 263 133 249 148 q 305 103 276 118 l 324 93 q 350 75 340 85 q 360 47 360 65 m 607 1156 l 474 1156 l 697 1038 q 767 1035 741 1014 q 778 1059 776 1043 q 762 1092 779 1074 l 628 1241 q 588 1277 606 1263 q 540 1290 569 1290 q 493 1277 512 1290 q 452 1241 475 1263 l 319 1092 q 303 1059 302 1074 q 315 1035 305 1043 q 384 1038 340 1014 l 607 1156 m 756 1185 q 765 1164 756 1172 q 794 1156 774 1156 q 948 1194 890 1156 q 1005 1297 1005 1232 q 963 1379 1005 1347 q 831 1410 920 1410 q 710 1379 758 1410 q 663 1303 663 1347 q 680 1263 663 1277 q 725 1248 697 1248 q 790 1306 790 1248 l 790 1321 q 800 1348 790 1339 q 825 1357 809 1357 q 852 1344 844 1357 q 860 1301 860 1331 q 848 1242 860 1263 q 790 1215 835 1220 q 763 1204 769 1213 q 756 1185 756 1195 z "},"Ẫ":{"ha":1094,"x_min":19,"x_max":1060,"o":"m 248 414 l 653 414 l 654 310 l 247 310 l 248 414 m 360 47 q 345 13 360 26 q 301 0 331 0 l 78 0 q 34 13 49 0 q 19 47 19 26 q 27 73 19 63 q 51 94 34 84 l 65 103 q 101 138 88 117 q 129 209 114 158 l 307 783 q 316 843 319 824 q 288 873 313 861 q 260 895 268 883 q 252 925 252 908 q 267 960 252 947 q 312 972 281 972 l 758 972 q 803 960 789 972 q 818 925 818 947 q 809 894 818 906 q 785 874 801 882 q 764 852 767 866 q 771 807 761 838 l 962 202 q 988 134 976 156 q 1019 102 1000 112 q 1052 78 1044 90 q 1060 47 1060 66 q 1046 13 1060 26 q 1001 0 1031 0 l 634 0 q 589 13 603 0 q 574 47 574 26 q 583 75 574 65 q 610 94 592 86 l 633 105 q 648 127 651 113 q 635 174 645 142 l 431 851 l 460 871 l 261 227 q 250 170 250 192 q 263 133 249 148 q 305 103 276 118 l 324 93 q 350 75 340 85 q 360 47 360 65 m 608 1143 l 474 1143 l 697 1038 q 767 1034 744 1016 q 778 1059 776 1042 q 762 1091 781 1076 l 629 1228 q 587 1263 604 1249 q 541 1278 569 1278 q 495 1263 513 1278 q 453 1228 478 1249 l 319 1091 q 303 1059 301 1076 q 315 1034 306 1042 q 385 1038 338 1016 l 608 1143 m 635 1290 q 566 1306 597 1290 q 508 1338 534 1322 q 458 1354 481 1354 q 410 1304 421 1354 q 374 1283 400 1283 q 339 1324 339 1283 q 372 1442 339 1401 q 457 1483 405 1483 q 510 1473 485 1483 q 556 1450 535 1463 q 597 1427 578 1437 q 634 1417 617 1417 q 682 1468 671 1417 q 717 1489 692 1489 q 753 1449 753 1489 q 719 1330 753 1371 q 635 1290 686 1290 z "},"Ă":{"ha":1094,"x_min":19,"x_max":1060,"o":"m 248 414 l 653 414 l 654 310 l 247 310 l 248 414 m 360 47 q 345 13 360 26 q 301 0 331 0 l 78 0 q 34 13 49 0 q 19 47 19 26 q 27 73 19 63 q 51 94 34 84 l 65 103 q 101 138 88 117 q 129 209 114 158 l 307 783 q 316 843 319 824 q 288 873 313 861 q 260 895 268 883 q 252 925 252 908 q 267 960 252 947 q 312 972 281 972 l 758 972 q 803 960 789 972 q 818 925 818 947 q 809 894 818 906 q 785 874 801 882 q 764 852 767 866 q 771 807 761 838 l 962 202 q 988 134 976 156 q 1019 102 1000 112 q 1052 78 1044 90 q 1060 47 1060 66 q 1046 13 1060 26 q 1001 0 1031 0 l 634 0 q 589 13 603 0 q 574 47 574 26 q 583 75 574 65 q 610 94 592 86 l 633 105 q 648 127 651 113 q 635 174 645 142 l 431 851 l 460 871 l 261 227 q 250 170 250 192 q 263 133 249 148 q 305 103 276 118 l 324 93 q 350 75 340 85 q 360 47 360 65 m 541 1174 q 616 1190 585 1174 q 670 1241 647 1207 q 691 1261 681 1254 q 712 1268 701 1268 q 742 1253 732 1268 q 749 1215 752 1239 q 684 1074 742 1124 q 541 1025 626 1025 q 398 1074 456 1025 q 333 1215 340 1124 q 340 1253 330 1239 q 369 1268 350 1268 q 391 1261 382 1268 q 412 1241 401 1254 q 467 1190 436 1206 q 541 1174 499 1174 z "},"Ặ":{"ha":1094,"x_min":19,"x_max":1060,"o":"m 248 414 l 653 414 l 654 310 l 247 310 l 248 414 m 360 47 q 345 13 360 26 q 301 0 331 0 l 78 0 q 34 13 49 0 q 19 47 19 26 q 27 73 19 63 q 51 94 34 84 l 65 103 q 101 138 88 117 q 129 209 114 158 l 307 783 q 316 843 319 824 q 288 873 313 861 q 260 895 268 883 q 252 925 252 908 q 267 960 252 947 q 312 972 281 972 l 758 972 q 803 960 789 972 q 818 925 818 947 q 809 894 818 906 q 785 874 801 882 q 764 852 767 866 q 771 807 761 838 l 962 202 q 988 134 976 156 q 1019 102 1000 112 q 1052 78 1044 90 q 1060 47 1060 66 q 1046 13 1060 26 q 1001 0 1031 0 l 634 0 q 589 13 603 0 q 574 47 574 26 q 583 75 574 65 q 610 94 592 86 l 633 105 q 648 127 651 113 q 635 174 645 142 l 431 851 l 460 871 l 261 227 q 250 170 250 192 q 263 133 249 148 q 305 103 276 118 l 324 93 q 350 75 340 85 q 360 47 360 65 m 541 1174 q 616 1190 585 1174 q 670 1241 647 1207 q 691 1261 681 1254 q 712 1268 701 1268 q 742 1253 732 1268 q 749 1215 752 1239 q 684 1074 742 1124 q 541 1025 626 1025 q 398 1074 456 1025 q 333 1215 340 1124 q 340 1253 330 1239 q 369 1268 350 1268 q 391 1261 382 1268 q 412 1241 401 1254 q 467 1190 436 1206 q 541 1174 499 1174 m 496 -307 q 384 -273 425 -307 q 344 -177 344 -238 q 384 -83 344 -118 q 496 -49 425 -49 q 607 -83 567 -49 q 647 -177 647 -118 q 607 -272 647 -237 q 496 -307 567 -307 z "},"Ắ":{"ha":1094,"x_min":19,"x_max":1060,"o":"m 248 414 l 653 414 l 654 310 l 247 310 l 248 414 m 360 47 q 345 13 360 26 q 301 0 331 0 l 78 0 q 34 13 49 0 q 19 47 19 26 q 27 73 19 63 q 51 94 34 84 l 65 103 q 101 138 88 117 q 129 209 114 158 l 307 783 q 316 843 319 824 q 288 873 313 861 q 260 895 268 883 q 252 925 252 908 q 267 960 252 947 q 312 972 281 972 l 758 972 q 803 960 789 972 q 818 925 818 947 q 809 894 818 906 q 785 874 801 882 q 764 852 767 866 q 771 807 761 838 l 962 202 q 988 134 976 156 q 1019 102 1000 112 q 1052 78 1044 90 q 1060 47 1060 66 q 1046 13 1060 26 q 1001 0 1031 0 l 634 0 q 589 13 603 0 q 574 47 574 26 q 583 75 574 65 q 610 94 592 86 l 633 105 q 648 127 651 113 q 635 174 645 142 l 431 851 l 460 871 l 261 227 q 250 170 250 192 q 263 133 249 148 q 305 103 276 118 l 324 93 q 350 75 340 85 q 360 47 360 65 m 541 1174 q 616 1190 585 1174 q 670 1241 647 1207 q 691 1261 681 1254 q 712 1268 701 1268 q 742 1253 732 1268 q 749 1215 752 1239 q 684 1074 742 1124 q 541 1025 626 1025 q 398 1074 456 1025 q 333 1215 340 1124 q 340 1253 330 1239 q 369 1268 350 1268 q 391 1261 382 1268 q 412 1241 401 1254 q 467 1190 436 1206 q 541 1174 499 1174 m 545 1406 q 600 1475 569 1451 q 673 1492 630 1499 q 732 1457 713 1486 q 745 1394 751 1428 q 714 1336 740 1358 q 642 1295 687 1314 l 535 1251 q 507 1246 521 1246 q 488 1256 494 1247 q 481 1275 478 1265 q 490 1297 484 1286 l 545 1406 z "},"Ằ":{"ha":1094,"x_min":19,"x_max":1060,"o":"m 248 414 l 653 414 l 654 310 l 247 310 l 248 414 m 360 47 q 345 13 360 26 q 301 0 331 0 l 78 0 q 34 13 49 0 q 19 47 19 26 q 27 73 19 63 q 51 94 34 84 l 65 103 q 101 138 88 117 q 129 209 114 158 l 307 783 q 316 843 319 824 q 288 873 313 861 q 260 895 268 883 q 252 925 252 908 q 267 960 252 947 q 312 972 281 972 l 758 972 q 803 960 789 972 q 818 925 818 947 q 809 894 818 906 q 785 874 801 882 q 764 852 767 866 q 771 807 761 838 l 962 202 q 988 134 976 156 q 1019 102 1000 112 q 1052 78 1044 90 q 1060 47 1060 66 q 1046 13 1060 26 q 1001 0 1031 0 l 634 0 q 589 13 603 0 q 574 47 574 26 q 583 75 574 65 q 610 94 592 86 l 633 105 q 648 127 651 113 q 635 174 645 142 l 431 851 l 460 871 l 261 227 q 250 170 250 192 q 263 133 249 148 q 305 103 276 118 l 324 93 q 350 75 340 85 q 360 47 360 65 m 541 1174 q 616 1190 585 1174 q 670 1241 647 1207 q 691 1261 681 1254 q 712 1268 701 1268 q 742 1253 732 1268 q 749 1215 752 1239 q 684 1074 742 1124 q 541 1025 626 1025 q 398 1074 456 1025 q 333 1215 340 1124 q 340 1253 330 1239 q 369 1268 350 1268 q 391 1261 382 1268 q 412 1241 401 1254 q 467 1190 436 1206 q 541 1174 499 1174 m 559 1406 l 615 1297 q 623 1275 620 1286 q 617 1256 626 1265 q 597 1246 610 1247 q 569 1251 583 1246 l 463 1295 q 391 1336 417 1314 q 359 1394 365 1358 q 373 1457 354 1428 q 431 1492 392 1486 q 505 1475 474 1499 q 559 1406 535 1451 z "},"Ẳ":{"ha":1094,"x_min":19,"x_max":1060,"o":"m 248 414 l 653 414 l 654 310 l 247 310 l 248 414 m 360 47 q 345 13 360 26 q 301 0 331 0 l 78 0 q 34 13 49 0 q 19 47 19 26 q 27 73 19 63 q 51 94 34 84 l 65 103 q 101 138 88 117 q 129 209 114 158 l 307 783 q 316 843 319 824 q 288 873 313 861 q 260 895 268 883 q 252 925 252 908 q 267 960 252 947 q 312 972 281 972 l 758 972 q 803 960 789 972 q 818 925 818 947 q 809 894 818 906 q 785 874 801 882 q 764 852 767 866 q 771 807 761 838 l 962 202 q 988 134 976 156 q 1019 102 1000 112 q 1052 78 1044 90 q 1060 47 1060 66 q 1046 13 1060 26 q 1001 0 1031 0 l 634 0 q 589 13 603 0 q 574 47 574 26 q 583 75 574 65 q 610 94 592 86 l 633 105 q 648 127 651 113 q 635 174 645 142 l 431 851 l 460 871 l 261 227 q 250 170 250 192 q 263 133 249 148 q 305 103 276 118 l 324 93 q 350 75 340 85 q 360 47 360 65 m 541 1174 q 616 1190 585 1174 q 670 1241 647 1207 q 691 1261 681 1254 q 712 1268 701 1268 q 742 1253 732 1268 q 749 1215 752 1239 q 684 1074 742 1124 q 541 1025 626 1025 q 398 1074 456 1025 q 333 1215 340 1124 q 340 1253 330 1239 q 369 1268 350 1268 q 391 1261 382 1268 q 412 1241 401 1254 q 467 1190 436 1206 q 541 1174 499 1174 m 467 1281 q 476 1260 467 1267 q 503 1253 485 1253 q 647 1289 594 1253 q 701 1387 701 1325 q 661 1465 701 1435 q 538 1495 622 1495 q 425 1466 469 1495 q 381 1395 381 1436 q 397 1356 381 1370 q 440 1342 413 1342 q 501 1394 501 1342 l 501 1409 q 509 1436 501 1427 q 533 1444 517 1444 q 558 1432 550 1444 q 566 1389 566 1419 q 553 1333 566 1353 q 500 1309 541 1313 q 474 1298 481 1306 q 467 1281 467 1290 z "},"Ẵ":{"ha":1094,"x_min":19,"x_max":1060,"o":"m 248 414 l 653 414 l 654 310 l 247 310 l 248 414 m 360 47 q 345 13 360 26 q 301 0 331 0 l 78 0 q 34 13 49 0 q 19 47 19 26 q 27 73 19 63 q 51 94 34 84 l 65 103 q 101 138 88 117 q 129 209 114 158 l 307 783 q 316 843 319 824 q 288 873 313 861 q 260 895 268 883 q 252 925 252 908 q 267 960 252 947 q 312 972 281 972 l 758 972 q 803 960 789 972 q 818 925 818 947 q 809 894 818 906 q 785 874 801 882 q 764 852 767 866 q 771 807 761 838 l 962 202 q 988 134 976 156 q 1019 102 1000 112 q 1052 78 1044 90 q 1060 47 1060 66 q 1046 13 1060 26 q 1001 0 1031 0 l 634 0 q 589 13 603 0 q 574 47 574 26 q 583 75 574 65 q 610 94 592 86 l 633 105 q 648 127 651 113 q 635 174 645 142 l 431 851 l 460 871 l 261 227 q 250 170 250 192 q 263 133 249 148 q 305 103 276 118 l 324 93 q 350 75 340 85 q 360 47 360 65 m 541 1174 q 616 1190 585 1174 q 670 1241 647 1207 q 691 1261 681 1254 q 712 1268 701 1268 q 742 1253 732 1268 q 749 1215 752 1239 q 684 1074 742 1124 q 541 1025 626 1025 q 398 1074 456 1025 q 333 1215 340 1124 q 340 1253 330 1239 q 369 1268 350 1268 q 391 1261 382 1268 q 412 1241 401 1254 q 467 1190 436 1206 q 541 1174 499 1174 m 628 1285 q 559 1302 591 1285 q 499 1335 526 1319 q 448 1352 472 1352 q 408 1316 424 1352 q 390 1300 399 1305 q 367 1297 382 1296 q 339 1331 339 1299 q 371 1442 339 1404 q 454 1481 403 1481 q 507 1470 483 1481 q 554 1447 532 1460 q 596 1424 576 1434 q 634 1414 616 1414 q 674 1449 658 1414 q 692 1466 684 1461 q 715 1469 701 1470 q 743 1435 743 1467 q 711 1323 743 1361 q 628 1285 678 1285 z "},"Ȃ":{"ha":1094,"x_min":19,"x_max":1060,"o":"m 248 414 l 653 414 l 654 310 l 247 310 l 248 414 m 360 47 q 345 13 360 26 q 301 0 331 0 l 78 0 q 34 13 49 0 q 19 47 19 26 q 27 73 19 63 q 51 94 34 84 l 65 103 q 101 138 88 117 q 129 209 114 158 l 307 783 q 316 843 319 824 q 288 873 313 861 q 260 895 268 883 q 252 925 252 908 q 267 960 252 947 q 312 972 281 972 l 758 972 q 803 960 789 972 q 818 925 818 947 q 809 894 818 906 q 785 874 801 882 q 764 852 767 866 q 771 807 761 838 l 962 202 q 988 134 976 156 q 1019 102 1000 112 q 1052 78 1044 90 q 1060 47 1060 66 q 1046 13 1060 26 q 1001 0 1031 0 l 634 0 q 589 13 603 0 q 574 47 574 26 q 583 75 574 65 q 610 94 592 86 l 633 105 q 648 127 651 113 q 635 174 645 142 l 431 851 l 460 871 l 261 227 q 250 170 250 192 q 263 133 249 148 q 305 103 276 118 l 324 93 q 350 75 340 85 q 360 47 360 65 m 541 1127 q 467 1108 497 1127 q 412 1053 438 1089 q 391 1033 401 1040 q 369 1026 382 1026 q 340 1040 350 1026 q 333 1078 330 1055 q 398 1225 340 1174 q 541 1276 456 1276 q 684 1225 626 1276 q 749 1078 742 1174 q 742 1040 752 1055 q 712 1026 732 1026 q 691 1033 701 1026 q 670 1053 681 1040 q 614 1109 644 1091 q 541 1127 583 1127 z "},"Ã":{"ha":1094,"x_min":19,"x_max":1060,"o":"m 248 414 l 653 414 l 654 310 l 247 310 l 248 414 m 360 47 q 345 13 360 26 q 301 0 331 0 l 78 0 q 34 13 49 0 q 19 47 19 26 q 27 73 19 63 q 51 94 34 84 l 65 103 q 101 138 88 117 q 129 209 114 158 l 307 783 q 316 843 319 824 q 288 873 313 861 q 260 895 268 883 q 252 925 252 908 q 267 960 252 947 q 312 972 281 972 l 758 972 q 803 960 789 972 q 818 925 818 947 q 809 894 818 906 q 785 874 801 882 q 764 852 767 866 q 771 807 761 838 l 962 202 q 988 134 976 156 q 1019 102 1000 112 q 1052 78 1044 90 q 1060 47 1060 66 q 1046 13 1060 26 q 1001 0 1031 0 l 634 0 q 589 13 603 0 q 574 47 574 26 q 583 75 574 65 q 610 94 592 86 l 633 105 q 648 127 651 113 q 635 174 645 142 l 431 851 l 460 871 l 261 227 q 250 170 250 192 q 263 133 249 148 q 305 103 276 118 l 324 93 q 350 75 340 85 q 360 47 360 65 m 644 1032 q 586 1043 613 1032 q 537 1068 560 1053 q 494 1093 515 1083 q 456 1104 474 1104 q 404 1050 417 1104 q 367 1025 394 1025 q 329 1074 329 1025 q 364 1211 329 1164 q 457 1258 399 1258 q 515 1247 489 1258 q 564 1222 542 1236 q 607 1197 587 1208 q 646 1186 627 1186 q 697 1240 686 1186 q 735 1265 708 1265 q 772 1216 772 1265 q 738 1079 772 1126 q 644 1032 703 1032 z "},"Ā":{"ha":1094,"x_min":19,"x_max":1060,"o":"m 248 414 l 653 414 l 654 310 l 247 310 l 248 414 m 360 47 q 345 13 360 26 q 301 0 331 0 l 78 0 q 34 13 49 0 q 19 47 19 26 q 27 73 19 63 q 51 94 34 84 l 65 103 q 101 138 88 117 q 129 209 114 158 l 307 783 q 316 843 319 824 q 288 873 313 861 q 260 895 268 883 q 252 925 252 908 q 267 960 252 947 q 312 972 281 972 l 758 972 q 803 960 789 972 q 818 925 818 947 q 809 894 818 906 q 785 874 801 882 q 764 852 767 866 q 771 807 761 838 l 962 202 q 988 134 976 156 q 1019 102 1000 112 q 1052 78 1044 90 q 1060 47 1060 66 q 1046 13 1060 26 q 1001 0 1031 0 l 634 0 q 589 13 603 0 q 574 47 574 26 q 583 75 574 65 q 610 94 592 86 l 633 105 q 648 127 651 113 q 635 174 645 142 l 431 851 l 460 871 l 261 227 q 250 170 250 192 q 263 133 249 148 q 305 103 276 118 l 324 93 q 350 75 340 85 q 360 47 360 65 m 298 1133 q 313 1184 298 1167 q 356 1200 328 1200 l 717 1200 q 761 1184 746 1200 q 776 1133 776 1168 q 761 1082 776 1099 q 717 1066 746 1066 l 356 1066 q 313 1082 328 1066 q 298 1133 298 1099 z "},"Ä":{"ha":1094,"x_min":19,"x_max":1060,"o":"m 248 414 l 653 414 l 654 310 l 247 310 l 248 414 m 360 47 q 345 13 360 26 q 301 0 331 0 l 78 0 q 34 13 49 0 q 19 47 19 26 q 27 73 19 63 q 51 94 34 84 l 65 103 q 101 138 88 117 q 129 209 114 158 l 307 783 q 316 843 319 824 q 288 873 313 861 q 260 895 268 883 q 252 925 252 908 q 267 960 252 947 q 312 972 281 972 l 758 972 q 803 960 789 972 q 818 925 818 947 q 809 894 818 906 q 785 874 801 882 q 764 852 767 866 q 771 807 761 838 l 962 202 q 988 134 976 156 q 1019 102 1000 112 q 1052 78 1044 90 q 1060 47 1060 66 q 1046 13 1060 26 q 1001 0 1031 0 l 634 0 q 589 13 603 0 q 574 47 574 26 q 583 75 574 65 q 610 94 592 86 l 633 105 q 648 127 651 113 q 635 174 645 142 l 431 851 l 460 871 l 261 227 q 250 170 250 192 q 263 133 249 148 q 305 103 276 118 l 324 93 q 350 75 340 85 q 360 47 360 65 m 376 1024 q 278 1056 315 1024 q 242 1144 242 1088 q 278 1234 242 1201 q 376 1266 315 1266 q 473 1234 438 1266 q 508 1144 508 1201 q 473 1057 508 1090 q 376 1024 438 1024 m 697 1024 q 599 1056 635 1024 q 563 1144 563 1088 q 599 1233 563 1201 q 697 1266 635 1266 q 795 1234 760 1266 q 831 1144 831 1201 q 795 1057 831 1090 q 697 1024 760 1024 z "},"Å":{"ha":1094,"x_min":19,"x_max":1060,"o":"m 248 414 l 653 414 l 654 310 l 247 310 l 248 414 m 360 47 q 345 13 360 26 q 301 0 331 0 l 78 0 q 34 13 49 0 q 19 47 19 26 q 27 73 19 63 q 51 94 34 84 l 65 103 q 101 138 88 117 q 129 209 114 158 l 307 783 q 316 843 319 824 q 288 873 313 861 q 260 895 268 883 q 252 925 252 908 q 267 960 252 947 q 312 972 281 972 l 758 972 q 803 960 789 972 q 818 925 818 947 q 809 894 818 906 q 785 874 801 882 q 764 852 767 866 q 771 807 761 838 l 962 202 q 988 134 976 156 q 1019 102 1000 112 q 1052 78 1044 90 q 1060 47 1060 66 q 1046 13 1060 26 q 1001 0 1031 0 l 634 0 q 589 13 603 0 q 574 47 574 26 q 583 75 574 65 q 610 94 592 86 l 633 105 q 648 127 651 113 q 635 174 645 142 l 431 851 l 460 871 l 261 227 q 250 170 250 192 q 263 133 249 148 q 305 103 276 118 l 324 93 q 350 75 340 85 q 360 47 360 65 m 547 1022 q 424 1056 474 1022 q 375 1156 375 1090 q 424 1255 375 1221 q 547 1289 474 1289 q 670 1254 622 1289 q 719 1156 719 1219 q 670 1057 719 1092 q 547 1022 622 1022 m 548 1228 q 513 1210 526 1228 q 500 1156 500 1192 q 513 1100 500 1119 q 548 1081 526 1081 q 582 1100 569 1081 q 594 1156 594 1119 q 582 1210 594 1192 q 548 1228 569 1228 z "},"Ǻ":{"ha":1094,"x_min":19,"x_max":1060,"o":"m 248 414 l 653 414 l 654 310 l 247 310 l 248 414 m 360 47 q 345 13 360 26 q 301 0 331 0 l 78 0 q 34 13 49 0 q 19 47 19 26 q 27 73 19 63 q 51 94 34 84 l 65 103 q 101 138 88 117 q 129 209 114 158 l 307 783 q 316 843 319 824 q 288 873 313 861 q 260 895 268 883 q 252 925 252 908 q 267 960 252 947 q 312 972 281 972 l 758 972 q 803 960 789 972 q 818 925 818 947 q 809 894 818 906 q 785 874 801 882 q 764 852 767 866 q 771 807 761 838 l 962 202 q 988 134 976 156 q 1019 102 1000 112 q 1052 78 1044 90 q 1060 47 1060 66 q 1046 13 1060 26 q 1001 0 1031 0 l 634 0 q 589 13 603 0 q 574 47 574 26 q 583 75 574 65 q 610 94 592 86 l 633 105 q 648 127 651 113 q 635 174 645 142 l 431 851 l 460 871 l 261 227 q 250 170 250 192 q 263 133 249 148 q 305 103 276 118 l 324 93 q 350 75 340 85 q 360 47 360 65 m 547 1019 q 421 1054 472 1019 q 370 1156 370 1089 q 421 1258 370 1223 q 547 1293 472 1293 q 673 1257 623 1293 q 723 1156 723 1221 q 673 1055 723 1091 q 547 1019 623 1019 m 548 1231 q 513 1213 526 1231 q 499 1156 499 1194 q 513 1099 499 1118 q 548 1080 526 1080 q 583 1099 570 1080 q 595 1156 595 1119 q 583 1212 595 1194 q 548 1231 570 1231 m 529 1474 q 592 1545 558 1521 q 669 1555 625 1569 q 726 1511 710 1544 q 732 1447 742 1479 q 695 1391 722 1412 q 621 1356 668 1371 l 510 1313 q 482 1311 496 1308 q 462 1322 469 1313 q 458 1343 455 1333 q 469 1364 462 1353 l 529 1474 z "},"Ả":{"ha":1094,"x_min":19,"x_max":1060,"o":"m 248 414 l 653 414 l 654 310 l 247 310 l 248 414 m 360 47 q 345 13 360 26 q 301 0 331 0 l 78 0 q 34 13 49 0 q 19 47 19 26 q 27 73 19 63 q 51 94 34 84 l 65 103 q 101 138 88 117 q 129 209 114 158 l 307 783 q 316 843 319 824 q 288 873 313 861 q 260 895 268 883 q 252 925 252 908 q 267 960 252 947 q 312 972 281 972 l 758 972 q 803 960 789 972 q 818 925 818 947 q 809 894 818 906 q 785 874 801 882 q 764 852 767 866 q 771 807 761 838 l 962 202 q 988 134 976 156 q 1019 102 1000 112 q 1052 78 1044 90 q 1060 47 1060 66 q 1046 13 1060 26 q 1001 0 1031 0 l 634 0 q 589 13 603 0 q 574 47 574 26 q 583 75 574 65 q 610 94 592 86 l 633 105 q 648 127 651 113 q 635 174 645 142 l 431 851 l 460 871 l 261 227 q 250 170 250 192 q 263 133 249 148 q 305 103 276 118 l 324 93 q 350 75 340 85 q 360 47 360 65 m 469 1059 q 478 1038 469 1046 q 508 1030 488 1030 q 673 1071 612 1030 q 733 1183 733 1112 q 689 1273 733 1239 q 549 1308 644 1308 q 419 1274 470 1308 q 369 1193 369 1240 q 388 1147 369 1163 q 436 1131 406 1131 q 506 1192 506 1131 l 506 1215 q 515 1244 506 1234 q 542 1253 525 1253 q 571 1239 562 1253 q 580 1188 580 1224 q 566 1119 580 1144 q 504 1090 551 1095 q 476 1078 483 1087 q 469 1059 469 1069 z "},"Ạ":{"ha":1094,"x_min":19,"x_max":1060,"o":"m 248 414 l 653 414 l 654 310 l 247 310 l 248 414 m 360 47 q 345 13 360 26 q 301 0 331 0 l 78 0 q 34 13 49 0 q 19 47 19 26 q 27 73 19 63 q 51 94 34 84 l 65 103 q 101 138 88 117 q 129 209 114 158 l 307 783 q 316 843 319 824 q 288 873 313 861 q 260 895 268 883 q 252 925 252 908 q 267 960 252 947 q 312 972 281 972 l 758 972 q 803 960 789 972 q 818 925 818 947 q 809 894 818 906 q 785 874 801 882 q 764 852 767 866 q 771 807 761 838 l 962 202 q 988 134 976 156 q 1019 102 1000 112 q 1052 78 1044 90 q 1060 47 1060 66 q 1046 13 1060 26 q 1001 0 1031 0 l 634 0 q 589 13 603 0 q 574 47 574 26 q 583 75 574 65 q 610 94 592 86 l 633 105 q 648 127 651 113 q 635 174 645 142 l 431 851 l 460 871 l 261 227 q 250 170 250 192 q 263 133 249 148 q 305 103 276 118 l 324 93 q 350 75 340 85 q 360 47 360 65 m 496 -307 q 384 -273 425 -307 q 344 -177 344 -238 q 384 -83 344 -118 q 496 -49 425 -49 q 607 -83 567 -49 q 647 -177 647 -118 q 607 -272 647 -237 q 496 -307 567 -307 z "}}}
